<?xml version="1.0" encoding="UTF-8" standalone="no"?>
<!-- Created with Inkscape (http://www.inkscape.org/) -->

<svg
   xmlns:osb="http://www.openswatchbook.org/uri/2009/osb"
   xmlns:dc="http://purl.org/dc/elements/1.1/"
   xmlns:cc="http://creativecommons.org/ns#"
   xmlns:rdf="http://www.w3.org/1999/02/22-rdf-syntax-ns#"
   xmlns:svg="http://www.w3.org/2000/svg"
   xmlns="http://www.w3.org/2000/svg"
   xmlns:sodipodi="http://sodipodi.sourceforge.net/DTD/sodipodi-0.dtd"
   xmlns:inkscape="http://www.inkscape.org/namespaces/inkscape"
   width="195.85469mm"
   height="174.99966mm"
   viewBox="0 0 195.85469 174.99966"
   version="1.1"
   id="svg8"
   sodipodi:docname="slew_blue.svg"
   inkscape:version="0.92.3 (2405546, 2018-03-11)"
   inkscape:export-filename="/home/iko/Documents/Projects/VILLAS/VILLASweb/public/blue.png"
   inkscape:export-xdpi="1.8859175"
   inkscape:export-ydpi="1.8859175">
  <defs
     id="defs2"
     style="stroke-linecap:butt;stroke-linejoin:round">
    <inkscape:path-effect
       effect="bspline"
       id="path-effect1772"
       is_visible="true"
       weight="33.333333"
       steps="2"
       helper_size="0"
       apply_no_weight="true"
       apply_with_weight="true"
       only_selected="false" />
    <inkscape:path-effect
       effect="bspline"
       id="path-effect1768"
       is_visible="true"
       weight="33.333333"
       steps="2"
       helper_size="0"
       apply_no_weight="true"
       apply_with_weight="true"
       only_selected="false" />
    <inkscape:path-effect
       effect="bspline"
       id="path-effect1764"
       is_visible="true"
       weight="33.333333"
       steps="2"
       helper_size="0"
       apply_no_weight="true"
       apply_with_weight="true"
       only_selected="false" />
    <inkscape:path-effect
       effect="bspline"
       id="path-effect1760"
       is_visible="true"
       weight="33.333333"
       steps="2"
       helper_size="0"
       apply_no_weight="true"
       apply_with_weight="true"
       only_selected="false" />
    <inkscape:path-effect
       effect="bspline"
       id="path-effect3002"
       is_visible="true"
       weight="33.333333"
       steps="2"
       helper_size="0"
       apply_no_weight="true"
       apply_with_weight="true"
       only_selected="false" />
    <inkscape:path-effect
       effect="bspline"
       id="path-effect2998"
       is_visible="true"
       weight="33.333333"
       steps="2"
       helper_size="0"
       apply_no_weight="true"
       apply_with_weight="true"
       only_selected="false" />
    <inkscape:path-effect
       effect="bspline"
       id="path-effect2994"
       is_visible="true"
       weight="33.333333"
       steps="2"
       helper_size="0"
       apply_no_weight="true"
       apply_with_weight="true"
       only_selected="false" />
    <inkscape:path-effect
       effect="bspline"
       id="path-effect2988"
       is_visible="true"
       weight="33.333333"
       steps="2"
       helper_size="0"
       apply_no_weight="true"
       apply_with_weight="true"
       only_selected="false" />
    <inkscape:path-effect
       effect="bspline"
       id="path-effect2984"
       is_visible="true"
       weight="33.333333"
       steps="2"
       helper_size="0"
       apply_no_weight="true"
       apply_with_weight="true"
       only_selected="false" />
    <inkscape:path-effect
       effect="spiro"
       id="path-effect6665"
       is_visible="true" />
    <inkscape:path-effect
       effect="spiro"
       id="path-effect6661"
       is_visible="true" />
    <linearGradient
       id="linearGradient5493"
       osb:paint="solid">
      <stop
         style="stop-color:#6264cc;stop-opacity:1;"
         offset="0"
         id="stop5491" />
    </linearGradient>
    <linearGradient
       id="linearGradient2424"
       osb:paint="solid">
      <stop
         style="stop-color:#000000;stop-opacity:1;"
         offset="0"
         id="stop2422" />
    </linearGradient>
    <inkscape:path-effect
       only_selected="false"
       apply_with_weight="true"
       apply_no_weight="true"
       helper_size="0"
       steps="2"
       weight="33.333333"
       is_visible="true"
       id="path-effect4159"
       effect="bspline" />
    <inkscape:path-effect
       only_selected="false"
       apply_with_weight="true"
       apply_no_weight="true"
       helper_size="0"
       steps="2"
       weight="33.333333"
       is_visible="true"
       id="path-effect4155"
       effect="bspline" />
    <inkscape:path-effect
       only_selected="false"
       apply_with_weight="true"
       apply_no_weight="true"
       helper_size="0"
       steps="2"
       weight="33.333333"
       is_visible="true"
       id="path-effect4151"
       effect="bspline" />
    <inkscape:path-effect
       only_selected="false"
       apply_with_weight="true"
       apply_no_weight="true"
       helper_size="0"
       steps="2"
       weight="33.333333"
       is_visible="true"
       id="path-effect4147"
       effect="bspline" />
    <inkscape:path-effect
       only_selected="false"
       apply_with_weight="true"
       apply_no_weight="true"
       helper_size="0"
       steps="2"
       weight="33.333333"
       is_visible="true"
       id="path-effect4143"
       effect="bspline" />
    <inkscape:path-effect
       only_selected="false"
       apply_with_weight="true"
       apply_no_weight="true"
       helper_size="0"
       steps="2"
       weight="33.333333"
       is_visible="true"
       id="path-effect4139"
       effect="bspline" />
    <style
       type="text/css"
       id="style3286">*{stroke-linecap:butt;stroke-linejoin:round;}</style>
    <path
       inkscape:connector-curvature="0"
       d="M 0,0 V 3.5"
       id="me6029f38e9"
       style="stroke:#000000;stroke-width:0.80000001;stroke-linecap:butt;stroke-linejoin:round" />
    <path
       style="stroke-linecap:butt;stroke-linejoin:round"
       inkscape:connector-curvature="0"
       d="m 12.40625,8.296875 h 16.109375 v 55.625 L 10.984375,60.40625 v 8.984375 l 17.4375,3.515625 H 38.28125 V 8.296875 H 54.390625 V 0 H 12.40625 Z"
       id="DejaVuSans-49" />
    <path
       style="stroke-linecap:butt;stroke-linejoin:round"
       inkscape:connector-curvature="0"
       d="m 31.78125,66.40625 q -7.609375,0 -11.453125,-7.5 Q 16.5,51.421875 16.5,36.375 q 0,-14.984375 3.828125,-22.484375 3.84375,-7.5 11.453125,-7.5 7.671875,0 11.5,7.5 3.84375,7.5 3.84375,22.484375 0,15.046875 -3.84375,22.53125 -3.828125,7.5 -11.5,7.5 z m 0,7.8125 q 12.265625,0 18.734375,-9.703125 6.46875,-9.6875 6.46875,-28.140625 0,-18.40625 -6.46875,-28.109375 -6.46875,-9.6875 -18.734375,-9.6875 -12.25,0 -18.71875,9.6875 Q 6.59375,17.96875 6.59375,36.375 q 0,18.453125 6.46875,28.140625 6.46875,9.703125 18.71875,9.703125 z"
       id="DejaVuSans-48" />
    <path
       style="stroke-linecap:butt;stroke-linejoin:round"
       inkscape:connector-curvature="0"
       d="M 19.1875,8.296875 H 53.609375 V 0 H 7.328125 v 8.296875 q 5.609375,5.8125 15.296875,15.59375 9.703125,9.796875 12.1875,12.640625 4.734375,5.3125 6.609375,9 1.890625,3.6875 1.890625,7.25 0,5.8125 -4.078125,9.46875 -4.078125,3.671875 -10.625,3.671875 -4.640625,0 -9.796875,-1.609375 -5.140625,-1.609375 -11,-4.890625 v 9.96875 Q 13.765625,71.78125 18.9375,73 q 5.1875,1.21875 9.484375,1.21875 11.328125,0 18.0625,-5.671875 6.734375,-5.65625 6.734375,-15.125 0,-4.5 -1.6875,-8.53125 Q 49.859375,40.875 45.40625,35.40625 44.1875,33.984375 37.640625,27.21875 31.109375,20.453125 19.1875,8.296875 Z"
       id="DejaVuSans-50" />
    <path
       style="stroke-linecap:butt;stroke-linejoin:round"
       inkscape:connector-curvature="0"
       d="M 37.796875,64.3125 12.890625,25.390625 h 24.90625 z m -2.59375,8.59375 h 12.40625 V 25.390625 h 10.40625 V 17.1875 H 47.609375 V 0 h -9.8125 V 17.1875 H 4.890625 v 9.515625 z"
       id="DejaVuSans-52" />
    <path
       style="stroke-linecap:butt;stroke-linejoin:round"
       inkscape:connector-curvature="0"
       d="m 33.015625,40.375 q -6.640625,0 -10.53125,-4.546875 -3.875,-4.53125 -3.875,-12.4375 0,-7.859375 3.875,-12.4375 3.890625,-4.5625 10.53125,-4.5625 6.640625,0 10.515625,4.5625 3.875,4.578125 3.875,12.4375 0,7.90625 -3.875,12.4375 Q 39.65625,40.375 33.015625,40.375 Z M 52.59375,71.296875 V 62.3125 q -3.71875,1.75 -7.5,2.671875 -3.78125,0.9375 -7.5,0.9375 -9.765625,0 -14.921875,-6.59375 -5.140625,-6.59375 -5.875,-19.921875 2.875,4.25 7.21875,6.515625 4.359375,2.265625 9.578125,2.265625 10.984375,0 17.359375,-6.671875 6.375,-6.65625 6.375,-18.125 0,-11.234375 -6.640625,-18.03125 -6.640625,-6.78125 -17.671875,-6.78125 -12.65625,0 -19.34375,9.6875 -6.6875,9.703125 -6.6875,28.109375 0,17.28125 8.203125,27.5625 8.203125,10.28125 22.015625,10.28125 3.71875,0 7.5,-0.734375 3.78125,-0.734375 7.890625,-2.1875 z"
       id="DejaVuSans-54" />
    <path
       style="stroke-linecap:butt;stroke-linejoin:round"
       inkscape:connector-curvature="0"
       d="m 31.78125,34.625 q -7.03125,0 -11.0625,-3.765625 -4.015625,-3.765625 -4.015625,-10.34375 0,-6.59375 4.015625,-10.359375 4.03125,-3.765625 11.0625,-3.765625 7.03125,0 11.078125,3.78125 4.0625,3.796875 4.0625,10.34375 0,6.578125 -4.03125,10.34375 Q 38.875,34.625 31.78125,34.625 Z m -9.859375,4.1875 Q 15.578125,40.375 12.03125,44.71875 8.5,49.078125 8.5,55.328125 q 0,8.734375 6.21875,13.8125 6.234375,5.078125 17.0625,5.078125 10.890625,0 17.09375,-5.078125 6.203125,-5.078125 6.203125,-13.8125 0,-6.25 -3.546875,-10.609375 Q 48,40.375 41.703125,38.8125 q 7.125,-1.65625 11.09375,-6.5 3.984375,-4.828125 3.984375,-11.796875 0,-10.609375 -6.46875,-16.28125 -6.46875,-5.65625 -18.53125,-5.65625 -12.046875,0 -18.53125,5.65625 -6.46875,5.671875 -6.46875,16.28125 0,6.96875 4,11.796875 4.015625,4.84375 11.140625,6.5 z M 18.3125,54.390625 q 0,-5.65625 3.53125,-8.828125 3.546875,-3.171875 9.9375,-3.171875 6.359375,0 9.9375,3.171875 3.59375,3.171875 3.59375,8.828125 0,5.671875 -3.59375,8.84375 -3.578125,3.171875 -9.9375,3.171875 -6.390625,0 -9.9375,-3.171875 Q 18.3125,60.0625 18.3125,54.390625 Z"
       id="DejaVuSans-56" />
    <path
       style="stroke-linecap:butt;stroke-linejoin:round"
       inkscape:connector-curvature="0"
       d="M 18.3125,70.21875 V 54.6875 h 18.5 v -6.984375 h -18.5 v -29.6875 q 0,-6.6875 1.828125,-8.59375 1.828125,-1.90625 7.453125,-1.90625 H 36.8125 V 0 H 27.59375 Q 17.1875,0 13.234375,3.875 9.28125,7.765625 9.28125,18.015625 v 29.6875 H 2.6875 V 54.6875 h 6.59375 v 15.53125 z"
       id="DejaVuSans-116" />
    <path
       style="stroke-linecap:butt;stroke-linejoin:round"
       inkscape:connector-curvature="0"
       d="M 9.421875,54.6875 H 18.40625 V 0 H 9.421875 Z m 0,21.296875 H 18.40625 V 64.59375 H 9.421875 Z"
       id="DejaVuSans-105" />
    <path
       style="stroke-linecap:butt;stroke-linejoin:round"
       inkscape:connector-curvature="0"
       d="M 52,44.1875 Q 55.375,50.25 60.0625,53.125 64.75,56 71.09375,56 q 8.546875,0 13.1875,-5.984375 4.640625,-5.96875 4.640625,-17 V 0 h -9.03125 v 32.71875 q 0,7.859375 -2.796875,11.65625 -2.78125,3.8125 -8.484375,3.8125 -6.984375,0 -11.046875,-4.640625 -4.046875,-4.625 -4.046875,-12.640625 V 0 h -9.03125 v 32.71875 q 0,7.90625 -2.78125,11.6875 -2.78125,3.78125 -8.59375,3.78125 -6.890625,0 -10.953125,-4.65625 -4.046875,-4.65625 -4.046875,-12.625 V 0 h -9.03125 v 54.6875 h 9.03125 v -8.5 q 3.078125,5.03125 7.375,7.421875 Q 29.78125,56 35.6875,56 41.65625,56 45.828125,52.96875 50,49.953125 52,44.1875 Z"
       id="DejaVuSans-109" />
    <path
       style="stroke-linecap:butt;stroke-linejoin:round"
       inkscape:connector-curvature="0"
       d="m 56.203125,29.59375 v -4.390625 h -41.3125 q 0.59375,-9.28125 5.59375,-14.140625 5,-4.859375 13.9375,-4.859375 5.171875,0 10.03125,1.265625 4.859375,1.265625 9.65625,3.8125 v -8.5 q -4.84375,-2.046875 -9.921875,-3.125 -5.078125,-1.078125 -10.296875,-1.078125 -13.09375,0 -20.734375,7.609375 -7.640625,7.625 -7.640625,20.625 0,13.421875 7.25,21.296875 Q 20.015625,56 32.328125,56 q 11.03125,0 17.453125,-7.109375 6.421875,-7.09375 6.421875,-19.296875 z m -8.984375,2.640625 q -0.09375,7.359375 -4.125,11.75 -4.03125,4.40625 -10.671875,4.40625 -7.515625,0 -12.03125,-4.25 -4.515625,-4.25 -5.203125,-11.96875 z"
       id="DejaVuSans-101" />
    <path
       style="stroke-linecap:butt;stroke-linejoin:round"
       inkscape:connector-curvature="0"
       d="M 31,75.875 Q 24.46875,64.65625 21.28125,53.65625 18.109375,42.671875 18.109375,31.390625 18.109375,20.125 21.3125,9.0625 24.515625,-2 31,-13.1875 H 23.1875 Q 15.875,-1.703125 12.234375,9.375 8.59375,20.453125 8.59375,31.390625 q 0,10.890625 3.609375,21.921875 3.625,11.046875 10.984375,22.5625 z"
       id="DejaVuSans-40" />
    <path
       style="stroke-linecap:butt;stroke-linejoin:round"
       inkscape:connector-curvature="0"
       d="m 44.28125,53.078125 v -8.5 Q 40.484375,46.53125 36.375,47.5 q -4.09375,0.984375 -8.5,0.984375 -6.6875,0 -10.03125,-2.046875 Q 14.5,44.390625 14.5,40.28125 q 0,-3.125 2.390625,-4.90625 2.390625,-1.78125 9.625,-3.390625 l 3.078125,-0.6875 Q 39.15625,29.25 43.1875,25.515625 47.21875,21.78125 47.21875,15.09375 q 0,-7.625 -6.03125,-12.078125 -6.03125,-4.4375 -16.578125,-4.4375 -4.390625,0 -9.15625,0.859375 Q 10.6875,0.296875 5.421875,2 v 9.28125 q 4.984375,-2.59375 9.8125,-3.890625 4.828125,-1.28125 9.578125,-1.28125 6.34375,0 9.75,2.171875 3.421875,2.171875 3.421875,6.125 0,3.65625 -2.46875,5.609375 -2.453125,1.953125 -10.8125,3.765625 l -3.125,0.734375 q -8.34375,1.75 -12.0625,5.390625 -3.703125,3.640625 -3.703125,9.984375 0,7.71875 5.46875,11.90625 Q 16.75,56 26.8125,56 q 4.96875,0 9.359375,-0.734375 4.40625,-0.71875 8.109375,-2.1875 z"
       id="DejaVuSans-115" />
    <path
       style="stroke-linecap:butt;stroke-linejoin:round"
       inkscape:connector-curvature="0"
       d="m 8.015625,75.875 h 7.8125 q 7.3125,-11.515625 10.953125,-22.5625 3.640625,-11.03125 3.640625,-21.921875 0,-10.9375 -3.640625,-22.015625 -3.640625,-11.078125 -10.953125,-22.5625 h -7.8125 Q 14.5,-2 17.703125,9.0625 20.90625,20.125 20.90625,31.390625 q 0,11.28125 -3.203125,22.265625 -3.203125,11 -9.6875,22.21875 z"
       id="DejaVuSans-41" />
    <path
       inkscape:connector-curvature="0"
       d="M 0,0 H -3.5"
       id="m80d070c6bd"
       style="stroke:#000000;stroke-width:0.80000001;stroke-linecap:butt;stroke-linejoin:round" />
    <path
       style="stroke-linecap:butt;stroke-linejoin:round"
       inkscape:connector-curvature="0"
       d="M 40.578125,39.3125 Q 47.65625,37.796875 51.625,33 q 3.984375,-4.78125 3.984375,-11.8125 0,-10.78125 -7.421875,-16.703125 -7.421875,-5.90625 -21.09375,-5.90625 -4.578125,0 -9.4375,0.90625 -4.859375,0.90625 -10.03125,2.71875 v 9.515625 q 4.09375,-2.390625 8.96875,-3.609375 4.890625,-1.21875 10.21875,-1.21875 9.265625,0 14.125,3.65625 4.859375,3.65625 4.859375,10.640625 0,6.453125 -4.515625,10.078125 -4.515625,3.640625 -12.5625,3.640625 h -8.5 v 8.109375 h 8.890625 q 7.265625,0 11.125,2.90625 3.859375,2.90625 3.859375,8.375 0,5.609375 -3.984375,8.609375 -3.96875,3.015625 -11.390625,3.015625 -4.0625,0 -8.703125,-0.890625 Q 15.375,64.15625 9.8125,62.3125 v 8.78125 q 5.625,1.5625 10.53125,2.34375 4.90625,0.78125 9.25,0.78125 11.234375,0 17.765625,-5.109375 6.546875,-5.09375 6.546875,-13.78125 0,-6.0625 -3.46875,-10.234375 -3.46875,-4.171875 -9.859375,-5.78125 z"
       id="DejaVuSans-51" />
    <path
       style="stroke-linecap:butt;stroke-linejoin:round"
       inkscape:connector-curvature="0"
       d="m 34.28125,27.484375 q -10.890625,0 -15.09375,-2.484375 -4.203125,-2.484375 -4.203125,-8.5 0,-4.78125 3.15625,-7.59375 3.15625,-2.796875 8.5625,-2.796875 7.484375,0 12,5.296875 4.515625,5.296875 4.515625,14.078125 v 2 z m 17.921875,3.71875 V 0 H 43.21875 v 8.296875 q -3.078125,-4.96875 -7.671875,-7.34375 -4.59375,-2.375 -11.234375,-2.375 -8.390625,0 -13.359375,4.71875 Q 6,8.015625 6,15.921875 q 0,9.21875 6.171875,13.90625 6.1875,4.6875 18.4375,4.6875 H 43.21875 v 0.890625 q 0,6.203125 -4.078125,9.59375 -4.078125,3.390625 -11.453125,3.390625 -4.6875,0 -9.140625,-1.125 -4.4375,-1.125 -8.53125,-3.375 v 8.3125 q 4.921875,1.90625 9.5625,2.84375 Q 24.21875,56 28.609375,56 q 11.875,0 17.734375,-6.15625 5.859375,-6.140625 5.859375,-18.640625 z"
       id="DejaVuSans-97" />
    <path
       style="stroke-linecap:butt;stroke-linejoin:round"
       inkscape:connector-curvature="0"
       d="M 54.890625,33.015625 V 0 H 45.90625 v 32.71875 q 0,7.765625 -3.03125,11.609375 -3.03125,3.859375 -9.078125,3.859375 -7.28125,0 -11.484375,-4.640625 -4.203125,-4.625 -4.203125,-12.640625 V 0 h -9.03125 v 54.6875 h 9.03125 v -8.5 q 3.234375,4.9375 7.59375,7.375 4.375,2.4375 10.09375,2.4375 9.421875,0 14.25,-5.828125 4.84375,-5.828125 4.84375,-17.15625 z"
       id="DejaVuSans-110" />
    <path
       style="stroke-linecap:butt;stroke-linejoin:round"
       inkscape:connector-curvature="0"
       d="m 45.40625,27.984375 q 0,9.765625 -4.03125,15.125 -4.015625,5.375 -11.296875,5.375 -7.21875,0 -11.25,-5.375 -4.03125,-5.359375 -4.03125,-15.125 0,-9.71875 4.03125,-15.09375 4.03125,-5.375 11.25,-5.375 7.28125,0 11.296875,5.375 4.03125,5.375 4.03125,15.09375 z M 54.390625,6.78125 q 0,-13.953125 -6.203125,-20.765625 -6.1875,-6.8125 -18.984375,-6.8125 -4.734375,0 -8.9375,0.703125 -4.203125,0.703125 -8.15625,2.171875 V -9.1875 q 3.953125,-2.140625 7.8125,-3.15625 3.859375,-1.03125 7.859375,-1.03125 8.84375,0 13.234375,4.609375 4.390625,4.609375 4.390625,13.9375 V 9.625 Q 42.625,4.78125 38.28125,2.390625 33.9375,0 27.875,0 17.828125,0 11.671875,7.65625 q -6.15625,7.671875 -6.15625,20.328125 0,12.6875 6.15625,20.34375 Q 17.828125,56 27.875,56 q 6.0625,0 10.40625,-2.390625 4.34375,-2.390625 7.125,-7.21875 V 54.6875 h 8.984375 z"
       id="DejaVuSans-103" />
    <path
       style="stroke-linecap:butt;stroke-linejoin:round"
       inkscape:connector-curvature="0"
       d="M 9.421875,75.984375 H 18.40625 V 0 H 9.421875 Z"
       id="DejaVuSans-108" />
    <path
       style="stroke-linecap:butt;stroke-linejoin:round"
       inkscape:connector-curvature="0"
       d="m 25,67.921875 q -3.90625,0 -6.59375,-2.71875 -2.6875,-2.703125 -2.6875,-6.609375 0,-3.859375 2.6875,-6.515625 2.6875,-2.65625 6.59375,-2.65625 3.90625,0 6.59375,2.65625 2.6875,2.65625 2.6875,6.515625 0,3.859375 -2.71875,6.59375 Q 28.859375,67.921875 25,67.921875 Z m 0,6.296875 q 3.125,0 6,-1.203125 2.890625,-1.1875 4.984375,-3.4375 2.25,-2.1875 3.375,-4.984375 1.125,-2.78125 1.125,-6 0,-6.4375 -4.515625,-10.90625 -4.515625,-4.46875 -11.0625,-4.46875 -6.59375,0 -11,4.390625 Q 9.515625,52 9.515625,58.59375 q 0,6.546875 4.484375,11.078125 4.5,4.546875 11,4.546875 z"
       id="DejaVuSans-176" />
    <path
       style="stroke-linecap:butt;stroke-linejoin:round"
       inkscape:connector-curvature="0"
       d="M 10.6875,12.40625 H 21 V 0 H 10.6875 Z"
       id="DejaVuSans-46" />
    <clipPath
       style="stroke-linecap:butt;stroke-linejoin:round"
       id="p8e948c6700">
      <rect
         style="stroke-linecap:butt;stroke-linejoin:round"
         height="277.20001"
         width="405.81818"
         x="144"
         y="43.200001"
         id="rect3766" />
    </clipPath>
    <inkscape:path-effect
       only_selected="false"
       apply_with_weight="true"
       apply_no_weight="true"
       helper_size="0"
       steps="2"
       weight="33.333333"
       is_visible="true"
       id="path-effect4159-9"
       effect="bspline" />
    <inkscape:path-effect
       only_selected="false"
       apply_with_weight="true"
       apply_no_weight="true"
       helper_size="0"
       steps="2"
       weight="33.333333"
       is_visible="true"
       id="path-effect4155-3"
       effect="bspline" />
    <inkscape:path-effect
       only_selected="false"
       apply_with_weight="true"
       apply_no_weight="true"
       helper_size="0"
       steps="2"
       weight="33.333333"
       is_visible="true"
       id="path-effect4151-6"
       effect="bspline" />
    <inkscape:path-effect
       only_selected="false"
       apply_with_weight="true"
       apply_no_weight="true"
       helper_size="0"
       steps="2"
       weight="33.333333"
       is_visible="true"
       id="path-effect4147-0"
       effect="bspline" />
    <inkscape:path-effect
       only_selected="false"
       apply_with_weight="true"
       apply_no_weight="true"
       helper_size="0"
       steps="2"
       weight="33.333333"
       is_visible="true"
       id="path-effect4143-6"
       effect="bspline" />
    <inkscape:path-effect
       only_selected="false"
       apply_with_weight="true"
       apply_no_weight="true"
       helper_size="0"
       steps="2"
       weight="33.333333"
       is_visible="true"
       id="path-effect4139-2"
       effect="bspline" />
    <style
       type="text/css"
       id="style3286-6">*{stroke-linecap:butt;stroke-linejoin:round;}</style>
    <path
       inkscape:connector-curvature="0"
       d="M 0,0 V 3.5"
       id="me6029f38e9-1"
       style="stroke:#000000;stroke-width:0.80000001;stroke-linecap:butt;stroke-linejoin:round" />
    <path
       style="stroke-linecap:butt;stroke-linejoin:round"
       inkscape:connector-curvature="0"
       d="m 12.40625,8.296875 h 16.109375 v 55.625 L 10.984375,60.40625 v 8.984375 l 17.4375,3.515625 H 38.28125 V 8.296875 H 54.390625 V 0 H 12.40625 Z"
       id="DejaVuSans-49-8" />
    <path
       style="stroke-linecap:butt;stroke-linejoin:round"
       inkscape:connector-curvature="0"
       d="m 31.78125,66.40625 q -7.609375,0 -11.453125,-7.5 Q 16.5,51.421875 16.5,36.375 q 0,-14.984375 3.828125,-22.484375 3.84375,-7.5 11.453125,-7.5 7.671875,0 11.5,7.5 3.84375,7.5 3.84375,22.484375 0,15.046875 -3.84375,22.53125 -3.828125,7.5 -11.5,7.5 z m 0,7.8125 q 12.265625,0 18.734375,-9.703125 6.46875,-9.6875 6.46875,-28.140625 0,-18.40625 -6.46875,-28.109375 -6.46875,-9.6875 -18.734375,-9.6875 -12.25,0 -18.71875,9.6875 Q 6.59375,17.96875 6.59375,36.375 q 0,18.453125 6.46875,28.140625 6.46875,9.703125 18.71875,9.703125 z"
       id="DejaVuSans-48-7" />
    <path
       style="stroke-linecap:butt;stroke-linejoin:round"
       inkscape:connector-curvature="0"
       d="M 19.1875,8.296875 H 53.609375 V 0 H 7.328125 v 8.296875 q 5.609375,5.8125 15.296875,15.59375 9.703125,9.796875 12.1875,12.640625 4.734375,5.3125 6.609375,9 1.890625,3.6875 1.890625,7.25 0,5.8125 -4.078125,9.46875 -4.078125,3.671875 -10.625,3.671875 -4.640625,0 -9.796875,-1.609375 -5.140625,-1.609375 -11,-4.890625 v 9.96875 Q 13.765625,71.78125 18.9375,73 q 5.1875,1.21875 9.484375,1.21875 11.328125,0 18.0625,-5.671875 6.734375,-5.65625 6.734375,-15.125 0,-4.5 -1.6875,-8.53125 Q 49.859375,40.875 45.40625,35.40625 44.1875,33.984375 37.640625,27.21875 31.109375,20.453125 19.1875,8.296875 Z"
       id="DejaVuSans-50-9" />
    <path
       style="stroke-linecap:butt;stroke-linejoin:round"
       inkscape:connector-curvature="0"
       d="M 37.796875,64.3125 12.890625,25.390625 h 24.90625 z m -2.59375,8.59375 h 12.40625 V 25.390625 h 10.40625 V 17.1875 H 47.609375 V 0 h -9.8125 V 17.1875 H 4.890625 v 9.515625 z"
       id="DejaVuSans-52-2" />
    <path
       style="stroke-linecap:butt;stroke-linejoin:round"
       inkscape:connector-curvature="0"
       d="m 33.015625,40.375 q -6.640625,0 -10.53125,-4.546875 -3.875,-4.53125 -3.875,-12.4375 0,-7.859375 3.875,-12.4375 3.890625,-4.5625 10.53125,-4.5625 6.640625,0 10.515625,4.5625 3.875,4.578125 3.875,12.4375 0,7.90625 -3.875,12.4375 Q 39.65625,40.375 33.015625,40.375 Z M 52.59375,71.296875 V 62.3125 q -3.71875,1.75 -7.5,2.671875 -3.78125,0.9375 -7.5,0.9375 -9.765625,0 -14.921875,-6.59375 -5.140625,-6.59375 -5.875,-19.921875 2.875,4.25 7.21875,6.515625 4.359375,2.265625 9.578125,2.265625 10.984375,0 17.359375,-6.671875 6.375,-6.65625 6.375,-18.125 0,-11.234375 -6.640625,-18.03125 -6.640625,-6.78125 -17.671875,-6.78125 -12.65625,0 -19.34375,9.6875 -6.6875,9.703125 -6.6875,28.109375 0,17.28125 8.203125,27.5625 8.203125,10.28125 22.015625,10.28125 3.71875,0 7.5,-0.734375 3.78125,-0.734375 7.890625,-2.1875 z"
       id="DejaVuSans-54-0" />
    <path
       style="stroke-linecap:butt;stroke-linejoin:round"
       inkscape:connector-curvature="0"
       d="m 31.78125,34.625 q -7.03125,0 -11.0625,-3.765625 -4.015625,-3.765625 -4.015625,-10.34375 0,-6.59375 4.015625,-10.359375 4.03125,-3.765625 11.0625,-3.765625 7.03125,0 11.078125,3.78125 4.0625,3.796875 4.0625,10.34375 0,6.578125 -4.03125,10.34375 Q 38.875,34.625 31.78125,34.625 Z m -9.859375,4.1875 Q 15.578125,40.375 12.03125,44.71875 8.5,49.078125 8.5,55.328125 q 0,8.734375 6.21875,13.8125 6.234375,5.078125 17.0625,5.078125 10.890625,0 17.09375,-5.078125 6.203125,-5.078125 6.203125,-13.8125 0,-6.25 -3.546875,-10.609375 Q 48,40.375 41.703125,38.8125 q 7.125,-1.65625 11.09375,-6.5 3.984375,-4.828125 3.984375,-11.796875 0,-10.609375 -6.46875,-16.28125 -6.46875,-5.65625 -18.53125,-5.65625 -12.046875,0 -18.53125,5.65625 -6.46875,5.671875 -6.46875,16.28125 0,6.96875 4,11.796875 4.015625,4.84375 11.140625,6.5 z M 18.3125,54.390625 q 0,-5.65625 3.53125,-8.828125 3.546875,-3.171875 9.9375,-3.171875 6.359375,0 9.9375,3.171875 3.59375,3.171875 3.59375,8.828125 0,5.671875 -3.59375,8.84375 -3.578125,3.171875 -9.9375,3.171875 -6.390625,0 -9.9375,-3.171875 Q 18.3125,60.0625 18.3125,54.390625 Z"
       id="DejaVuSans-56-2" />
    <path
       style="stroke-linecap:butt;stroke-linejoin:round"
       inkscape:connector-curvature="0"
       d="M 18.3125,70.21875 V 54.6875 h 18.5 v -6.984375 h -18.5 v -29.6875 q 0,-6.6875 1.828125,-8.59375 1.828125,-1.90625 7.453125,-1.90625 H 36.8125 V 0 H 27.59375 Q 17.1875,0 13.234375,3.875 9.28125,7.765625 9.28125,18.015625 v 29.6875 H 2.6875 V 54.6875 h 6.59375 v 15.53125 z"
       id="DejaVuSans-116-3" />
    <path
       style="stroke-linecap:butt;stroke-linejoin:round"
       inkscape:connector-curvature="0"
       d="M 9.421875,54.6875 H 18.40625 V 0 H 9.421875 Z m 0,21.296875 H 18.40625 V 64.59375 H 9.421875 Z"
       id="DejaVuSans-105-7" />
    <path
       style="stroke-linecap:butt;stroke-linejoin:round"
       inkscape:connector-curvature="0"
       d="M 52,44.1875 Q 55.375,50.25 60.0625,53.125 64.75,56 71.09375,56 q 8.546875,0 13.1875,-5.984375 4.640625,-5.96875 4.640625,-17 V 0 h -9.03125 v 32.71875 q 0,7.859375 -2.796875,11.65625 -2.78125,3.8125 -8.484375,3.8125 -6.984375,0 -11.046875,-4.640625 -4.046875,-4.625 -4.046875,-12.640625 V 0 h -9.03125 v 32.71875 q 0,7.90625 -2.78125,11.6875 -2.78125,3.78125 -8.59375,3.78125 -6.890625,0 -10.953125,-4.65625 -4.046875,-4.65625 -4.046875,-12.625 V 0 h -9.03125 v 54.6875 h 9.03125 v -8.5 q 3.078125,5.03125 7.375,7.421875 Q 29.78125,56 35.6875,56 41.65625,56 45.828125,52.96875 50,49.953125 52,44.1875 Z"
       id="DejaVuSans-109-5" />
    <path
       style="stroke-linecap:butt;stroke-linejoin:round"
       inkscape:connector-curvature="0"
       d="m 56.203125,29.59375 v -4.390625 h -41.3125 q 0.59375,-9.28125 5.59375,-14.140625 5,-4.859375 13.9375,-4.859375 5.171875,0 10.03125,1.265625 4.859375,1.265625 9.65625,3.8125 v -8.5 q -4.84375,-2.046875 -9.921875,-3.125 -5.078125,-1.078125 -10.296875,-1.078125 -13.09375,0 -20.734375,7.609375 -7.640625,7.625 -7.640625,20.625 0,13.421875 7.25,21.296875 Q 20.015625,56 32.328125,56 q 11.03125,0 17.453125,-7.109375 6.421875,-7.09375 6.421875,-19.296875 z m -8.984375,2.640625 q -0.09375,7.359375 -4.125,11.75 -4.03125,4.40625 -10.671875,4.40625 -7.515625,0 -12.03125,-4.25 -4.515625,-4.25 -5.203125,-11.96875 z"
       id="DejaVuSans-101-9" />
    <path
       style="stroke-linecap:butt;stroke-linejoin:round"
       inkscape:connector-curvature="0"
       d="M 31,75.875 Q 24.46875,64.65625 21.28125,53.65625 18.109375,42.671875 18.109375,31.390625 18.109375,20.125 21.3125,9.0625 24.515625,-2 31,-13.1875 H 23.1875 Q 15.875,-1.703125 12.234375,9.375 8.59375,20.453125 8.59375,31.390625 q 0,10.890625 3.609375,21.921875 3.625,11.046875 10.984375,22.5625 z"
       id="DejaVuSans-40-2" />
    <path
       style="stroke-linecap:butt;stroke-linejoin:round"
       inkscape:connector-curvature="0"
       d="m 44.28125,53.078125 v -8.5 Q 40.484375,46.53125 36.375,47.5 q -4.09375,0.984375 -8.5,0.984375 -6.6875,0 -10.03125,-2.046875 Q 14.5,44.390625 14.5,40.28125 q 0,-3.125 2.390625,-4.90625 2.390625,-1.78125 9.625,-3.390625 l 3.078125,-0.6875 Q 39.15625,29.25 43.1875,25.515625 47.21875,21.78125 47.21875,15.09375 q 0,-7.625 -6.03125,-12.078125 -6.03125,-4.4375 -16.578125,-4.4375 -4.390625,0 -9.15625,0.859375 Q 10.6875,0.296875 5.421875,2 v 9.28125 q 4.984375,-2.59375 9.8125,-3.890625 4.828125,-1.28125 9.578125,-1.28125 6.34375,0 9.75,2.171875 3.421875,2.171875 3.421875,6.125 0,3.65625 -2.46875,5.609375 -2.453125,1.953125 -10.8125,3.765625 l -3.125,0.734375 q -8.34375,1.75 -12.0625,5.390625 -3.703125,3.640625 -3.703125,9.984375 0,7.71875 5.46875,11.90625 Q 16.75,56 26.8125,56 q 4.96875,0 9.359375,-0.734375 4.40625,-0.71875 8.109375,-2.1875 z"
       id="DejaVuSans-115-2" />
    <path
       style="stroke-linecap:butt;stroke-linejoin:round"
       inkscape:connector-curvature="0"
       d="m 8.015625,75.875 h 7.8125 q 7.3125,-11.515625 10.953125,-22.5625 3.640625,-11.03125 3.640625,-21.921875 0,-10.9375 -3.640625,-22.015625 -3.640625,-11.078125 -10.953125,-22.5625 h -7.8125 Q 14.5,-2 17.703125,9.0625 20.90625,20.125 20.90625,31.390625 q 0,11.28125 -3.203125,22.265625 -3.203125,11 -9.6875,22.21875 z"
       id="DejaVuSans-41-8" />
    <path
       inkscape:connector-curvature="0"
       d="M 0,0 H -3.5"
       id="m80d070c6bd-9"
       style="stroke:#000000;stroke-width:0.80000001;stroke-linecap:butt;stroke-linejoin:round" />
    <path
       style="stroke-linecap:butt;stroke-linejoin:round"
       inkscape:connector-curvature="0"
       d="M 40.578125,39.3125 Q 47.65625,37.796875 51.625,33 q 3.984375,-4.78125 3.984375,-11.8125 0,-10.78125 -7.421875,-16.703125 -7.421875,-5.90625 -21.09375,-5.90625 -4.578125,0 -9.4375,0.90625 -4.859375,0.90625 -10.03125,2.71875 v 9.515625 q 4.09375,-2.390625 8.96875,-3.609375 4.890625,-1.21875 10.21875,-1.21875 9.265625,0 14.125,3.65625 4.859375,3.65625 4.859375,10.640625 0,6.453125 -4.515625,10.078125 -4.515625,3.640625 -12.5625,3.640625 h -8.5 v 8.109375 h 8.890625 q 7.265625,0 11.125,2.90625 3.859375,2.90625 3.859375,8.375 0,5.609375 -3.984375,8.609375 -3.96875,3.015625 -11.390625,3.015625 -4.0625,0 -8.703125,-0.890625 Q 15.375,64.15625 9.8125,62.3125 v 8.78125 q 5.625,1.5625 10.53125,2.34375 4.90625,0.78125 9.25,0.78125 11.234375,0 17.765625,-5.109375 6.546875,-5.09375 6.546875,-13.78125 0,-6.0625 -3.46875,-10.234375 -3.46875,-4.171875 -9.859375,-5.78125 z"
       id="DejaVuSans-51-7" />
    <path
       style="stroke-linecap:butt;stroke-linejoin:round"
       inkscape:connector-curvature="0"
       d="m 34.28125,27.484375 q -10.890625,0 -15.09375,-2.484375 -4.203125,-2.484375 -4.203125,-8.5 0,-4.78125 3.15625,-7.59375 3.15625,-2.796875 8.5625,-2.796875 7.484375,0 12,5.296875 4.515625,5.296875 4.515625,14.078125 v 2 z m 17.921875,3.71875 V 0 H 43.21875 v 8.296875 q -3.078125,-4.96875 -7.671875,-7.34375 -4.59375,-2.375 -11.234375,-2.375 -8.390625,0 -13.359375,4.71875 Q 6,8.015625 6,15.921875 q 0,9.21875 6.171875,13.90625 6.1875,4.6875 18.4375,4.6875 H 43.21875 v 0.890625 q 0,6.203125 -4.078125,9.59375 -4.078125,3.390625 -11.453125,3.390625 -4.6875,0 -9.140625,-1.125 -4.4375,-1.125 -8.53125,-3.375 v 8.3125 q 4.921875,1.90625 9.5625,2.84375 Q 24.21875,56 28.609375,56 q 11.875,0 17.734375,-6.15625 5.859375,-6.140625 5.859375,-18.640625 z"
       id="DejaVuSans-97-3" />
    <path
       style="stroke-linecap:butt;stroke-linejoin:round"
       inkscape:connector-curvature="0"
       d="M 54.890625,33.015625 V 0 H 45.90625 v 32.71875 q 0,7.765625 -3.03125,11.609375 -3.03125,3.859375 -9.078125,3.859375 -7.28125,0 -11.484375,-4.640625 -4.203125,-4.625 -4.203125,-12.640625 V 0 h -9.03125 v 54.6875 h 9.03125 v -8.5 q 3.234375,4.9375 7.59375,7.375 4.375,2.4375 10.09375,2.4375 9.421875,0 14.25,-5.828125 4.84375,-5.828125 4.84375,-17.15625 z"
       id="DejaVuSans-110-6" />
    <path
       style="stroke-linecap:butt;stroke-linejoin:round"
       inkscape:connector-curvature="0"
       d="m 45.40625,27.984375 q 0,9.765625 -4.03125,15.125 -4.015625,5.375 -11.296875,5.375 -7.21875,0 -11.25,-5.375 -4.03125,-5.359375 -4.03125,-15.125 0,-9.71875 4.03125,-15.09375 4.03125,-5.375 11.25,-5.375 7.28125,0 11.296875,5.375 4.03125,5.375 4.03125,15.09375 z M 54.390625,6.78125 q 0,-13.953125 -6.203125,-20.765625 -6.1875,-6.8125 -18.984375,-6.8125 -4.734375,0 -8.9375,0.703125 -4.203125,0.703125 -8.15625,2.171875 V -9.1875 q 3.953125,-2.140625 7.8125,-3.15625 3.859375,-1.03125 7.859375,-1.03125 8.84375,0 13.234375,4.609375 4.390625,4.609375 4.390625,13.9375 V 9.625 Q 42.625,4.78125 38.28125,2.390625 33.9375,0 27.875,0 17.828125,0 11.671875,7.65625 q -6.15625,7.671875 -6.15625,20.328125 0,12.6875 6.15625,20.34375 Q 17.828125,56 27.875,56 q 6.0625,0 10.40625,-2.390625 4.34375,-2.390625 7.125,-7.21875 V 54.6875 h 8.984375 z"
       id="DejaVuSans-103-1" />
    <path
       style="stroke-linecap:butt;stroke-linejoin:round"
       inkscape:connector-curvature="0"
       d="M 9.421875,75.984375 H 18.40625 V 0 H 9.421875 Z"
       id="DejaVuSans-108-2" />
    <path
       style="stroke-linecap:butt;stroke-linejoin:round"
       inkscape:connector-curvature="0"
       d="m 25,67.921875 q -3.90625,0 -6.59375,-2.71875 -2.6875,-2.703125 -2.6875,-6.609375 0,-3.859375 2.6875,-6.515625 2.6875,-2.65625 6.59375,-2.65625 3.90625,0 6.59375,2.65625 2.6875,2.65625 2.6875,6.515625 0,3.859375 -2.71875,6.59375 Q 28.859375,67.921875 25,67.921875 Z m 0,6.296875 q 3.125,0 6,-1.203125 2.890625,-1.1875 4.984375,-3.4375 2.25,-2.1875 3.375,-4.984375 1.125,-2.78125 1.125,-6 0,-6.4375 -4.515625,-10.90625 -4.515625,-4.46875 -11.0625,-4.46875 -6.59375,0 -11,4.390625 Q 9.515625,52 9.515625,58.59375 q 0,6.546875 4.484375,11.078125 4.5,4.546875 11,4.546875 z"
       id="DejaVuSans-176-9" />
    <path
       style="stroke-linecap:butt;stroke-linejoin:round"
       inkscape:connector-curvature="0"
       d="M 10.6875,12.40625 H 21 V 0 H 10.6875 Z"
       id="DejaVuSans-46-3" />
    <clipPath
       style="stroke-linecap:butt;stroke-linejoin:round"
       id="p8e948c6700-1">
      <rect
         style="stroke-linecap:butt;stroke-linejoin:round"
         height="277.20001"
         width="405.81818"
         x="144"
         y="43.200001"
         id="rect3766-9" />
    </clipPath>
    <inkscape:path-effect
       only_selected="false"
       apply_with_weight="true"
       apply_no_weight="true"
       helper_size="0"
       steps="2"
       weight="33.333333"
       is_visible="true"
       id="path-effect4159-7"
       effect="bspline" />
    <inkscape:path-effect
       only_selected="false"
       apply_with_weight="true"
       apply_no_weight="true"
       helper_size="0"
       steps="2"
       weight="33.333333"
       is_visible="true"
       id="path-effect4155-4"
       effect="bspline" />
    <inkscape:path-effect
       only_selected="false"
       apply_with_weight="true"
       apply_no_weight="true"
       helper_size="0"
       steps="2"
       weight="33.333333"
       is_visible="true"
       id="path-effect4151-5"
       effect="bspline" />
    <inkscape:path-effect
       only_selected="false"
       apply_with_weight="true"
       apply_no_weight="true"
       helper_size="0"
       steps="2"
       weight="33.333333"
       is_visible="true"
       id="path-effect4147-2"
       effect="bspline" />
    <inkscape:path-effect
       only_selected="false"
       apply_with_weight="true"
       apply_no_weight="true"
       helper_size="0"
       steps="2"
       weight="33.333333"
       is_visible="true"
       id="path-effect4143-5"
       effect="bspline" />
    <inkscape:path-effect
       only_selected="false"
       apply_with_weight="true"
       apply_no_weight="true"
       helper_size="0"
       steps="2"
       weight="33.333333"
       is_visible="true"
       id="path-effect4139-4"
       effect="bspline" />
    <style
       type="text/css"
       id="style3286-7">*{stroke-linecap:butt;stroke-linejoin:round;}</style>
    <path
       inkscape:connector-curvature="0"
       d="M 0,0 V 3.5"
       id="me6029f38e9-4"
       style="stroke:#000000;stroke-width:0.80000001;stroke-linecap:butt;stroke-linejoin:round" />
    <path
       style="stroke-linecap:butt;stroke-linejoin:round"
       inkscape:connector-curvature="0"
       d="m 12.40625,8.296875 h 16.109375 v 55.625 L 10.984375,60.40625 v 8.984375 l 17.4375,3.515625 H 38.28125 V 8.296875 H 54.390625 V 0 H 12.40625 Z"
       id="DejaVuSans-49-4" />
    <path
       style="stroke-linecap:butt;stroke-linejoin:round"
       inkscape:connector-curvature="0"
       d="m 31.78125,66.40625 q -7.609375,0 -11.453125,-7.5 Q 16.5,51.421875 16.5,36.375 q 0,-14.984375 3.828125,-22.484375 3.84375,-7.5 11.453125,-7.5 7.671875,0 11.5,7.5 3.84375,7.5 3.84375,22.484375 0,15.046875 -3.84375,22.53125 -3.828125,7.5 -11.5,7.5 z m 0,7.8125 q 12.265625,0 18.734375,-9.703125 6.46875,-9.6875 6.46875,-28.140625 0,-18.40625 -6.46875,-28.109375 -6.46875,-9.6875 -18.734375,-9.6875 -12.25,0 -18.71875,9.6875 Q 6.59375,17.96875 6.59375,36.375 q 0,18.453125 6.46875,28.140625 6.46875,9.703125 18.71875,9.703125 z"
       id="DejaVuSans-48-3" />
    <path
       style="stroke-linecap:butt;stroke-linejoin:round"
       inkscape:connector-curvature="0"
       d="M 19.1875,8.296875 H 53.609375 V 0 H 7.328125 v 8.296875 q 5.609375,5.8125 15.296875,15.59375 9.703125,9.796875 12.1875,12.640625 4.734375,5.3125 6.609375,9 1.890625,3.6875 1.890625,7.25 0,5.8125 -4.078125,9.46875 -4.078125,3.671875 -10.625,3.671875 -4.640625,0 -9.796875,-1.609375 -5.140625,-1.609375 -11,-4.890625 v 9.96875 Q 13.765625,71.78125 18.9375,73 q 5.1875,1.21875 9.484375,1.21875 11.328125,0 18.0625,-5.671875 6.734375,-5.65625 6.734375,-15.125 0,-4.5 -1.6875,-8.53125 Q 49.859375,40.875 45.40625,35.40625 44.1875,33.984375 37.640625,27.21875 31.109375,20.453125 19.1875,8.296875 Z"
       id="DejaVuSans-50-0" />
    <path
       style="stroke-linecap:butt;stroke-linejoin:round"
       inkscape:connector-curvature="0"
       d="M 37.796875,64.3125 12.890625,25.390625 h 24.90625 z m -2.59375,8.59375 h 12.40625 V 25.390625 h 10.40625 V 17.1875 H 47.609375 V 0 h -9.8125 V 17.1875 H 4.890625 v 9.515625 z"
       id="DejaVuSans-52-7" />
    <path
       style="stroke-linecap:butt;stroke-linejoin:round"
       inkscape:connector-curvature="0"
       d="m 33.015625,40.375 q -6.640625,0 -10.53125,-4.546875 -3.875,-4.53125 -3.875,-12.4375 0,-7.859375 3.875,-12.4375 3.890625,-4.5625 10.53125,-4.5625 6.640625,0 10.515625,4.5625 3.875,4.578125 3.875,12.4375 0,7.90625 -3.875,12.4375 Q 39.65625,40.375 33.015625,40.375 Z M 52.59375,71.296875 V 62.3125 q -3.71875,1.75 -7.5,2.671875 -3.78125,0.9375 -7.5,0.9375 -9.765625,0 -14.921875,-6.59375 -5.140625,-6.59375 -5.875,-19.921875 2.875,4.25 7.21875,6.515625 4.359375,2.265625 9.578125,2.265625 10.984375,0 17.359375,-6.671875 6.375,-6.65625 6.375,-18.125 0,-11.234375 -6.640625,-18.03125 -6.640625,-6.78125 -17.671875,-6.78125 -12.65625,0 -19.34375,9.6875 -6.6875,9.703125 -6.6875,28.109375 0,17.28125 8.203125,27.5625 8.203125,10.28125 22.015625,10.28125 3.71875,0 7.5,-0.734375 3.78125,-0.734375 7.890625,-2.1875 z"
       id="DejaVuSans-54-8" />
    <path
       style="stroke-linecap:butt;stroke-linejoin:round"
       inkscape:connector-curvature="0"
       d="m 31.78125,34.625 q -7.03125,0 -11.0625,-3.765625 -4.015625,-3.765625 -4.015625,-10.34375 0,-6.59375 4.015625,-10.359375 4.03125,-3.765625 11.0625,-3.765625 7.03125,0 11.078125,3.78125 4.0625,3.796875 4.0625,10.34375 0,6.578125 -4.03125,10.34375 Q 38.875,34.625 31.78125,34.625 Z m -9.859375,4.1875 Q 15.578125,40.375 12.03125,44.71875 8.5,49.078125 8.5,55.328125 q 0,8.734375 6.21875,13.8125 6.234375,5.078125 17.0625,5.078125 10.890625,0 17.09375,-5.078125 6.203125,-5.078125 6.203125,-13.8125 0,-6.25 -3.546875,-10.609375 Q 48,40.375 41.703125,38.8125 q 7.125,-1.65625 11.09375,-6.5 3.984375,-4.828125 3.984375,-11.796875 0,-10.609375 -6.46875,-16.28125 -6.46875,-5.65625 -18.53125,-5.65625 -12.046875,0 -18.53125,5.65625 -6.46875,5.671875 -6.46875,16.28125 0,6.96875 4,11.796875 4.015625,4.84375 11.140625,6.5 z M 18.3125,54.390625 q 0,-5.65625 3.53125,-8.828125 3.546875,-3.171875 9.9375,-3.171875 6.359375,0 9.9375,3.171875 3.59375,3.171875 3.59375,8.828125 0,5.671875 -3.59375,8.84375 -3.578125,3.171875 -9.9375,3.171875 -6.390625,0 -9.9375,-3.171875 Q 18.3125,60.0625 18.3125,54.390625 Z"
       id="DejaVuSans-56-6" />
    <path
       style="stroke-linecap:butt;stroke-linejoin:round"
       inkscape:connector-curvature="0"
       d="M 18.3125,70.21875 V 54.6875 h 18.5 v -6.984375 h -18.5 v -29.6875 q 0,-6.6875 1.828125,-8.59375 1.828125,-1.90625 7.453125,-1.90625 H 36.8125 V 0 H 27.59375 Q 17.1875,0 13.234375,3.875 9.28125,7.765625 9.28125,18.015625 v 29.6875 H 2.6875 V 54.6875 h 6.59375 v 15.53125 z"
       id="DejaVuSans-116-8" />
    <path
       style="stroke-linecap:butt;stroke-linejoin:round"
       inkscape:connector-curvature="0"
       d="M 9.421875,54.6875 H 18.40625 V 0 H 9.421875 Z m 0,21.296875 H 18.40625 V 64.59375 H 9.421875 Z"
       id="DejaVuSans-105-8" />
    <path
       style="stroke-linecap:butt;stroke-linejoin:round"
       inkscape:connector-curvature="0"
       d="M 52,44.1875 Q 55.375,50.25 60.0625,53.125 64.75,56 71.09375,56 q 8.546875,0 13.1875,-5.984375 4.640625,-5.96875 4.640625,-17 V 0 h -9.03125 v 32.71875 q 0,7.859375 -2.796875,11.65625 -2.78125,3.8125 -8.484375,3.8125 -6.984375,0 -11.046875,-4.640625 -4.046875,-4.625 -4.046875,-12.640625 V 0 h -9.03125 v 32.71875 q 0,7.90625 -2.78125,11.6875 -2.78125,3.78125 -8.59375,3.78125 -6.890625,0 -10.953125,-4.65625 -4.046875,-4.65625 -4.046875,-12.625 V 0 h -9.03125 v 54.6875 h 9.03125 v -8.5 q 3.078125,5.03125 7.375,7.421875 Q 29.78125,56 35.6875,56 41.65625,56 45.828125,52.96875 50,49.953125 52,44.1875 Z"
       id="DejaVuSans-109-4" />
    <path
       style="stroke-linecap:butt;stroke-linejoin:round"
       inkscape:connector-curvature="0"
       d="m 56.203125,29.59375 v -4.390625 h -41.3125 q 0.59375,-9.28125 5.59375,-14.140625 5,-4.859375 13.9375,-4.859375 5.171875,0 10.03125,1.265625 4.859375,1.265625 9.65625,3.8125 v -8.5 q -4.84375,-2.046875 -9.921875,-3.125 -5.078125,-1.078125 -10.296875,-1.078125 -13.09375,0 -20.734375,7.609375 -7.640625,7.625 -7.640625,20.625 0,13.421875 7.25,21.296875 Q 20.015625,56 32.328125,56 q 11.03125,0 17.453125,-7.109375 6.421875,-7.09375 6.421875,-19.296875 z m -8.984375,2.640625 q -0.09375,7.359375 -4.125,11.75 -4.03125,4.40625 -10.671875,4.40625 -7.515625,0 -12.03125,-4.25 -4.515625,-4.25 -5.203125,-11.96875 z"
       id="DejaVuSans-101-3" />
    <path
       style="stroke-linecap:butt;stroke-linejoin:round"
       inkscape:connector-curvature="0"
       d="M 31,75.875 Q 24.46875,64.65625 21.28125,53.65625 18.109375,42.671875 18.109375,31.390625 18.109375,20.125 21.3125,9.0625 24.515625,-2 31,-13.1875 H 23.1875 Q 15.875,-1.703125 12.234375,9.375 8.59375,20.453125 8.59375,31.390625 q 0,10.890625 3.609375,21.921875 3.625,11.046875 10.984375,22.5625 z"
       id="DejaVuSans-40-1" />
    <path
       style="stroke-linecap:butt;stroke-linejoin:round"
       inkscape:connector-curvature="0"
       d="m 44.28125,53.078125 v -8.5 Q 40.484375,46.53125 36.375,47.5 q -4.09375,0.984375 -8.5,0.984375 -6.6875,0 -10.03125,-2.046875 Q 14.5,44.390625 14.5,40.28125 q 0,-3.125 2.390625,-4.90625 2.390625,-1.78125 9.625,-3.390625 l 3.078125,-0.6875 Q 39.15625,29.25 43.1875,25.515625 47.21875,21.78125 47.21875,15.09375 q 0,-7.625 -6.03125,-12.078125 -6.03125,-4.4375 -16.578125,-4.4375 -4.390625,0 -9.15625,0.859375 Q 10.6875,0.296875 5.421875,2 v 9.28125 q 4.984375,-2.59375 9.8125,-3.890625 4.828125,-1.28125 9.578125,-1.28125 6.34375,0 9.75,2.171875 3.421875,2.171875 3.421875,6.125 0,3.65625 -2.46875,5.609375 -2.453125,1.953125 -10.8125,3.765625 l -3.125,0.734375 q -8.34375,1.75 -12.0625,5.390625 -3.703125,3.640625 -3.703125,9.984375 0,7.71875 5.46875,11.90625 Q 16.75,56 26.8125,56 q 4.96875,0 9.359375,-0.734375 4.40625,-0.71875 8.109375,-2.1875 z"
       id="DejaVuSans-115-4" />
    <path
       style="stroke-linecap:butt;stroke-linejoin:round"
       inkscape:connector-curvature="0"
       d="m 8.015625,75.875 h 7.8125 q 7.3125,-11.515625 10.953125,-22.5625 3.640625,-11.03125 3.640625,-21.921875 0,-10.9375 -3.640625,-22.015625 -3.640625,-11.078125 -10.953125,-22.5625 h -7.8125 Q 14.5,-2 17.703125,9.0625 20.90625,20.125 20.90625,31.390625 q 0,11.28125 -3.203125,22.265625 -3.203125,11 -9.6875,22.21875 z"
       id="DejaVuSans-41-9" />
    <path
       inkscape:connector-curvature="0"
       d="M 0,0 H -3.5"
       id="m80d070c6bd-2"
       style="stroke:#000000;stroke-width:0.80000001;stroke-linecap:butt;stroke-linejoin:round" />
    <path
       style="stroke-linecap:butt;stroke-linejoin:round"
       inkscape:connector-curvature="0"
       d="M 40.578125,39.3125 Q 47.65625,37.796875 51.625,33 q 3.984375,-4.78125 3.984375,-11.8125 0,-10.78125 -7.421875,-16.703125 -7.421875,-5.90625 -21.09375,-5.90625 -4.578125,0 -9.4375,0.90625 -4.859375,0.90625 -10.03125,2.71875 v 9.515625 q 4.09375,-2.390625 8.96875,-3.609375 4.890625,-1.21875 10.21875,-1.21875 9.265625,0 14.125,3.65625 4.859375,3.65625 4.859375,10.640625 0,6.453125 -4.515625,10.078125 -4.515625,3.640625 -12.5625,3.640625 h -8.5 v 8.109375 h 8.890625 q 7.265625,0 11.125,2.90625 3.859375,2.90625 3.859375,8.375 0,5.609375 -3.984375,8.609375 -3.96875,3.015625 -11.390625,3.015625 -4.0625,0 -8.703125,-0.890625 Q 15.375,64.15625 9.8125,62.3125 v 8.78125 q 5.625,1.5625 10.53125,2.34375 4.90625,0.78125 9.25,0.78125 11.234375,0 17.765625,-5.109375 6.546875,-5.09375 6.546875,-13.78125 0,-6.0625 -3.46875,-10.234375 -3.46875,-4.171875 -9.859375,-5.78125 z"
       id="DejaVuSans-51-0" />
    <path
       style="stroke-linecap:butt;stroke-linejoin:round"
       inkscape:connector-curvature="0"
       d="m 34.28125,27.484375 q -10.890625,0 -15.09375,-2.484375 -4.203125,-2.484375 -4.203125,-8.5 0,-4.78125 3.15625,-7.59375 3.15625,-2.796875 8.5625,-2.796875 7.484375,0 12,5.296875 4.515625,5.296875 4.515625,14.078125 v 2 z m 17.921875,3.71875 V 0 H 43.21875 v 8.296875 q -3.078125,-4.96875 -7.671875,-7.34375 -4.59375,-2.375 -11.234375,-2.375 -8.390625,0 -13.359375,4.71875 Q 6,8.015625 6,15.921875 q 0,9.21875 6.171875,13.90625 6.1875,4.6875 18.4375,4.6875 H 43.21875 v 0.890625 q 0,6.203125 -4.078125,9.59375 -4.078125,3.390625 -11.453125,3.390625 -4.6875,0 -9.140625,-1.125 -4.4375,-1.125 -8.53125,-3.375 v 8.3125 q 4.921875,1.90625 9.5625,2.84375 Q 24.21875,56 28.609375,56 q 11.875,0 17.734375,-6.15625 5.859375,-6.140625 5.859375,-18.640625 z"
       id="DejaVuSans-97-6" />
    <path
       style="stroke-linecap:butt;stroke-linejoin:round"
       inkscape:connector-curvature="0"
       d="M 54.890625,33.015625 V 0 H 45.90625 v 32.71875 q 0,7.765625 -3.03125,11.609375 -3.03125,3.859375 -9.078125,3.859375 -7.28125,0 -11.484375,-4.640625 -4.203125,-4.625 -4.203125,-12.640625 V 0 h -9.03125 v 54.6875 h 9.03125 v -8.5 q 3.234375,4.9375 7.59375,7.375 4.375,2.4375 10.09375,2.4375 9.421875,0 14.25,-5.828125 4.84375,-5.828125 4.84375,-17.15625 z"
       id="DejaVuSans-110-8" />
    <path
       style="stroke-linecap:butt;stroke-linejoin:round"
       inkscape:connector-curvature="0"
       d="m 45.40625,27.984375 q 0,9.765625 -4.03125,15.125 -4.015625,5.375 -11.296875,5.375 -7.21875,0 -11.25,-5.375 -4.03125,-5.359375 -4.03125,-15.125 0,-9.71875 4.03125,-15.09375 4.03125,-5.375 11.25,-5.375 7.28125,0 11.296875,5.375 4.03125,5.375 4.03125,15.09375 z M 54.390625,6.78125 q 0,-13.953125 -6.203125,-20.765625 -6.1875,-6.8125 -18.984375,-6.8125 -4.734375,0 -8.9375,0.703125 -4.203125,0.703125 -8.15625,2.171875 V -9.1875 q 3.953125,-2.140625 7.8125,-3.15625 3.859375,-1.03125 7.859375,-1.03125 8.84375,0 13.234375,4.609375 4.390625,4.609375 4.390625,13.9375 V 9.625 Q 42.625,4.78125 38.28125,2.390625 33.9375,0 27.875,0 17.828125,0 11.671875,7.65625 q -6.15625,7.671875 -6.15625,20.328125 0,12.6875 6.15625,20.34375 Q 17.828125,56 27.875,56 q 6.0625,0 10.40625,-2.390625 4.34375,-2.390625 7.125,-7.21875 V 54.6875 h 8.984375 z"
       id="DejaVuSans-103-9" />
    <path
       style="stroke-linecap:butt;stroke-linejoin:round"
       inkscape:connector-curvature="0"
       d="M 9.421875,75.984375 H 18.40625 V 0 H 9.421875 Z"
       id="DejaVuSans-108-26" />
    <path
       style="stroke-linecap:butt;stroke-linejoin:round"
       inkscape:connector-curvature="0"
       d="m 25,67.921875 q -3.90625,0 -6.59375,-2.71875 -2.6875,-2.703125 -2.6875,-6.609375 0,-3.859375 2.6875,-6.515625 2.6875,-2.65625 6.59375,-2.65625 3.90625,0 6.59375,2.65625 2.6875,2.65625 2.6875,6.515625 0,3.859375 -2.71875,6.59375 Q 28.859375,67.921875 25,67.921875 Z m 0,6.296875 q 3.125,0 6,-1.203125 2.890625,-1.1875 4.984375,-3.4375 2.25,-2.1875 3.375,-4.984375 1.125,-2.78125 1.125,-6 0,-6.4375 -4.515625,-10.90625 -4.515625,-4.46875 -11.0625,-4.46875 -6.59375,0 -11,4.390625 Q 9.515625,52 9.515625,58.59375 q 0,6.546875 4.484375,11.078125 4.5,4.546875 11,4.546875 z"
       id="DejaVuSans-176-6" />
    <path
       style="stroke-linecap:butt;stroke-linejoin:round"
       inkscape:connector-curvature="0"
       d="M 10.6875,12.40625 H 21 V 0 H 10.6875 Z"
       id="DejaVuSans-46-4" />
    <clipPath
       style="stroke-linecap:butt;stroke-linejoin:round"
       id="p8e948c6700-9">
      <rect
         style="stroke-linecap:butt;stroke-linejoin:round"
         height="277.20001"
         width="405.81818"
         x="144"
         y="43.200001"
         id="rect3766-5" />
    </clipPath>
    <style
       id="style2148"
       type="text/css">*{stroke-linecap:butt;stroke-linejoin:round;}</style>
    <path
       style="stroke:#000000;stroke-width:0.80000001;stroke-linecap:butt;stroke-linejoin:round"
       id="me6029f38e9-3"
       d="M 0,0 V 3.5"
       inkscape:connector-curvature="0" />
    <path
       id="DejaVuSans-49-6"
       d="m 12.40625,8.296875 h 16.109375 v 55.625 L 10.984375,60.40625 v 8.984375 l 17.4375,3.515625 H 38.28125 V 8.296875 H 54.390625 V 0 H 12.40625 Z"
       inkscape:connector-curvature="0"
       style="stroke-linecap:butt;stroke-linejoin:round" />
    <path
       id="DejaVuSans-48-75"
       d="m 31.78125,66.40625 q -7.609375,0 -11.453125,-7.5 Q 16.5,51.421875 16.5,36.375 q 0,-14.984375 3.828125,-22.484375 3.84375,-7.5 11.453125,-7.5 7.671875,0 11.5,7.5 3.84375,7.5 3.84375,22.484375 0,15.046875 -3.84375,22.53125 -3.828125,7.5 -11.5,7.5 z m 0,7.8125 q 12.265625,0 18.734375,-9.703125 6.46875,-9.6875 6.46875,-28.140625 0,-18.40625 -6.46875,-28.109375 -6.46875,-9.6875 -18.734375,-9.6875 -12.25,0 -18.71875,9.6875 Q 6.59375,17.96875 6.59375,36.375 q 0,18.453125 6.46875,28.140625 6.46875,9.703125 18.71875,9.703125 z"
       inkscape:connector-curvature="0"
       style="stroke-linecap:butt;stroke-linejoin:round" />
    <path
       id="DejaVuSans-50-3"
       d="M 19.1875,8.296875 H 53.609375 V 0 H 7.328125 v 8.296875 q 5.609375,5.8125 15.296875,15.59375 9.703125,9.796875 12.1875,12.640625 4.734375,5.3125 6.609375,9 1.890625,3.6875 1.890625,7.25 0,5.8125 -4.078125,9.46875 -4.078125,3.671875 -10.625,3.671875 -4.640625,0 -9.796875,-1.609375 -5.140625,-1.609375 -11,-4.890625 v 9.96875 Q 13.765625,71.78125 18.9375,73 q 5.1875,1.21875 9.484375,1.21875 11.328125,0 18.0625,-5.671875 6.734375,-5.65625 6.734375,-15.125 0,-4.5 -1.6875,-8.53125 Q 49.859375,40.875 45.40625,35.40625 44.1875,33.984375 37.640625,27.21875 31.109375,20.453125 19.1875,8.296875 Z"
       inkscape:connector-curvature="0"
       style="stroke-linecap:butt;stroke-linejoin:round" />
    <path
       id="DejaVuSans-52-5"
       d="M 37.796875,64.3125 12.890625,25.390625 h 24.90625 z m -2.59375,8.59375 h 12.40625 V 25.390625 h 10.40625 V 17.1875 H 47.609375 V 0 h -9.8125 V 17.1875 H 4.890625 v 9.515625 z"
       inkscape:connector-curvature="0"
       style="stroke-linecap:butt;stroke-linejoin:round" />
    <path
       id="DejaVuSans-54-6"
       d="m 33.015625,40.375 q -6.640625,0 -10.53125,-4.546875 -3.875,-4.53125 -3.875,-12.4375 0,-7.859375 3.875,-12.4375 3.890625,-4.5625 10.53125,-4.5625 6.640625,0 10.515625,4.5625 3.875,4.578125 3.875,12.4375 0,7.90625 -3.875,12.4375 Q 39.65625,40.375 33.015625,40.375 Z M 52.59375,71.296875 V 62.3125 q -3.71875,1.75 -7.5,2.671875 -3.78125,0.9375 -7.5,0.9375 -9.765625,0 -14.921875,-6.59375 -5.140625,-6.59375 -5.875,-19.921875 2.875,4.25 7.21875,6.515625 4.359375,2.265625 9.578125,2.265625 10.984375,0 17.359375,-6.671875 6.375,-6.65625 6.375,-18.125 0,-11.234375 -6.640625,-18.03125 -6.640625,-6.78125 -17.671875,-6.78125 -12.65625,0 -19.34375,9.6875 -6.6875,9.703125 -6.6875,28.109375 0,17.28125 8.203125,27.5625 8.203125,10.28125 22.015625,10.28125 3.71875,0 7.5,-0.734375 3.78125,-0.734375 7.890625,-2.1875 z"
       inkscape:connector-curvature="0"
       style="stroke-linecap:butt;stroke-linejoin:round" />
    <path
       id="DejaVuSans-56-29"
       d="m 31.78125,34.625 q -7.03125,0 -11.0625,-3.765625 -4.015625,-3.765625 -4.015625,-10.34375 0,-6.59375 4.015625,-10.359375 4.03125,-3.765625 11.0625,-3.765625 7.03125,0 11.078125,3.78125 4.0625,3.796875 4.0625,10.34375 0,6.578125 -4.03125,10.34375 Q 38.875,34.625 31.78125,34.625 Z m -9.859375,4.1875 Q 15.578125,40.375 12.03125,44.71875 8.5,49.078125 8.5,55.328125 q 0,8.734375 6.21875,13.8125 6.234375,5.078125 17.0625,5.078125 10.890625,0 17.09375,-5.078125 6.203125,-5.078125 6.203125,-13.8125 0,-6.25 -3.546875,-10.609375 Q 48,40.375 41.703125,38.8125 q 7.125,-1.65625 11.09375,-6.5 3.984375,-4.828125 3.984375,-11.796875 0,-10.609375 -6.46875,-16.28125 -6.46875,-5.65625 -18.53125,-5.65625 -12.046875,0 -18.53125,5.65625 -6.46875,5.671875 -6.46875,16.28125 0,6.96875 4,11.796875 4.015625,4.84375 11.140625,6.5 z M 18.3125,54.390625 q 0,-5.65625 3.53125,-8.828125 3.546875,-3.171875 9.9375,-3.171875 6.359375,0 9.9375,3.171875 3.59375,3.171875 3.59375,8.828125 0,5.671875 -3.59375,8.84375 -3.578125,3.171875 -9.9375,3.171875 -6.390625,0 -9.9375,-3.171875 Q 18.3125,60.0625 18.3125,54.390625 Z"
       inkscape:connector-curvature="0"
       style="stroke-linecap:butt;stroke-linejoin:round" />
    <path
       id="DejaVuSans-116-1"
       d="M 18.3125,70.21875 V 54.6875 h 18.5 v -6.984375 h -18.5 v -29.6875 q 0,-6.6875 1.828125,-8.59375 1.828125,-1.90625 7.453125,-1.90625 H 36.8125 V 0 H 27.59375 Q 17.1875,0 13.234375,3.875 9.28125,7.765625 9.28125,18.015625 v 29.6875 H 2.6875 V 54.6875 h 6.59375 v 15.53125 z"
       inkscape:connector-curvature="0"
       style="stroke-linecap:butt;stroke-linejoin:round" />
    <path
       id="DejaVuSans-105-2"
       d="M 9.421875,54.6875 H 18.40625 V 0 H 9.421875 Z m 0,21.296875 H 18.40625 V 64.59375 H 9.421875 Z"
       inkscape:connector-curvature="0"
       style="stroke-linecap:butt;stroke-linejoin:round" />
    <path
       id="DejaVuSans-109-7"
       d="M 52,44.1875 Q 55.375,50.25 60.0625,53.125 64.75,56 71.09375,56 q 8.546875,0 13.1875,-5.984375 4.640625,-5.96875 4.640625,-17 V 0 h -9.03125 v 32.71875 q 0,7.859375 -2.796875,11.65625 -2.78125,3.8125 -8.484375,3.8125 -6.984375,0 -11.046875,-4.640625 -4.046875,-4.625 -4.046875,-12.640625 V 0 h -9.03125 v 32.71875 q 0,7.90625 -2.78125,11.6875 -2.78125,3.78125 -8.59375,3.78125 -6.890625,0 -10.953125,-4.65625 -4.046875,-4.65625 -4.046875,-12.625 V 0 h -9.03125 v 54.6875 h 9.03125 v -8.5 q 3.078125,5.03125 7.375,7.421875 Q 29.78125,56 35.6875,56 41.65625,56 45.828125,52.96875 50,49.953125 52,44.1875 Z"
       inkscape:connector-curvature="0"
       style="stroke-linecap:butt;stroke-linejoin:round" />
    <path
       id="DejaVuSans-101-0"
       d="m 56.203125,29.59375 v -4.390625 h -41.3125 q 0.59375,-9.28125 5.59375,-14.140625 5,-4.859375 13.9375,-4.859375 5.171875,0 10.03125,1.265625 4.859375,1.265625 9.65625,3.8125 v -8.5 q -4.84375,-2.046875 -9.921875,-3.125 -5.078125,-1.078125 -10.296875,-1.078125 -13.09375,0 -20.734375,7.609375 -7.640625,7.625 -7.640625,20.625 0,13.421875 7.25,21.296875 Q 20.015625,56 32.328125,56 q 11.03125,0 17.453125,-7.109375 6.421875,-7.09375 6.421875,-19.296875 z m -8.984375,2.640625 q -0.09375,7.359375 -4.125,11.75 -4.03125,4.40625 -10.671875,4.40625 -7.515625,0 -12.03125,-4.25 -4.515625,-4.25 -5.203125,-11.96875 z"
       inkscape:connector-curvature="0"
       style="stroke-linecap:butt;stroke-linejoin:round" />
    <path
       id="DejaVuSans-40-9"
       d="M 31,75.875 Q 24.46875,64.65625 21.28125,53.65625 18.109375,42.671875 18.109375,31.390625 18.109375,20.125 21.3125,9.0625 24.515625,-2 31,-13.1875 H 23.1875 Q 15.875,-1.703125 12.234375,9.375 8.59375,20.453125 8.59375,31.390625 q 0,10.890625 3.609375,21.921875 3.625,11.046875 10.984375,22.5625 z"
       inkscape:connector-curvature="0"
       style="stroke-linecap:butt;stroke-linejoin:round" />
    <path
       id="DejaVuSans-115-3"
       d="m 44.28125,53.078125 v -8.5 Q 40.484375,46.53125 36.375,47.5 q -4.09375,0.984375 -8.5,0.984375 -6.6875,0 -10.03125,-2.046875 Q 14.5,44.390625 14.5,40.28125 q 0,-3.125 2.390625,-4.90625 2.390625,-1.78125 9.625,-3.390625 l 3.078125,-0.6875 Q 39.15625,29.25 43.1875,25.515625 47.21875,21.78125 47.21875,15.09375 q 0,-7.625 -6.03125,-12.078125 -6.03125,-4.4375 -16.578125,-4.4375 -4.390625,0 -9.15625,0.859375 Q 10.6875,0.296875 5.421875,2 v 9.28125 q 4.984375,-2.59375 9.8125,-3.890625 4.828125,-1.28125 9.578125,-1.28125 6.34375,0 9.75,2.171875 3.421875,2.171875 3.421875,6.125 0,3.65625 -2.46875,5.609375 -2.453125,1.953125 -10.8125,3.765625 l -3.125,0.734375 q -8.34375,1.75 -12.0625,5.390625 -3.703125,3.640625 -3.703125,9.984375 0,7.71875 5.46875,11.90625 Q 16.75,56 26.8125,56 q 4.96875,0 9.359375,-0.734375 4.40625,-0.71875 8.109375,-2.1875 z"
       inkscape:connector-curvature="0"
       style="stroke-linecap:butt;stroke-linejoin:round" />
    <path
       id="DejaVuSans-41-6"
       d="m 8.015625,75.875 h 7.8125 q 7.3125,-11.515625 10.953125,-22.5625 3.640625,-11.03125 3.640625,-21.921875 0,-10.9375 -3.640625,-22.015625 -3.640625,-11.078125 -10.953125,-22.5625 h -7.8125 Q 14.5,-2 17.703125,9.0625 20.90625,20.125 20.90625,31.390625 q 0,11.28125 -3.203125,22.265625 -3.203125,11 -9.6875,22.21875 z"
       inkscape:connector-curvature="0"
       style="stroke-linecap:butt;stroke-linejoin:round" />
    <path
       style="stroke:#000000;stroke-width:0.80000001;stroke-linecap:butt;stroke-linejoin:round"
       id="m80d070c6bd-0"
       d="M 0,0 H -3.5"
       inkscape:connector-curvature="0" />
    <path
       id="DejaVuSans-51-6"
       d="M 40.578125,39.3125 Q 47.65625,37.796875 51.625,33 q 3.984375,-4.78125 3.984375,-11.8125 0,-10.78125 -7.421875,-16.703125 -7.421875,-5.90625 -21.09375,-5.90625 -4.578125,0 -9.4375,0.90625 -4.859375,0.90625 -10.03125,2.71875 v 9.515625 q 4.09375,-2.390625 8.96875,-3.609375 4.890625,-1.21875 10.21875,-1.21875 9.265625,0 14.125,3.65625 4.859375,3.65625 4.859375,10.640625 0,6.453125 -4.515625,10.078125 -4.515625,3.640625 -12.5625,3.640625 h -8.5 v 8.109375 h 8.890625 q 7.265625,0 11.125,2.90625 3.859375,2.90625 3.859375,8.375 0,5.609375 -3.984375,8.609375 -3.96875,3.015625 -11.390625,3.015625 -4.0625,0 -8.703125,-0.890625 Q 15.375,64.15625 9.8125,62.3125 v 8.78125 q 5.625,1.5625 10.53125,2.34375 4.90625,0.78125 9.25,0.78125 11.234375,0 17.765625,-5.109375 6.546875,-5.09375 6.546875,-13.78125 0,-6.0625 -3.46875,-10.234375 -3.46875,-4.171875 -9.859375,-5.78125 z"
       inkscape:connector-curvature="0"
       style="stroke-linecap:butt;stroke-linejoin:round" />
    <path
       id="DejaVuSans-97-2"
       d="m 34.28125,27.484375 q -10.890625,0 -15.09375,-2.484375 -4.203125,-2.484375 -4.203125,-8.5 0,-4.78125 3.15625,-7.59375 3.15625,-2.796875 8.5625,-2.796875 7.484375,0 12,5.296875 4.515625,5.296875 4.515625,14.078125 v 2 z m 17.921875,3.71875 V 0 H 43.21875 v 8.296875 q -3.078125,-4.96875 -7.671875,-7.34375 -4.59375,-2.375 -11.234375,-2.375 -8.390625,0 -13.359375,4.71875 Q 6,8.015625 6,15.921875 q 0,9.21875 6.171875,13.90625 6.1875,4.6875 18.4375,4.6875 H 43.21875 v 0.890625 q 0,6.203125 -4.078125,9.59375 -4.078125,3.390625 -11.453125,3.390625 -4.6875,0 -9.140625,-1.125 -4.4375,-1.125 -8.53125,-3.375 v 8.3125 q 4.921875,1.90625 9.5625,2.84375 Q 24.21875,56 28.609375,56 q 11.875,0 17.734375,-6.15625 5.859375,-6.140625 5.859375,-18.640625 z"
       inkscape:connector-curvature="0"
       style="stroke-linecap:butt;stroke-linejoin:round" />
    <path
       id="DejaVuSans-110-61"
       d="M 54.890625,33.015625 V 0 H 45.90625 v 32.71875 q 0,7.765625 -3.03125,11.609375 -3.03125,3.859375 -9.078125,3.859375 -7.28125,0 -11.484375,-4.640625 -4.203125,-4.625 -4.203125,-12.640625 V 0 h -9.03125 v 54.6875 h 9.03125 v -8.5 q 3.234375,4.9375 7.59375,7.375 4.375,2.4375 10.09375,2.4375 9.421875,0 14.25,-5.828125 4.84375,-5.828125 4.84375,-17.15625 z"
       inkscape:connector-curvature="0"
       style="stroke-linecap:butt;stroke-linejoin:round" />
    <path
       id="DejaVuSans-103-8"
       d="m 45.40625,27.984375 q 0,9.765625 -4.03125,15.125 -4.015625,5.375 -11.296875,5.375 -7.21875,0 -11.25,-5.375 -4.03125,-5.359375 -4.03125,-15.125 0,-9.71875 4.03125,-15.09375 4.03125,-5.375 11.25,-5.375 7.28125,0 11.296875,5.375 4.03125,5.375 4.03125,15.09375 z M 54.390625,6.78125 q 0,-13.953125 -6.203125,-20.765625 -6.1875,-6.8125 -18.984375,-6.8125 -4.734375,0 -8.9375,0.703125 -4.203125,0.703125 -8.15625,2.171875 V -9.1875 q 3.953125,-2.140625 7.8125,-3.15625 3.859375,-1.03125 7.859375,-1.03125 8.84375,0 13.234375,4.609375 4.390625,4.609375 4.390625,13.9375 V 9.625 Q 42.625,4.78125 38.28125,2.390625 33.9375,0 27.875,0 17.828125,0 11.671875,7.65625 q -6.15625,7.671875 -6.15625,20.328125 0,12.6875 6.15625,20.34375 Q 17.828125,56 27.875,56 q 6.0625,0 10.40625,-2.390625 4.34375,-2.390625 7.125,-7.21875 V 54.6875 h 8.984375 z"
       inkscape:connector-curvature="0"
       style="stroke-linecap:butt;stroke-linejoin:round" />
    <path
       id="DejaVuSans-108-7"
       d="M 9.421875,75.984375 H 18.40625 V 0 H 9.421875 Z"
       inkscape:connector-curvature="0"
       style="stroke-linecap:butt;stroke-linejoin:round" />
    <path
       id="DejaVuSans-176-92"
       d="m 25,67.921875 q -3.90625,0 -6.59375,-2.71875 -2.6875,-2.703125 -2.6875,-6.609375 0,-3.859375 2.6875,-6.515625 2.6875,-2.65625 6.59375,-2.65625 3.90625,0 6.59375,2.65625 2.6875,2.65625 2.6875,6.515625 0,3.859375 -2.71875,6.59375 Q 28.859375,67.921875 25,67.921875 Z m 0,6.296875 q 3.125,0 6,-1.203125 2.890625,-1.1875 4.984375,-3.4375 2.25,-2.1875 3.375,-4.984375 1.125,-2.78125 1.125,-6 0,-6.4375 -4.515625,-10.90625 -4.515625,-4.46875 -11.0625,-4.46875 -6.59375,0 -11,4.390625 Q 9.515625,52 9.515625,58.59375 q 0,6.546875 4.484375,11.078125 4.5,4.546875 11,4.546875 z"
       inkscape:connector-curvature="0"
       style="stroke-linecap:butt;stroke-linejoin:round" />
    <path
       id="DejaVuSans-46-0"
       d="M 10.6875,12.40625 H 21 V 0 H 10.6875 Z"
       inkscape:connector-curvature="0"
       style="stroke-linecap:butt;stroke-linejoin:round" />
    <clipPath
       id="p8e948c6700-2"
       style="stroke-linecap:butt;stroke-linejoin:round">
      <rect
         id="rect2628"
         y="43.200001"
         x="144"
         width="405.81818"
         height="277.20001"
         style="stroke-linecap:butt;stroke-linejoin:round" />
    </clipPath>
  </defs>
  <sodipodi:namedview
     id="base"
     pagecolor="#ffffff"
     bordercolor="#666666"
     borderopacity="1.0"
     inkscape:pageopacity="0.0"
     inkscape:pageshadow="2"
     inkscape:zoom="1.393869"
     inkscape:cx="265.51862"
     inkscape:cy="381.36807"
     inkscape:document-units="pt"
     inkscape:current-layer="layer1"
     showgrid="false"
     inkscape:object-nodes="true"
     inkscape:object-paths="true"
     inkscape:snap-intersection-paths="true"
     inkscape:snap-smooth-nodes="true"
     inkscape:window-width="1853"
     inkscape:window-height="931"
     inkscape:window-x="67"
     inkscape:window-y="27"
     inkscape:window-maximized="1"
     inkscape:snap-nodes="true"
     inkscape:snap-midpoints="true" />
  <metadata
     id="metadata5">
    <rdf:RDF>
      <cc:Work
         rdf:about="">
        <dc:format>image/svg+xml</dc:format>
        <dc:type
           rdf:resource="http://purl.org/dc/dcmitype/StillImage" />
        <dc:title></dc:title>
      </cc:Work>
    </rdf:RDF>
  </metadata>
  <g
     inkscape:groupmode="layer"
     id="layer1"
     inkscape:label="wellen"
     style="display:inline;stroke-linecap:butt;stroke-linejoin:round"
     transform="translate(4.8532962e-6)">
    <path
       style="fill:none;stroke:#646567;stroke-width:1.411111;stroke-linecap:square;stroke-linejoin:round;stroke-miterlimit:4;stroke-dasharray:none;stroke-opacity:1"
       d="m 47.448087,129.99557 c 0.486462,-0.48325 0.972658,-0.96623 1.56744,-2.12846 0.594782,-1.16223 1.299059,-3.00566 1.984371,-5.23182 0.685311,-2.22616 1.352314,-4.83696 1.941017,-7.31991 0.588703,-2.48294 1.099361,-4.83907 1.622235,-7.36539 0.522874,-2.52632 1.058173,-5.22382 1.380937,-6.89836 0.322765,-1.674541 0.433101,-2.326625 0.54038,-2.848047 0.10728,-0.521421 0.211581,-0.912604 0.246514,-1.10003 0.03493,-0.187427 2.6e-4,-0.171419 -0.03471,-0.155275"
       id="path2982"
       inkscape:connector-curvature="0"
       inkscape:path-effect="#path-effect2984"
       inkscape:original-d="m 47.448087,129.99557 c 0.48646,-0.48325 0.972658,-0.96623 1.458589,-1.44895 0.703776,-1.84169 1.408054,-3.68512 2.111685,-5.52729 0.667035,-2.61015 1.334037,-5.22095 2.000657,-7.83103 0.510799,-2.35582 1.021456,-4.71195 1.531787,-7.06753 0.535421,-2.69706 1.070721,-5.39456 1.605687,-8.09145 0.110575,-0.652195 0.220909,-1.304279 0.330967,-1.956022 0.10447,-0.391088 0.208771,-0.782271 0.312759,-1.17301 -0.03436,0.01572 -0.06903,0.03173 -0.103944,0.04799" />
    <path
       style="fill:none;stroke:#646567;stroke-width:1.411111;stroke-linecap:square;stroke-linejoin:round;stroke-miterlimit:4;stroke-dasharray:none;stroke-opacity:1"
       d="m 47.448087,129.99557 c 0.296331,-0.33418 0.592417,-0.66807 0.900974,-1.12101 0.308557,-0.45293 0.630197,-1.02582 0.958098,-1.73383 0.3279,-0.708 0.668449,-1.5669 1.012404,-2.17897 0.343955,-0.61206 0.694481,-0.98525 0.953215,-1.19705 0.258735,-0.2118 0.425986,-0.2626 0.598041,-0.24897 0.172055,0.0136 0.349904,0.0918 0.554671,0.26719 0.204768,0.17538 0.413883,0.42111 0.639414,0.7635 0.22553,0.34238 0.455939,0.76787 0.689809,1.24417 0.23387,0.47629 0.471081,1.00315 0.66363,1.43816 0.192549,0.435 0.340321,0.77789 0.472147,1.07953 0.131825,0.30165 0.251981,0.57166 0.504422,1.10441 0.252442,0.53275 0.638963,1.33233 0.943957,1.88699 0.304994,0.55466 0.528203,0.86387 0.703616,1.07996 0.175414,0.21608 0.302925,0.3389 0.425119,0.43663 0.122193,0.0977 0.239013,0.17033 0.353296,0.22402 0.114282,0.0537 0.226086,0.0885 0.392885,0.0925 0.1668,0.004 0.389189,-0.0227 0.633416,-0.12299 0.244227,-0.10032 0.511307,-0.2746 0.895643,-0.63304 0.384336,-0.35844 0.891147,-0.90641 1.353147,-1.41874 0.461999,-0.51232 0.882029,-0.99208 1.213102,-1.3372 0.331074,-0.34511 0.573653,-0.55611 0.811609,-0.72074 0.237955,-0.16462 0.471934,-0.28336 0.665822,-0.3624 0.193888,-0.079 0.348393,-0.11869 0.583638,-0.13083 0.235245,-0.0121 0.548148,0.003 0.793842,0.0389 0.245693,0.036 0.422867,0.0928 0.843451,0.30139 0.420585,0.20854 1.225463,0.64513 1.66813,0.88774 0.442666,0.24261 0.593538,0.32944 0.849216,0.46428 0.255678,0.13483 0.616579,0.31788 0.903896,0.4389 0.287317,0.12102 0.501315,0.18016 0.712469,0.22264 0.211154,0.0425 0.419841,0.0684 0.686816,0.074 0.266975,0.006 0.593093,-0.009 0.861992,-0.039 0.268899,-0.0298 0.481242,-0.0747 0.833426,-0.16967 0.352185,-0.095 0.845786,-0.24053 1.402858,-0.39752 0.557072,-0.15699 1.179121,-0.32587 1.782859,-0.43472 0.603739,-0.10886 1.190178,-0.15791 1.88111,-0.14219 0.690932,0.0157 1.487462,0.0962 2.132209,0.16908 0.644747,0.0728 1.137336,0.13793 1.661497,0.20526 0.52416,0.0673 1.080005,0.13692 1.671339,0.1652 0.591334,0.0283 1.218878,0.0153 1.890125,-0.0147 0.671247,-0.03 1.387056,-0.077 2.140291,-0.11145 0.753235,-0.0344 1.54483,-0.0563 2.321094,-0.0942 0.776265,-0.0379 1.538023,-0.0919 2.261149,-0.10543 0.723126,-0.0135 1.408425,0.0134 2.090357,0.0451 0.681932,0.0317 1.361266,0.0683 2.268039,0.0998 0.906773,0.0314 2.042065,0.0578 3.189529,0.0686 1.147464,0.0108 2.308044,0.006 3.362164,-0.0226 1.05412,-0.0286 2.00244,-0.0811 2.95028,-0.13345"
       id="path2992"
       inkscape:connector-curvature="0"
       inkscape:path-effect="#path-effect2994"
       inkscape:original-d="m 47.448087,129.99557 c 0.296349,-0.33416 0.592433,-0.66806 0.888251,-1.00169 0.321368,-0.5722 0.643006,-1.14509 0.964112,-1.71723 0.335021,-0.84376 0.675296,-1.70277 1.012547,-2.55376 0.350528,-0.37318 0.701056,-0.74637 1.051187,-1.11916 0.167275,-0.051 0.334529,-0.10179 0.501399,-0.15229 0.177435,0.0776 0.355277,0.15579 0.532519,0.23407 0.227989,0.27635 0.441555,0.51829 0.661934,0.77783 0.230714,0.4253 0.461122,0.85079 0.691285,1.27658 0.23758,0.52683 0.474792,1.05369 0.71179,1.58093 0.148103,0.34277 0.295873,0.68566 0.443413,1.02889 0.116109,0.26006 0.236265,0.53007 0.354002,0.7955 0.387143,0.80006 0.773665,1.59964 1.160102,2.39985 0.223533,0.30904 0.446741,0.61826 0.669716,0.92778 0.127815,0.12259 0.255326,0.24541 0.38259,0.36851 0.117068,0.0723 0.233876,0.14492 0.350417,0.21778 0.111932,0.0345 0.22374,0.0693 0.335211,0.10438 0.221994,-0.0269 0.444384,-0.0536 0.666181,-0.08 0.266642,-0.17408 0.533723,-0.34835 0.800188,-0.52213 0.502314,-0.54298 1.009073,-1.091 1.513213,-1.63611 0.419869,-0.47953 0.839898,-0.95929 1.259451,-1.43855 0.242556,-0.21101 0.485134,-0.42201 0.727307,-0.63262 0.233701,-0.11873 0.467683,-0.23746 0.701128,-0.3558 0.154339,-0.0398 0.308834,-0.0795 0.462856,-0.11882 0.316109,0.0238 0.629436,0.0301 0.943756,0.0455 0.177157,0.0565 0.354332,0.11335 0.531103,0.17043 0.668309,0.35293 1.469345,0.7966 2.203622,1.1953 0.15108,0.0865 0.301937,0.17336 0.452509,0.26044 0.360765,0.18258 0.721667,0.36563 1.082103,0.54885 0.21413,0.0588 0.42812,0.11796 0.641782,0.17734 0.208597,0.0256 0.417274,0.0516 0.625514,0.0777 0.325671,-0.015 0.651788,-0.0298 0.977286,-0.0443 0.212262,-0.0451 0.42462,-0.0899 0.636532,-0.13451 0.492443,-0.14538 0.986044,-0.29092 1.478669,-0.43599 0.62152,-0.16892 1.243568,-0.3378 1.864955,-0.5063 0.586116,-0.0493 1.17256,-0.0983 1.758442,-0.14709 0.796026,0.0802 1.592559,0.16068 2.388444,0.24142 0.493623,0.0649 0.986208,0.13002 1.478915,0.19543 0.555607,0.0693 1.111457,0.13885 1.66679,0.20867 0.627293,-0.0132 1.254837,-0.0262 1.881857,-0.0389 0.71546,-0.0473 1.431272,-0.0943 2.146509,-0.14106 0.791242,-0.0221 1.582838,-0.0439 2.37386,-0.0655 0.761497,-0.0542 1.523254,-0.10822 2.284484,-0.16194 0.685051,0.0266 1.370346,0.0536 2.055122,0.0807 0.679095,0.0363 1.358429,0.0729 2.037246,0.10975 1.134722,0.026 2.270012,0.0524 3.404622,0.079 1.160312,-0.005 2.320892,-0.01 3.480942,-0.0144 0.94817,-0.0527 1.8965,-0.1051 2.84435,-0.15726" />
    <path
       style="fill:none;stroke:#646567;stroke-width:1.411111;stroke-linecap:butt;stroke-linejoin:miter;stroke-miterlimit:4;stroke-dasharray:none;stroke-opacity:1"
       d="m 47.448087,129.99557 c 0.656689,-1.03275 1.31318,-2.06519 1.927347,-3.36512 0.614166,-1.29993 1.186431,-2.86828 1.590795,-4.07049 0.404363,-1.20221 0.641119,-2.03909 0.99345,-3.40456 0.35233,-1.36548 0.821089,-3.26294 1.094313,-4.38225 0.273225,-1.1193 0.351345,-1.46219 0.519818,-1.81247 0.168473,-0.35027 0.42763,-0.70864 0.596815,-0.92005 0.169186,-0.21141 0.248692,-0.27635 0.325077,-0.31978 0.07639,-0.0434 0.150185,-0.0657 0.259401,-0.0479 0.109216,0.0178 0.255519,0.0758 0.414058,0.21866 0.15854,0.14285 0.330436,0.3713 0.505463,0.68582 0.175027,0.31451 0.353311,0.71525 0.570873,1.33956 0.217561,0.62432 0.474207,1.47166 0.707733,2.35401 0.233525,0.88236 0.443761,1.79913 0.600746,2.51028 0.156985,0.71115 0.260627,1.21628 0.424968,2.05527 0.164341,0.83899 0.389174,2.01078 0.630992,3.28147 0.241817,1.27069 0.500438,2.63933 0.725405,3.8028 0.224966,1.16347 0.416178,2.12125 0.646843,3.15083 0.230665,1.02959 0.500645,2.13035 0.726082,2.94619 0.225437,0.81585 0.406221,1.34634 0.578625,1.75909 0.172405,0.41276 0.336301,0.70744 0.461855,0.90001 0.125553,0.19256 0.212641,0.28281 0.295382,0.34878 0.08274,0.066 0.160988,0.1076 0.236762,0.1308 0.07577,0.0232 0.149005,0.028 0.26212,-0.0135 0.113116,-0.0415 0.26709,-0.12959 0.443634,-0.31716 0.176544,-0.18758 0.377088,-0.47595 0.591413,-0.87076 0.214324,-0.3948 0.443379,-0.89766 0.712314,-1.55956 0.268935,-0.66189 0.578408,-1.48439 0.863566,-2.2454 0.285159,-0.76101 0.547404,-1.46429 0.803185,-2.1106 0.255781,-0.64632 0.505912,-1.23783 0.681221,-1.62571 0.175309,-0.38788 0.275983,-0.57261 0.397082,-0.77319 0.1211,-0.20058 0.263135,-0.41786 0.397023,-0.59712 0.133887,-0.17926 0.260188,-0.3213 0.477121,-0.45942 0.216934,-0.13811 0.556806,-0.28673 0.771453,-0.34775 0.214647,-0.061 0.32048,-0.0416 0.42982,-0.006 0.10934,0.0358 0.222828,0.0883 0.342597,0.16081 0.119768,0.0725 0.246364,0.16549 0.384337,0.2864 0.137972,0.12091 0.287597,0.27002 0.459375,0.46445 0.171777,0.19442 0.365783,0.43425 0.659819,0.82077 0.294037,0.38653 0.688015,0.91965 0.953324,1.27932 0.265308,0.35967 0.401879,0.5458 0.633217,0.83271 0.231338,0.28691 0.553618,0.67005 0.838318,0.95202 0.284701,0.28198 0.529824,0.46045 0.723898,0.58029 0.194073,0.11985 0.337083,0.18107 0.478443,0.22519 0.141359,0.0441 0.281276,0.0712 0.42164,0.0829 0.140365,0.0117 0.281666,0.008 0.427332,-0.0116 0.145666,-0.0197 0.29647,-0.0554 0.456306,-0.10938 0.159836,-0.054 0.329675,-0.12666 0.517768,-0.22473 0.188094,-0.0981 0.395575,-0.22214 0.659188,-0.39305 0.263613,-0.17091 0.584727,-0.38954 0.812962,-0.54561 0.228236,-0.15608 0.364361,-0.25012 0.758414,-0.47989 0.394052,-0.22977 1.049074,-0.59703 1.42837,-0.79581 0.379297,-0.19877 0.485536,-0.23032 0.680751,-0.25859 0.195215,-0.0283 0.481749,-0.0537 0.72801,-0.0571 0.246261,-0.003 0.453558,0.015 0.670832,0.0499 0.217274,0.0349 0.46289,0.0904 0.752268,0.17483 0.289379,0.0845 0.632178,0.20019 1.4589,0.4155 0.826721,0.21531 2.138819,0.53061 3.069459,0.66259 0.93064,0.13198 1.480484,0.0808 1.973576,-0.0237 0.493092,-0.10452 0.929936,-0.26253 1.61148,-0.34094 0.681544,-0.0784 1.609431,-0.0774 2.536375,-0.0764"
       id="path2996"
       inkscape:connector-curvature="0"
       inkscape:path-effect="#path-effect2998"
       inkscape:original-d="m 47.448087,129.99557 c 0.656754,-1.03271 1.313246,-2.06515 1.969473,-3.09732 0.572188,-1.56768 1.144453,-3.13603 1.716281,-4.70364 0.236924,-0.83681 0.473681,-1.67369 0.710125,-2.51013 0.468244,-1.89451 0.936988,-3.79197 1.405086,-5.68755 0.07836,-0.34304 0.15648,-0.68593 0.234323,-1.0285 0.258956,-0.35799 0.518112,-0.71636 0.776772,-1.07414 0.07964,-0.0651 0.159149,-0.13004 0.238326,-0.19467 0.07355,-0.0224 0.147362,-0.0446 0.220644,-0.0665 0.145322,0.0573 0.291629,0.11533 0.437046,0.17338 0.171834,0.22775 0.343728,0.4562 0.515194,0.68469 0.178613,0.40062 0.356897,0.80136 0.534951,1.20244 0.257066,0.84759 0.513712,1.69493 0.77017,2.54279 0.210585,0.91688 0.420823,1.83365 0.630838,2.75088 0.10395,0.50508 0.207595,1.01021 0.310994,1.51572 0.22528,1.17247 0.450112,2.34426 0.674772,3.51679 0.258974,1.36885 0.517594,2.73749 0.775997,4.10663 0.191534,0.9578 0.382746,1.91558 0.573722,2.87377 0.270359,1.10096 0.540337,2.20172 0.810109,3.30297 0.18111,0.53041 0.361895,1.0609 0.542446,1.59175 0.164256,0.29459 0.32815,0.58928 0.491826,0.88431 0.0874,0.09 0.174472,0.18026 0.261311,0.27078 0.07853,0.0414 0.156789,0.083 0.234788,0.12489 0.07337,0.005 0.146654,0.009 0.219586,0.0144 0.15321,-0.0878 0.307186,-0.17592 0.460383,-0.26349 0.199993,-0.28746 0.400537,-0.57583 0.600408,-0.86335 0.228841,-0.50208 0.457896,-1.00494 0.686448,-1.50701 0.309343,-0.82172 0.618816,-1.64422 0.927828,-2.46593 0.261308,-0.70031 0.523555,-1.40358 0.784934,-2.10498 0.250166,-0.59123 0.500298,-1.18274 0.750049,-1.77372 0.10083,-0.18479 0.201504,-0.36952 0.301858,-0.55389 0.141814,-0.2168 0.28385,-0.43408 0.425375,-0.65072 0.126204,-0.1419 0.2525,-0.28395 0.378352,-0.42552 0.3029,-0.14634 0.647819,-0.28341 0.971333,-0.42472 0.105886,0.0191 0.211717,0.0385 0.317177,0.0581 0.113311,0.052 0.226804,0.10444 0.339807,0.15705 0.126603,0.0925 0.253204,0.18544 0.37941,0.27856 0.149783,0.14874 0.299408,0.29785 0.448715,0.44717 0.194273,0.23956 0.388281,0.47938 0.582022,0.71947 0.394343,0.53298 0.788318,1.0661 1.182079,1.59955 0.136858,0.18589 0.273426,0.37202 0.409744,0.55843 0.326478,0.38728 0.648624,0.77053 0.97254,1.15619 0.245417,0.17823 0.49054,0.3567 0.735412,0.53544 0.143208,0.0609 0.286208,0.12215 0.428913,0.18363 0.13993,0.0268 0.279845,0.0539 0.419367,0.0812 0.141145,-0.004 0.282438,-0.008 0.42326,-0.011 0.150489,-0.0358 0.301294,-0.0715 0.451543,-0.10691 0.169407,-0.0726 0.339246,-0.14524 0.508473,-0.21747 0.206965,-0.12387 0.414446,-0.24794 0.621271,-0.37151 0.320411,-0.21823 0.641522,-0.43686 0.961888,-0.65489 0.136117,-0.0941 0.272232,-0.18816 0.40795,-0.28184 0.652378,-0.36589 1.307399,-0.73315 1.960703,-1.09933 0.105272,-0.0315 0.211526,-0.063 0.316894,-0.0941 0.285094,-0.0255 0.571629,-0.0509 0.857049,-0.076 0.207147,0.0181 0.414446,0.0365 0.621273,0.0552 0.225076,0.063 0.473377,0.10657 0.709668,0.16025 0.342503,0.11526 0.685303,0.23097 1.027557,0.34685 1.311156,0.31475 2.623254,0.63005 3.934481,0.94547 0.549955,-0.0514 1.099801,-0.10252 1.649307,-0.15338 0.436647,-0.1581 0.87349,-0.31611 1.309838,-0.47377 0.926795,5.3e-4 1.854681,0.002 2.781625,0.003" />
    <path
       style="fill:none;stroke:#646567;stroke-width:1.411111;stroke-linecap:butt;stroke-linejoin:miter;stroke-miterlimit:4;stroke-dasharray:none;stroke-opacity:1"
       d="m 52.584921,116.67725 c 0.620171,-2.72011 1.240272,-5.43992 1.616299,-7.11994 0.376026,-1.68001 0.508017,-2.32038 0.787786,-3.18365 0.27977,-0.86327 0.707679,-1.95052 0.9804,-2.58625 0.272721,-0.63572 0.390457,-0.82055 0.562566,-1.0376 0.172109,-0.21704 0.399324,-0.46721 0.659884,-0.67833 0.260561,-0.21113 0.555432,-0.38409 0.864766,-0.49594 0.309335,-0.11185 0.634169,-0.16302 0.973123,-0.15402 0.338955,0.009 0.693106,0.0781 1.000094,0.17486 0.306987,0.0967 0.56752,0.22122 0.833682,0.39141 0.266162,0.17019 0.53841,0.38635 0.877095,0.74604 0.338685,0.35968 0.744084,0.86317 1.057931,1.32014 0.313848,0.45696 0.53619,0.86747 0.771885,1.37021 0.235694,0.50273 0.484612,1.09742 0.783114,1.96709 0.298503,0.86967 0.646374,2.0137 0.960928,3.21203 0.314554,1.19833 0.59562,2.45036 0.866726,3.77569 0.271106,1.32534 0.532121,2.72336 0.748133,3.93487 0.216012,1.21152 0.386925,2.23602 0.580957,3.41589 0.194031,1.17986 0.412898,2.52567 0.61512,3.7508 0.202222,1.22513 0.388609,2.33457 0.606997,3.57334 0.218387,1.23878 0.468652,2.60618 0.69138,3.71057 0.222729,1.1044 0.417822,1.94527 0.601237,2.62105 0.183415,0.67579 0.355057,1.18611 0.491005,1.54473 0.135947,0.35862 0.236104,0.56527 0.330368,0.72967 0.09426,0.1644 0.182501,0.2863 0.264998,0.37765 0.0825,0.0914 0.159076,0.15198 0.23168,0.19179 0.0726,0.0398 0.141126,0.0588 0.244561,0.0391 0.103436,-0.0197 0.242395,-0.0781 0.380156,-0.19118 0.137761,-0.11309 0.275396,-0.28163 0.42279,-0.52452 0.147395,-0.24288 0.305485,-0.56155 0.483656,-0.98317 0.17817,-0.42162 0.377123,-0.94778 0.558754,-1.46594 0.18163,-0.51816 0.346358,-1.02947 0.468624,-1.41154 0.122267,-0.38206 0.202271,-0.63549 0.348058,-1.09054 0.145787,-0.45504 0.357931,-1.11349 0.634669,-1.92211 0.276737,-0.80861 0.618649,-1.76913 0.859306,-2.39594 0.240657,-0.6268 0.38028,-0.92055 0.549365,-1.2184 0.169086,-0.29784 0.368068,-0.60056 0.552634,-0.83063 0.184566,-0.23006 0.355209,-0.38818 0.512757,-0.49097 0.157549,-0.10278 0.302598,-0.15069 0.424017,-0.17227 0.121419,-0.0216 0.219954,-0.017 0.320369,0.003 0.100416,0.0203 0.203564,0.0566 0.334267,0.12944 0.130702,0.0729 0.286829,0.18078 0.458107,0.33809 0.171278,0.15731 0.356672,0.36336 0.559086,0.62413 0.202415,0.26077 0.421911,0.57633 0.613312,0.86256 0.191402,0.28623 0.354639,0.54302 0.794917,1.18676 0.440278,0.64375 1.157181,1.67385 1.591314,2.25461 0.434132,0.58076 0.585228,0.71182 0.729578,0.81844 0.14435,0.10663 0.281905,0.18879 0.415574,0.25189 0.133668,0.0631 0.26349,0.10717 0.392347,0.13546 0.128856,0.0283 0.257017,0.0409 0.387693,0.0383 0.130676,-0.003 0.264465,-0.0204 0.436117,-0.0692 0.171653,-0.0488 0.382325,-0.1289 0.593097,-0.237 0.210772,-0.10811 0.422763,-0.24473 0.643404,-0.40405 0.220642,-0.15932 0.450937,-0.34204 0.966832,-0.72744 0.515895,-0.3854 1.319748,-0.97523 1.839715,-1.31206 0.519967,-0.33683 0.757237,-0.42156 1.002523,-0.48119 0.245285,-0.0596 0.499387,-0.0944 0.727878,-0.1042 0.228491,-0.01 0.432222,0.005 0.618442,0.0322 0.18622,0.0271 0.355599,0.0663 0.523947,0.11342 0.168348,0.0471 0.33627,0.10219 1.020083,0.34866 0.683813,0.24647 1.886017,0.68521 2.679633,0.92372 0.793616,0.23851 1.1798,0.27726 1.616454,0.27142 0.436654,-0.006 0.924373,-0.0563 1.772158,-0.19528 0.847784,-0.13901 2.057351,-0.36685 3.018001,-0.48575 0.96065,-0.11889 1.6735,-0.12903 2.24608,-0.10377 0.57257,0.0253 1.00543,0.0859 1.4379,0.14655"
       id="path3000"
       inkscape:connector-curvature="0"
       inkscape:path-effect="#path-effect3002"
       inkscape:original-d="m 52.584921,116.67725 c 0.620364,-2.72007 1.240465,-5.43988 1.860302,-8.15942 0.132225,-0.64049 0.264215,-1.28086 0.395925,-1.92089 0.427768,-1.08649 0.855676,-2.17375 1.283118,-3.26023 0.11793,-0.18498 0.235667,-0.36981 0.353102,-0.55432 0.226724,-0.24961 0.45394,-0.49978 0.680514,-0.74927 0.294486,-0.17285 0.589359,-0.34581 0.883639,-0.51832 0.324406,-0.0513 0.649235,-0.1025 0.973455,-0.15335 0.353775,0.0688 0.707933,0.13791 1.061503,0.20725 0.260498,0.12409 0.521033,0.24858 0.781151,0.37327 0.272282,0.21572 0.544533,0.43188 0.816403,0.64822 0.405559,0.50309 0.810953,1.00658 1.216036,1.51026 0.222639,0.41031 0.444984,0.82082 0.66708,1.23163 0.249296,0.5947 0.498216,1.18939 0.746927,1.78449 0.34829,1.14427 0.696164,2.2883 1.043847,3.43286 0.281414,1.25213 0.562478,2.50416 0.843323,3.75664 0.26136,1.3982 0.52238,2.79622 0.783172,4.19473 0.171227,1.02453 0.342138,2.04903 0.512812,3.07393 0.217361,1.33484 0.436259,2.68064 0.65399,4.02136 0.186711,1.10954 0.373099,2.21898 0.559252,3.32886 0.250624,1.36766 0.500888,2.73506 0.750938,4.10299 0.195416,0.84085 0.390506,1.68172 0.585364,2.52297 0.171984,0.51028 0.343625,1.0206 0.515038,1.53129 0.100483,0.20651 0.200638,0.41316 0.300558,0.62013 0.08859,0.12176 0.176829,0.24366 0.264846,0.36589 0.07691,0.0604 0.15349,0.12102 0.229838,0.18194 0.06871,0.0187 0.137226,0.0377 0.205441,0.0569 0.138515,-0.0584 0.277484,-0.11679 0.41583,-0.1748 0.137263,-0.16802 0.274891,-0.33657 0.411943,-0.50446 0.157816,-0.31785 0.315907,-0.63652 0.473466,-0.95439 0.198819,-0.52537 0.397772,-1.05153 0.59626,-1.5769 0.164793,-0.51095 0.32952,-1.02226 0.493882,-1.533 0.08017,-0.25339 0.160176,-0.50682 0.239868,-0.75984 0.211879,-0.65707 0.424024,-1.31552 0.635641,-1.97289 0.341846,-0.95986 0.683757,-1.92038 1.025239,-2.88017 0.139795,-0.29382 0.279416,-0.58757 0.418727,-0.88095 0.198813,-0.30232 0.397793,-0.60504 0.596294,-0.90716 0.170561,-0.15806 0.341204,-0.31618 0.51141,-0.47388 0.144852,-0.048 0.289904,-0.0959 0.434462,-0.1435 0.09835,0.004 0.196866,0.009 0.294902,0.0137 0.102896,0.0358 0.206057,0.072 0.308692,0.10844 0.158797,0.10944 0.314986,0.21726 0.472083,0.32629 0.185525,0.20564 0.370919,0.41169 0.555984,0.61793 0.219792,0.31534 0.439291,0.6309 0.658538,0.94676 0.16356,0.25661 0.326794,0.5134 0.489796,0.7705 0.71755,1.03038 1.434452,2.06048 2.151282,3.09112 0.151376,0.13081 0.302472,0.26187 0.453311,0.3932 0.137795,0.0819 0.275362,0.16404 0.412647,0.24647 0.12996,0.0438 0.259807,0.0878 0.389313,0.13217 0.128111,0.0123 0.25627,0.0249 0.384008,0.0377 0.133559,-0.018 0.267348,-0.0358 0.400627,-0.0533 0.210005,-0.08 0.420674,-0.16011 0.630613,-0.23977 0.211614,-0.13648 0.423606,-0.2731 0.635011,-0.40925 0.229893,-0.18246 0.460189,-0.36518 0.68989,-0.54737 0.802084,-0.58861 1.605936,-1.17845 2.40851,-1.76728 0.23735,-0.0849 0.47461,-0.16966 0.711517,-0.25409 0.253688,-0.0349 0.507794,-0.0696 0.761294,-0.10406 0.203528,0.0147 0.407265,0.0296 0.610502,0.0449 0.169246,0.0389 0.338635,0.0781 0.507556,0.1176 0.167804,0.0547 0.335724,0.10981 0.503192,0.16512 1.200169,0.43763 2.402372,0.87637 3.603159,1.31495 0.386355,0.0385 0.772544,0.0772 1.158418,0.11623 0.487383,-0.0506 0.975098,-0.10107 1.462248,-0.15121 1.208403,-0.22785 2.41797,-0.45569 3.62656,-0.68314 0.71275,-0.0104 1.4256,-0.0206 2.13799,-0.0304 0.4328,0.0604 0.86566,0.12103 1.29809,0.18194" />
  </g>
  <g
     inkscape:groupmode="layer"
     id="layer3"
     inkscape:label="kringel"
     style="stroke-linecap:butt;stroke-linejoin:round"
     transform="translate(4.8532962e-6)"
     sodipodi:insensitive="true">
    <ellipse
       style="opacity:0.15;fill:#00549f;fill-opacity:1;fill-rule:nonzero;stroke:none;stroke-width:1.49982667;stroke-linecap:square;stroke-linejoin:round;stroke-miterlimit:4;stroke-dasharray:none;stroke-opacity:1;paint-order:stroke markers fill"
       id="path1652"
       cx="67.210365"
       cy="49.55434"
       rx="8.9491396"
       ry="8.545476" />
    <ellipse
       style="opacity:0.15;fill:#00549f;fill-opacity:1;fill-rule:nonzero;stroke:none;stroke-width:1.49704278;stroke-linecap:square;stroke-linejoin:round;stroke-miterlimit:4;stroke-dasharray:none;stroke-opacity:1;paint-order:stroke markers fill"
       id="path1654"
       cx="104.12398"
       cy="59.155869"
       rx="9.1876955"
       ry="8.7350845" />
    <ellipse
       style="opacity:0.15;fill:#00549f;fill-opacity:1;fill-rule:nonzero;stroke:none;stroke-width:1.49982667;stroke-linecap:square;stroke-linejoin:round;stroke-miterlimit:4;stroke-dasharray:none;stroke-opacity:1;paint-order:stroke markers fill"
       id="path1652-5"
       cx="34.766869"
       cy="75.09436"
       rx="8.9491396"
       ry="8.545476" />
    <ellipse
       style="opacity:0.15;fill:#00549f;fill-opacity:1;fill-rule:nonzero;stroke:none;stroke-width:1.49982667;stroke-linecap:square;stroke-linejoin:round;stroke-miterlimit:4;stroke-dasharray:none;stroke-opacity:1;paint-order:stroke markers fill"
       id="path1652-3"
       cx="129.77319"
       cy="89.28965"
       rx="8.9491396"
       ry="8.545476" />
    <path
       style="fill:#e96088;fill-opacity:1;stroke:#00549f;stroke-width:1.76388884;stroke-linecap:butt;stroke-linejoin:miter;stroke-miterlimit:4;stroke-dasharray:none;stroke-opacity:1"
       d="M 49.69255,96.889507 C 46.956162,92.9617 44.219809,89.033945 41.483495,85.106244"
       id="path1758"
       inkscape:connector-curvature="0"
       inkscape:path-effect="#path-effect1760"
       inkscape:original-d="M 49.69255,96.889507 C 46.956464,92.96149 44.220112,89.033734 41.483495,85.106244" />
    <path
       style="fill:none;stroke:#00549f;stroke-width:1.9402777;stroke-linecap:butt;stroke-linejoin:miter;stroke-miterlimit:4;stroke-dasharray:none;stroke-opacity:1"
       d="M 68.94442,90.484117 C 68.425661,80.803167 67.788368,68.910177 67.210362,58.123584"
       id="path1762"
       inkscape:connector-curvature="0"
       inkscape:path-effect="#path-effect1764"
       inkscape:original-d="M 68.94442,90.484117 C 68.366666,80.806328 67.788646,68.910162 67.210362,58.123584" />
    <path
       style="fill:#00549f;fill-opacity:1;stroke:#00549f;stroke-width:1.9402777;stroke-linecap:butt;stroke-linejoin:miter;stroke-miterlimit:4;stroke-dasharray:none;stroke-opacity:1"
       d="M 93.251473,92.495879 C 95.450579,85.046442 97.649931,77.596176 99.84902,70.146798"
       id="path1766"
       inkscape:connector-curvature="0"
       inkscape:path-effect="#path-effect1768"
       inkscape:original-d="m 93.251473,92.495879 c 2.21212,-7.445595 4.398629,-14.899653 6.597547,-22.349081" />
    <path
       style="fill:none;stroke:#00549f;stroke-width:1.76388884;stroke-linecap:butt;stroke-linejoin:miter;stroke-miterlimit:4;stroke-dasharray:none;stroke-opacity:1"
       d="m 120.77344,97.587591 c -2.90619,2.363516 -5.81266,4.727269 -8.71943,7.091259"
       id="path1770"
       inkscape:connector-curvature="0"
       inkscape:path-effect="#path-effect1772"
       inkscape:original-d="m 120.77344,97.587591 c -2.90621,2.363486 -5.81269,4.727239 -8.71943,7.091259" />
  </g>
  <g
     inkscape:groupmode="layer"
     id="layer2"
     inkscape:label="logo"
     transform="translate(-239.7063,10.906828)"
     style="display:inline;stroke-linecap:butt;stroke-linejoin:round"
     sodipodi:insensitive="true">
    <path
       style="opacity:1;fill:#00549f;fill-opacity:1;fill-rule:nonzero;stroke:none;stroke-width:49.01657104;stroke-linecap:round;stroke-linejoin:miter;stroke-miterlimit:4;stroke-dasharray:none;stroke-opacity:1;paint-order:stroke markers fill"
       d="m 1236.6855,-41.222656 a 330.70866,330.70866 0 0 0 -330.70894,330.707036 330.70866,330.70866 0 0 0 330.70894,330.70898 330.70866,330.70866 0 0 0 330.709,-330.70898 330.70866,330.70866 0 0 0 -1.1035,-22.04297 l -28.2461,4.13086 a 302.03602,283.46457 0 0 1 0.6758,17.91211 A 302.03602,283.46457 0 0 1 1236.6855,572.94922 302.03602,283.46457 0 0 1 934.64844,289.48438 302.03602,283.46457 0 0 1 1236.6855,6.0214844 302.03602,283.46457 0 0 1 1464.7734,104.19531 c 10.4697,-7.227913 21.3071,-14.703948 30.1289,-20.816404 A 330.70866,330.70866 0 0 0 1236.6855,-41.222656 Z"
       transform="scale(0.26458333)"
       id="path949"
       inkscape:connector-curvature="0" />
    <path
       style="opacity:1;fill:#00549f;fill-opacity:1;fill-rule:nonzero;stroke:none;stroke-width:37.79527664;stroke-linecap:round;stroke-linejoin:miter;stroke-miterlimit:4;stroke-dasharray:none;stroke-opacity:1;paint-order:stroke markers fill"
       d="M 556.28711,391.42969 A 150.71429,100.71429 0 0 0 405.57227,492.14258 150.71429,100.71429 0 0 0 556.28711,592.85742 150.71429,100.71429 0 0 0 707.00195,492.14258 150.71429,100.71429 0 0 0 556.28711,391.42969 Z m 0,10.51172 a 132.28348,90.202475 0 0 1 132.2832,90.20117 132.28348,90.202475 0 0 1 -132.2832,90.20312 132.28348,90.202475 0 0 1 -132.2832,-90.20312 132.28348,90.202475 0 0 1 132.2832,-90.20117 z"
       transform="matrix(0.26458333,0,0,0.26458333,168.95536,-24.462611)"
       id="path5459"
       inkscape:connector-curvature="0" />
    <ellipse
       style="opacity:0.5;fill:#ff0000;fill-opacity:0;fill-rule:nonzero;stroke:none;stroke-width:10;stroke-linecap:round;stroke-linejoin:miter;stroke-miterlimit:4;stroke-dasharray:none;stroke-opacity:1;paint-order:stroke markers fill"
       id="path5605"
       cx="222.25"
       cy="5.3975062"
       rx="53.294643"
       ry="29.860117" />
    <path
       style="opacity:1;fill:#00549f;fill-opacity:1;fill-rule:nonzero;stroke:none;stroke-width:23.93139648;stroke-linecap:round;stroke-linejoin:miter;stroke-miterlimit:4;stroke-dasharray:none;stroke-opacity:1;paint-order:stroke markers fill"
       d="M 1160,101.19336 A 47.244094,44.920603 0 0 0 1112.7559,146.11523 47.244094,44.920603 0 0 0 1160,191.03516 47.244094,44.920603 0 0 0 1207.2441,146.11523 47.244094,44.920603 0 0 0 1160,101.19336 Z m 0,12.57812 a 34.015748,32.342835 0 0 1 34.0156,32.34375 A 34.015748,32.342835 0 0 1 1160,178.45703 34.015748,32.342835 0 0 1 1125.9844,146.11523 34.015748,32.342835 0 0 1 1160,113.77148 Z"
       transform="scale(0.26458333)"
       id="path5607-6"
       inkscape:connector-curvature="0" />
    <text
       xml:space="preserve"
       style="font-style:normal;font-weight:normal;font-size:11.57941151px;line-height:1.25;font-family:sans-serif;letter-spacing:0px;word-spacing:0px;fill:#00549f;fill-opacity:1;stroke:none;stroke-width:0.28948528;stroke-linecap:butt;stroke-linejoin:round"
       x="373.02008"
       y="59.403522"
       id="text5683"><tspan
         sodipodi:role="line"
         id="tspan5681"
         x="373.02008"
         y="59.403522"
         style="font-style:normal;font-variant:normal;font-weight:bold;font-stretch:condensed;font-size:30.87843132px;font-family:'Open Sans Condensed';-inkscape-font-specification:'Open Sans Condensed, Bold Condensed';font-variant-ligatures:normal;font-variant-caps:normal;font-variant-numeric:normal;font-feature-settings:normal;text-align:start;writing-mode:lr-tb;text-anchor:start;fill:#00549f;fill-opacity:1;stroke-width:0.28948528;stroke-linecap:butt;stroke-linejoin:round">SLEW</tspan></text>
    <flowRoot
       xml:space="preserve"
       id="flowRoot5685"
       style="font-style:normal;font-weight:normal;font-size:40px;line-height:1.25;font-family:sans-serif;letter-spacing:0px;word-spacing:0px;fill:#000000;fill-opacity:1;stroke:none;stroke-linecap:butt;stroke-linejoin:round"><flowRegion
         id="flowRegion5687"
         style="stroke-linecap:butt;stroke-linejoin:round"><rect
           id="rect5689"
           width="89.90358"
           height="80.812202"
           x="1514.2186"
           y="91.988716"
           style="stroke-linecap:butt;stroke-linejoin:round" /></flowRegion><flowPara
         id="flowPara5691"
         style="stroke-linecap:butt;stroke-linejoin:round" /></flowRoot>    <path
       transform="translate(239.7063,-10.906828)"
       style="display:inline;opacity:0.15;fill:#00549f;fill-opacity:1;fill-rule:nonzero;stroke:none;stroke-width:0.98501724;stroke-linecap:square;stroke-linejoin:round;stroke-miterlimit:4;stroke-dasharray:none;stroke-opacity:1;paint-order:stroke markers fill"
       inkscape:transform-center-x="0.88475427"
       inkscape:transform-center-y="-0.19661715"
       d="M 111.43325,116.69093 A 35.141579,23.897392 0 0 1 76.291672,140.58833 35.141579,23.897392 0 0 1 41.150093,116.69093 35.141579,23.897392 0 0 1 76.291672,92.793541 35.141579,23.897392 0 0 1 111.43325,116.69093 Z"
       id="path3004"
       inkscape:connector-curvature="0" />
    <path
       style="display:inline;opacity:1;fill:#00549f;fill-opacity:1;fill-rule:nonzero;stroke:none;stroke-width:6.33184814;stroke-linecap:round;stroke-linejoin:miter;stroke-miterlimit:4;stroke-dasharray:none;stroke-opacity:1;paint-order:stroke markers fill"
       d="m 343.83028,36.185995 a 12.499999,11.885242 0 0 0 -12.5,11.885578 12.499999,11.885242 0 0 0 12.5,11.885063 12.499999,11.885242 0 0 0 12.5,-11.885063 12.499999,11.885242 0 0 0 -12.5,-11.885578 z m 0,3.327961 a 8.9999994,8.5573745 0 0 1 8.99996,8.557617 8.9999994,8.5573745 0 0 1 -8.99996,8.5571 8.9999994,8.5573745 0 0 1 -8.99996,-8.5571 8.9999994,8.5573745 0 0 1 8.99996,-8.557617 z"
       id="path5607-6-3"
       inkscape:connector-curvature="0" />
    <path
       style="display:inline;opacity:1;fill:#00549f;fill-opacity:1;fill-rule:nonzero;stroke:none;stroke-width:6.33184814;stroke-linecap:round;stroke-linejoin:miter;stroke-miterlimit:4;stroke-dasharray:none;stroke-opacity:1;paint-order:stroke markers fill"
       d="m 274.47317,52.290334 a 12.499999,11.885242 0 0 0 -12.5,11.885577 12.499999,11.885242 0 0 0 12.5,11.885064 12.499999,11.885242 0 0 0 12.5,-11.885064 12.499999,11.885242 0 0 0 -12.5,-11.885577 z m 0,3.32796 a 8.9999994,8.5573745 0 0 1 8.99996,8.557617 8.9999994,8.5573745 0 0 1 -8.99996,8.557101 8.9999994,8.5573745 0 0 1 -8.99996,-8.557101 8.9999994,8.5573745 0 0 1 8.99996,-8.557617 z"
       id="path5607-6-6"
       inkscape:connector-curvature="0" />
    <path
       style="display:inline;opacity:1;fill:#00549f;fill-opacity:1;fill-rule:nonzero;stroke:none;stroke-width:6.33184814;stroke-linecap:round;stroke-linejoin:miter;stroke-miterlimit:4;stroke-dasharray:none;stroke-opacity:1;paint-order:stroke markers fill"
       d="m 369.42868,66.497243 a 12.499999,11.885242 0 0 0 -12.5,11.885577 12.499999,11.885242 0 0 0 12.5,11.885064 12.499999,11.885242 0 0 0 12.5,-11.885064 12.499999,11.885242 0 0 0 -12.5,-11.885577 z m 0,3.32796 a 8.9999994,8.5573745 0 0 1 8.99996,8.557617 8.9999994,8.5573745 0 0 1 -8.99996,8.557101 8.9999994,8.5573745 0 0 1 -8.99996,-8.557101 8.9999994,8.5573745 0 0 1 8.99996,-8.557617 z"
       id="path5607-6-7"
       inkscape:connector-curvature="0" />
  </g>
</svg>
