<?xml version="1.0" encoding="UTF-8"?>
<svg id="logo" xmlns="http://www.w3.org/2000/svg" viewBox="0 0 560 133.62">
  <defs>
    <style>
      .cls-1 {
        fill: #96f;
      }

      .cls-2 {
        fill: #18e5b0;
      }
    </style>
  </defs>
  <g>
    <rect x="21.13" y="104.21" width="52.08" height="9.81"/>
    <rect x="21.13" y="123.81" width="52.08" height="9.81"/>
    <g>
      <polygon class="cls-2" points="0 0 0 52.08 28.53 52.08 20.16 60.44 27.1 67.37 47.3 47.17 27.1 26.97 20.16 33.9 28.53 42.27 9.81 42.27 9.81 9.81 84.53 9.81 84.53 30.44 94.34 30.44 94.34 0 0 0"/>
      <polygon class="cls-1" points="66.49 42.27 74.85 33.9 67.92 26.97 47.72 47.17 67.92 67.37 74.85 60.44 66.49 52.08 84.53 52.08 84.53 84.53 9.81 84.53 9.81 63.91 0 63.91 0 94.34 94.34 94.34 94.34 42.27 66.49 42.27"/>
    </g>
  </g>
  <g>
    <path d="M146.43,94.4V28.03h42.87v10.42h-31.76v16.36h26.23v10.42h-26.23v18.76h31.76v10.42h-42.87Z"/>
    <path d="M242.05,61.93c-.2-1.92-.64-3.96-1.31-6.11-.68-2.15-1.72-4.18-3.13-6.08s-3.32-3.47-5.72-4.7c-2.4-1.23-5.44-1.84-9.13-1.84-4.67,0-8.6,1.02-11.8,3.06-1.72,1.1-3.2,2.42-4.47,3.93v-5.56h-9.91v49.78h11.25v-25.58c0-3.04,.34-5.54,1.02-7.49s1.57-3.49,2.7-4.61c1.12-1.12,2.37-1.91,3.76-2.38,1.38-.46,2.78-.69,4.19-.69,2.64,0,4.74,.57,6.29,1.71,1.55,1.14,2.72,2.59,3.5,4.36,.78,1.77,1.28,3.6,1.5,5.51,.21,1.91,.32,3.64,.32,5.21v23.97h11.25v-27.79c0-1.2-.1-2.76-.3-4.68v-.02Z"/>
    <path d="M289.59,72.6h5.44c.43-5.96-.23-11.14-1.98-15.53s-4.43-7.8-8.04-10.21c-3.61-2.41-8-3.62-13.16-3.62-4.89,0-9.19,1.11-12.91,3.32-3.72,2.21-6.62,5.32-8.71,9.33s-3.13,8.74-3.13,14.17c0,5.04,1.07,9.49,3.2,13.37,2.13,3.87,5.11,6.9,8.92,9.08s8.23,3.27,13.27,3.27,9.18-1.25,13.16-3.73c3.98-2.49,6.92-5.98,8.83-10.46l-10.97-3.32c-1.08,2.3-2.6,4.06-4.59,5.28-1.98,1.21-4.34,1.82-7.07,1.82-4.24,0-7.47-1.38-9.68-4.15-1.73-2.17-2.76-5.06-3.14-8.62h30.56Zm-17.28-19.64c4.03,0,6.98,1.25,8.85,3.74,1.33,1.76,2.19,4.28,2.59,7.51h-24.47c.51-2.88,1.47-5.22,2.89-7.03,2.21-2.81,5.59-4.22,10.14-4.22h0Z"/>
    <path d="M325.13,44.41c-1.57,.11-3.1,.4-4.59,.88s-2.85,1.13-4.08,1.96c-1.45,.89-2.68,2.02-3.71,3.39-.47,.62-.88,1.29-1.27,1.97v-7.99h-9.82v49.78h11.15v-25.3c0-1.91,.23-3.68,.69-5.32s1.18-3.11,2.14-4.4c.97-1.29,2.22-2.35,3.76-3.18,1.54-.92,3.26-1.46,5.19-1.61,1.92-.15,3.62-.02,5.09,.41v-10.37c-1.47-.25-3-.32-4.56-.21h0Z"/>
    <path d="M353.98,95.78c-6.15,0-11.14-1.38-14.98-4.15-3.84-2.77-6.18-6.65-7.01-11.66l11.34-1.75c.58,2.46,1.87,4.39,3.87,5.81s4.52,2.12,7.56,2.12c2.67,0,4.74-.53,6.2-1.59,1.46-1.06,2.19-2.51,2.19-4.36,0-1.14-.27-2.05-.81-2.74s-1.71-1.36-3.53-2c-1.81-.65-4.59-1.46-8.34-2.44-4.18-1.11-7.5-2.3-9.96-3.57s-4.23-2.79-5.3-4.54c-1.08-1.75-1.61-3.87-1.61-6.36,0-3.1,.81-5.81,2.44-8.11s3.9-4.08,6.82-5.32,6.36-1.87,10.33-1.87,7.31,.6,10.3,1.8c3,1.2,5.41,2.9,7.26,5.12,1.84,2.21,2.98,4.81,3.41,7.79l-11.34,2.03c-.28-2.12-1.24-3.79-2.88-5.02-1.64-1.23-3.83-1.92-6.57-2.07-2.61-.15-4.72,.24-6.32,1.18s-2.4,2.25-2.4,3.94c0,.95,.32,1.77,.97,2.44s1.94,1.35,3.9,2.03c1.95,.68,4.86,1.51,8.73,2.49,3.96,1.01,7.13,2.17,9.52,3.48,2.38,1.31,4.1,2.87,5.16,4.68s1.59,4.01,1.59,6.59c0,5.01-1.82,8.94-5.46,11.8-3.64,2.86-8.67,4.29-15.1,4.29l.02-.04Z"/>
    <path d="M426.37,61.93c-.2-1.92-.64-3.96-1.31-6.11-.68-2.15-1.72-4.18-3.13-6.08s-3.32-3.47-5.72-4.7c-2.4-1.23-5.44-1.84-9.13-1.84-4.67,0-8.6,1.02-11.8,3.06-1.72,1.1-3.2,2.42-4.47,3.93V28.03h-9.91V94.4h11.25v-25.58c0-3.04,.34-5.54,1.02-7.49s1.57-3.49,2.7-4.61c1.12-1.12,2.37-1.91,3.76-2.38,1.38-.46,2.78-.69,4.19-.69,2.64,0,4.74,.57,6.29,1.71,1.55,1.14,2.72,2.59,3.5,4.36,.78,1.77,1.28,3.6,1.5,5.51,.21,1.91,.32,3.64,.32,5.21v23.97h11.25v-27.79c0-1.2-.1-2.76-.3-4.68h-.01Z"/>
    <path d="M475.8,57.87c-.19-1.83-.72-3.62-1.61-5.37-1.63-3.29-4.13-5.65-7.49-7.1s-7.26-2.17-11.68-2.17c-5.87,0-10.53,1.28-13.99,3.83s-5.8,5.93-7.03,10.14l10.14,3.18c.83-2.55,2.29-4.35,4.38-5.39s4.26-1.57,6.5-1.57c3.72,0,6.36,.81,7.93,2.44,1.3,1.35,2.02,3.36,2.22,5.95-1.99,.29-3.95,.58-5.84,.85-3.15,.45-6.07,.93-8.76,1.45s-5.03,1.11-7.03,1.75c-2.64,.89-4.79,2.04-6.45,3.43s-2.89,3.06-3.69,4.98c-.8,1.92-1.2,4.08-1.2,6.48,0,2.74,.64,5.24,1.91,7.51,1.27,2.28,3.16,4.1,5.65,5.46,2.49,1.37,5.53,2.05,9.13,2.05,4.49,0,8.23-.84,11.22-2.51,2.31-1.29,4.39-3.16,6.25-5.59v6.72h9.72v-30.56c0-2.15-.09-4.14-.28-5.97h0Zm-11.85,20.82c-.37,1.14-1.08,2.35-2.14,3.64-1.06,1.29-2.48,2.38-4.26,3.27s-3.93,1.34-6.45,1.34c-1.75,0-3.22-.28-4.4-.83s-2.08-1.3-2.69-2.24c-.62-.94-.92-2.02-.92-3.25,0-1.08,.24-2.01,.71-2.81s1.16-1.51,2.05-2.12,1.98-1.15,3.27-1.61c1.32-.43,2.84-.82,4.56-1.18,1.72-.35,3.78-.73,6.18-1.13,1.53-.26,3.27-.54,5.19-.84-.02,.85-.05,1.8-.09,2.89-.08,1.83-.41,3.45-.99,4.86h-.02Z"/>
    <path d="M505.99,44.41c-1.57,.11-3.1,.4-4.59,.88s-2.85,1.13-4.08,1.96c-1.45,.89-2.68,2.02-3.71,3.39-.47,.62-.88,1.29-1.27,1.97v-7.99h-9.82v49.78h11.15v-25.3c0-1.91,.23-3.68,.69-5.32s1.18-3.11,2.14-4.4c.97-1.29,2.22-2.35,3.76-3.18,1.54-.92,3.26-1.46,5.19-1.61,1.92-.15,3.62-.02,5.09,.41v-10.37c-1.47-.25-3-.32-4.56-.21h.01Z"/>
    <path d="M554.43,72.6h5.44c.43-5.96-.23-11.14-1.98-15.53s-4.43-7.8-8.04-10.21c-3.61-2.41-8-3.62-13.16-3.62-4.89,0-9.19,1.11-12.91,3.32-3.72,2.21-6.62,5.32-8.71,9.33s-3.13,8.74-3.13,14.17c0,5.04,1.07,9.49,3.2,13.37,2.13,3.87,5.11,6.9,8.92,9.08s8.23,3.27,13.27,3.27,9.18-1.25,13.16-3.73c3.98-2.49,6.92-5.98,8.83-10.46l-10.97-3.32c-1.08,2.3-2.6,4.06-4.59,5.28-1.98,1.21-4.34,1.82-7.07,1.82-4.24,0-7.47-1.38-9.68-4.15-1.73-2.17-2.76-5.06-3.14-8.62h30.56Zm-17.28-19.64c4.03,0,6.98,1.25,8.85,3.74,1.33,1.76,2.19,4.28,2.59,7.51h-24.47c.51-2.88,1.47-5.22,2.89-7.03,2.21-2.81,5.59-4.22,10.14-4.22h0Z"/>
  </g>
</svg>