<?xml version="1.0" encoding="UTF-8"?>
<svg id="logo" xmlns="http://www.w3.org/2000/svg" viewBox="0 0 77.66 110">
  <defs>
    <style>
      .cls-1 {
        fill: #96f;
      }

      .cls-2 {
        fill: #18e5b0;
      }
    </style>
  </defs>
  <rect x="17.39" y="85.79" width="42.87" height="8.07"/>
  <rect x="17.39" y="101.93" width="42.87" height="8.07"/>
  <g>
    <polygon class="cls-2" points="0 0 0 42.87 23.48 42.87 16.6 49.76 22.31 55.46 38.94 38.83 22.31 22.2 16.6 27.91 23.49 34.8 8.07 34.8 8.07 8.07 69.59 8.07 69.59 25.05 77.66 25.05 77.66 0 0 0"/>
    <polygon class="cls-1" points="54.74 34.8 61.62 27.91 55.91 22.2 39.28 38.83 55.91 55.46 61.62 49.76 54.74 42.87 69.59 42.87 69.59 69.59 8.07 69.59 8.07 52.61 0 52.61 0 77.67 77.66 77.67 77.66 34.8 54.74 34.8"/>
  </g>
</svg>