<?xml version="1.0" encoding="UTF-8" standalone="no"?>
<!-- Created with Inkscape (http://www.inkscape.org/) -->

<svg
   version="1.1"
   id="svg2"
   width="701.40002"
   height="130.14667"
   viewBox="0 0 701.40002 130.14667"
   sodipodi:docname="Logo_OPAL-RT_Horizontal_Color.eps"
   xmlns:inkscape="http://www.inkscape.org/namespaces/inkscape"
   xmlns:sodipodi="http://sodipodi.sourceforge.net/DTD/sodipodi-0.dtd"
   xmlns="http://www.w3.org/2000/svg"
   xmlns:svg="http://www.w3.org/2000/svg">
  <defs
     id="defs6" />
  <sodipodi:namedview
     id="namedview4"
     pagecolor="#ffffff"
     bordercolor="#000000"
     borderopacity="0.25"
     inkscape:showpageshadow="2"
     inkscape:pageopacity="0.0"
     inkscape:pagecheckerboard="0"
     inkscape:deskcolor="#d1d1d1" />
  <g
     id="g8"
     inkscape:groupmode="layer"
     inkscape:label="ink_ext_XXXXXX"
     transform="matrix(1.3333333,0,0,-1.3333333,0,130.14667)">
    <g
       id="g10"
       transform="scale(0.1)">
      <path
         d="M 900.691,359.191 0,200.41 v -67.051 l 935.426,164.922 c -10.84,20.754 -22.336,41.114 -34.735,60.91"
         style="fill:#193050;fill-opacity:1;fill-rule:nonzero;stroke:none"
         id="path12" />
      <path
         d="M 951.465,266.32 0,98.5469 V 0 h 1029.37 c -11.92,94.2383 -38.722,183.594 -77.905,266.32"
         style="fill:#193050;fill-opacity:1;fill-rule:nonzero;stroke:none"
         id="path14" />
      <path
         d="M 0,819.387 V 235.195 L 880.18,390.391 C 695.293,660.117 366.098,831.508 0,819.387"
         style="fill:#193050;fill-opacity:1;fill-rule:nonzero;stroke:none"
         id="path16" />
      <path
         d="M 0,976.094 V 907.367 C 400.563,906.703 748.902,701.539 929.246,399.043 l 90.414,15.937 c -3.72,6.719 -7.36,13.477 -11.25,20.051 l 250.52,4.785 -213.73,-73.195 c -2.76,5.567 -5.65,11.035 -8.53,16.594 l -89.529,-15.832 c 10.996,-20.137 21.332,-40.664 30.839,-61.59 l 88.41,15.566 c -2.76,6.289 -5.35,12.657 -8.23,18.836 l 244.41,4.715 -215.77,-73.933 c -2.28,6.035 -4.68,11.964 -7.04,17.949 L 992.051,273.457 C 1027.26,187.434 1049.78,95.6172 1057.38,0 H 1342.7 V 976.098 L 0,976.094"
         style="fill:#193050;fill-opacity:1;fill-rule:nonzero;stroke:none"
         id="path18" />
      <path
         d="M 1698.06,775.063 V 515.137 h 315.06 v 259.926 z m -95.6,-23.696 c 0,37.317 7.02,62.813 21.01,76.559 13.98,13.633 40.95,20.594 80.82,20.594 h 302.17 c 39.92,0 66.83,-6.961 80.81,-20.594 14,-13.746 21.02,-39.242 21.02,-76.559 V 535.078 c 0,-37.644 -7.02,-63.16 -21.02,-76.785 -13.98,-13.566 -40.89,-20.391 -80.81,-20.391 h -302.17 c -39.87,0 -66.84,6.825 -80.82,20.391 -13.99,13.625 -21.01,39.141 -21.01,76.785 v 216.289"
         style="fill:#231f20;fill-opacity:1;fill-rule:nonzero;stroke:none"
         id="path20" />
      <path
         d="M 2577.42,777.484 H 2362.58 V 668.66 h 214.84 c 16.62,0 27.87,2.379 33.98,7.106 6.1,4.8 9.1,13.445 9.1,25.449 v 43.961 c 0,11.949 -3,20.258 -9.1,25.027 -6.11,4.86 -17.36,7.281 -33.98,7.281 M 2268.66,437.902 V 848.52 h 351.08 c 32.67,0 56.3,-6.262 70.9,-18.797 14.68,-12.7 21.99,-32.95 21.99,-60.852 v -91.785 c 0,-27.672 -7.31,-47.711 -21.99,-60.231 -14.6,-12.601 -38.23,-18.953 -70.9,-18.953 h -257.16 v -160 h -93.92"
         style="fill:#231f20;fill-opacity:1;fill-rule:nonzero;stroke:none"
         id="path22" />
      <path
         d="m 2937.16,601.777 h 179.78 l -88.46,167.094 z M 2753.37,437.902 2985.69,848.52 h 92.09 l 235.39,-410.618 h -107.18 l -49.33,89.735 h -260.28 l -47.82,-89.735 h -95.19"
         style="fill:#231f20;fill-opacity:1;fill-rule:nonzero;stroke:none"
         id="path24" />
      <path
         d="M 3462.22,437.902 V 848.52 h 95.5 V 515.137 h 308.1 v -77.235 h -403.6"
         style="fill:#231f20;fill-opacity:1;fill-rule:nonzero;stroke:none"
         id="path26" />
      <path
         d="m 3936.79,690.836 v -81.984 h 126.71 v 81.984 h -126.71"
         style="fill:#231f20;fill-opacity:1;fill-rule:nonzero;stroke:none"
         id="path28" />
      <path
         d="m 4529.14,777.484 h -214.8 V 663.313 h 214.8 c 16.69,0 27.93,2.375 34.06,7.101 6.07,4.742 9.17,13.242 9.17,25.41 v 49.352 c 0,11.949 -3.1,20.258 -9.17,25.027 -6.13,4.86 -17.37,7.281 -34.06,7.281 M 4220.37,437.902 V 848.52 h 351.16 c 32.63,0 56.33,-6.262 70.96,-18.797 14.56,-12.746 21.89,-33.004 21.89,-60.852 v -96.32 c 0,-27.746 -7.33,-47.832 -21.89,-60.621 -14.63,-12.676 -38.33,-19.028 -70.96,-19.028 h -53.66 l 189.67,-155 h -137.23 l -165.41,155 h -90.56 v -155 h -93.97"
         style="fill:#231f20;fill-opacity:1;fill-rule:nonzero;stroke:none"
         id="path30" />
      <path
         d="M 5071.43,775.137 V 437.902 h -95.66 v 337.235 h -188.42 v 73.383 h 473.15 v -73.383 h -189.07"
         style="fill:#231f20;fill-opacity:1;fill-rule:nonzero;stroke:none"
         id="path32" />
      <path
         d="m 1745.33,284.016 v -168.43 h -47.67 v 168.43 h -94.15 v 36.543 h 236.36 v -36.543 h -94.54"
         style="fill:#231f20;fill-opacity:1;fill-rule:nonzero;stroke:none"
         id="path34" />
      <path
         d="m 1898.26,115.586 v 204.973 h 209.75 v -34.954 h -162.07 v -45.683 h 94.54 v -34.961 h -94.54 V 154.113 H 2110 v -38.527 h -211.74"
         style="fill:#231f20;fill-opacity:1;fill-rule:nonzero;stroke:none"
         id="path36" />
      <path
         d="M 2370.19,284.016 H 2241.48 V 154.113 h 128.71 v 44.102 l 47.67,-9.934 v -24.226 c 0,-19.075 -3.57,-31.926 -10.72,-38.535 -7.15,-6.633 -20.53,-9.934 -40.12,-9.934 h -122.36 c -19.6,0 -32.97,3.301 -40.12,9.934 -7.15,6.609 -10.73,19.46 -10.73,38.535 V 272.09 c 0,19.07 3.58,31.926 10.73,38.535 7.15,6.633 20.52,9.934 40.12,9.934 h 122.36 c 19.59,0 32.97,-3.301 40.12,-9.934 7.15,-6.609 10.72,-19.465 10.72,-38.535 v -19.461 l -47.67,-7.539 v 38.926"
         style="fill:#231f20;fill-opacity:1;fill-rule:nonzero;stroke:none"
         id="path38" />
      <path
         d="m 2516.38,115.586 v 204.973 h 47.67 v -79.446 h 148.97 v 79.446 h 48.06 V 115.586 h -48.06 v 88.184 h -148.97 v -88.184 h -47.67"
         style="fill:#231f20;fill-opacity:1;fill-rule:nonzero;stroke:none"
         id="path40" />
      <path
         d="m 2865.56,115.586 v 204.973 h 32.57 l 144.21,-120.762 c 10.33,-8.742 18.13,-16.152 23.44,-22.246 -1.34,19.07 -2,30.847 -2,35.359 v 107.649 h 42.89 V 115.586 h -32.57 l -150.54,126.719 c -6.37,5.293 -12.06,10.859 -17.08,16.691 1.3,-13.254 1.98,-24.101 1.98,-32.59 v -110.82 h -42.9"
         style="fill:#231f20;fill-opacity:1;fill-rule:nonzero;stroke:none"
         id="path42" />
      <path
         d="m 3254.45,154.113 h 157.33 v 129.903 h -157.33 z m -47.66,117.977 c 0,19.07 3.57,31.926 10.73,38.535 7.15,6.633 20.52,9.934 40.13,9.934 h 150.95 c 19.59,0 32.96,-3.301 40.11,-9.934 7.15,-6.609 10.73,-19.465 10.73,-38.535 V 164.055 c 0,-19.075 -3.58,-31.926 -10.73,-38.535 -7.15,-6.633 -20.52,-9.934 -40.11,-9.934 h -150.95 c -19.61,0 -32.98,3.301 -40.13,9.934 -7.16,6.609 -10.73,19.46 -10.73,38.535 V 272.09"
         style="fill:#231f20;fill-opacity:1;fill-rule:nonzero;stroke:none"
         id="path44" />
      <path
         d="m 3559.95,115.586 v 204.973 h 47.67 V 154.113 h 153.72 v -38.527 h -201.39"
         style="fill:#231f20;fill-opacity:1;fill-rule:nonzero;stroke:none"
         id="path46" />
      <path
         d="m 3874.56,154.113 h 157.32 v 129.903 h -157.32 z m -47.67,117.977 c 0,19.07 3.59,31.926 10.74,38.535 7.15,6.633 20.51,9.934 40.12,9.934 h 150.96 c 19.59,0 32.96,-3.301 40.11,-9.934 7.15,-6.609 10.73,-19.465 10.73,-38.535 V 164.055 c 0,-19.075 -3.58,-31.926 -10.73,-38.535 -7.15,-6.633 -20.52,-9.934 -40.11,-9.934 h -150.96 c -19.61,0 -32.97,3.301 -40.12,9.934 -7.15,6.609 -10.74,19.46 -10.74,38.535 V 272.09"
         style="fill:#231f20;fill-opacity:1;fill-rule:nonzero;stroke:none"
         id="path48" />
      <path
         d="M 4372.31,284.016 H 4223.34 V 154.113 h 148.97 v 45.684 h -77.85 v 34.969 h 124.33 v -70.711 c 0,-19.075 -3.57,-31.926 -10.71,-38.535 -7.15,-6.633 -20.54,-9.934 -40.13,-9.934 h -141.42 c -19.61,0 -32.98,3.301 -40.12,9.934 -7.15,6.609 -10.74,19.46 -10.74,38.535 V 272.09 c 0,19.07 3.59,31.926 10.74,38.535 7.14,6.633 20.51,9.934 40.12,9.934 h 141.42 c 19.07,0 32.31,-3.243 39.72,-9.731 7.41,-6.5 11.12,-18.738 11.12,-36.746 v -4.754 l -46.48,-8.359 v 23.047"
         style="fill:#231f20;fill-opacity:1;fill-rule:nonzero;stroke:none"
         id="path50" />
      <path
         d="m 4519.7,115.586 v 204.973 h 47.67 V 115.586 h -47.67"
         style="fill:#231f20;fill-opacity:1;fill-rule:nonzero;stroke:none"
         id="path52" />
      <path
         d="m 4672.24,115.586 v 204.973 h 209.74 V 285.605 H 4719.9 v -45.683 h 94.54 v -34.961 h -94.54 v -50.848 h 164.07 v -38.527 h -211.73"
         style="fill:#231f20;fill-opacity:1;fill-rule:nonzero;stroke:none"
         id="path54" />
      <path
         d="m 5149.72,284.816 h -134.67 v -44.101 h 128.19 c 19.64,0 33.12,-3.313 40.41,-9.922 7.31,-6.633 10.95,-19.484 10.95,-38.535 v -28.203 c 0,-19.075 -3.64,-31.926 -10.92,-38.535 -7.28,-6.633 -20.72,-9.934 -40.32,-9.934 h -126.72 c -19.61,0 -33.06,3.301 -40.33,9.934 -7.29,6.609 -10.92,19.46 -10.92,38.535 v 5.547 l 42.11,8.75 v -24.239 h 145 v 46.875 h -127.93 c -19.59,0 -32.96,3.309 -40.11,9.93 -7.16,6.613 -10.73,19.465 -10.73,38.535 v 22.637 c 0,19.07 3.57,31.926 10.73,38.535 7.15,6.633 20.52,9.934 40.11,9.934 h 116.4 c 18.81,0 31.98,-3.176 39.53,-9.524 7.55,-6.355 11.33,-18.144 11.33,-35.359 v -4.367 l -42.11,-9.93 v 23.437"
         style="fill:#231f20;fill-opacity:1;fill-rule:nonzero;stroke:none"
         id="path56" />
    </g>
  </g>
</svg>
