<?xml version="1.0" encoding="UTF-8" standalone="no"?>
<!-- Created with Inkscape (http://www.inkscape.org/) -->

<svg
   xmlns:dc="http://purl.org/dc/elements/1.1/"
   xmlns:cc="http://creativecommons.org/ns#"
   xmlns:rdf="http://www.w3.org/1999/02/22-rdf-syntax-ns#"
   xmlns:svg="http://www.w3.org/2000/svg"
   xmlns="http://www.w3.org/2000/svg"
   xmlns:sodipodi="http://sodipodi.sourceforge.net/DTD/sodipodi-0.dtd"
   xmlns:inkscape="http://www.inkscape.org/namespaces/inkscape"
   width="325.77124"
   height="192.86552"
   id="svg2"
   version="1.1"
   inkscape:version="0.48.0 r9654"
   sodipodi:docname="Neues Dokument 1">
  <defs
     id="defs4">
    <clipPath
       id="clipPath3167"
       clipPathUnits="userSpaceOnUse">
      <path
         id="path3169"
         d="m 306.536,63.479 203.34,0 0,91.105 -203.34,0 0,-91.105 z"
         inkscape:connector-curvature="0" />
    </clipPath>
    <clipPath
       id="clipPath3143"
       clipPathUnits="userSpaceOnUse">
      <path
         id="path3145"
         d="m 0,595.28 841.89,0 L 841.89,0 0,0 0,595.28 z"
         inkscape:connector-curvature="0" />
    </clipPath>
    <clipPath
       id="clipPath3095"
       clipPathUnits="userSpaceOnUse">
      <path
         id="path3097"
         d="m 306.535,466.214 203.341,0 0,91.105 -203.341,0 0,-91.105 z"
         inkscape:connector-curvature="0" />
    </clipPath>
    <clipPath
       id="clipPath3071"
       clipPathUnits="userSpaceOnUse">
      <path
         id="path3073"
         d="m 0,595.28 841.89,0 L 841.89,0 0,0 0,595.28 z"
         inkscape:connector-curvature="0" />
    </clipPath>
    <clipPath
       id="clipPath3023"
       clipPathUnits="userSpaceOnUse">
      <path
         id="path3025"
         d="m 306.535,274.095 203.343,0 0,91.108 -203.343,0 0,-91.108 z"
         inkscape:connector-curvature="0" />
    </clipPath>
    <clipPath
       id="clipPath3011"
       clipPathUnits="userSpaceOnUse">
      <path
         id="path3013"
         d="m 0,595.28 841.89,0 L 841.89,0 0,0 0,595.28 z"
         inkscape:connector-curvature="0" />
    </clipPath>
  </defs>
  <sodipodi:namedview
     id="base"
     pagecolor="#ffffff"
     bordercolor="#666666"
     borderopacity="1.0"
     inkscape:pageopacity="0.0"
     inkscape:pageshadow="2"
     inkscape:zoom="0.35"
     inkscape:cx="255.74245"
     inkscape:cy="85.283582"
     inkscape:document-units="px"
     inkscape:current-layer="layer1"
     showgrid="false"
     fit-margin-top="0"
     fit-margin-left="0"
     fit-margin-right="0"
     fit-margin-bottom="0"
     inkscape:window-width="1364"
     inkscape:window-height="706"
     inkscape:window-x="-8"
     inkscape:window-y="-8"
     inkscape:window-maximized="1" />
  <metadata
     id="metadata7">
    <rdf:RDF>
      <cc:Work
         rdf:about="">
        <dc:format>image/svg+xml</dc:format>
        <dc:type
           rdf:resource="http://purl.org/dc/dcmitype/StillImage" />
        <dc:title></dc:title>
      </cc:Work>
    </rdf:RDF>
  </metadata>
  <g
     inkscape:label="Ebene 1"
     inkscape:groupmode="layer"
     id="layer1"
     transform="translate(-94.25755,-424.78024)">
    <g
       id="g3416"
       transform="translate(637.14286,-597.14286)">
      <g
         transform="matrix(1.25,0,0,-1.25,-870.78981,1241.1795)"
         id="g3139">
        <g
           clip-path="url(#clipPath3143)"
           id="g3141">
          <path
             id="path3147"
             style="fill:#2b2b2a;fill-opacity:1;fill-rule:nonzero;stroke:none"
             d="m 515.174,56.269 -10.599,0 0,11.477 10.599,0 0,-11.477 z"
             inkscape:connector-curvature="0" />
          <path
             id="path3149"
             style="fill:#2b2b2a;fill-opacity:1;fill-rule:nonzero;stroke:none"
             d="m 390.855,117.04 -10.6,0 0,11.478 10.6,0 0,-11.478 z"
             inkscape:connector-curvature="0" />
          <path
             id="path3151"
             style="fill:#2b2b2a;fill-opacity:1;fill-rule:nonzero;stroke:none"
             d="m 436.679,122.78 -10.602,0 0,11.477 10.602,0 0,-11.477 z"
             inkscape:connector-curvature="0" />
          <path
             id="path3153"
             style="fill:#2b2b2a;fill-opacity:1;fill-rule:nonzero;stroke:none"
             d="m 467.367,117.04 -10.602,0 0,11.478 10.602,0 0,-11.478 z"
             inkscape:connector-curvature="0" />
          <path
             id="path3155"
             style="fill:#2b2b2a;fill-opacity:1;fill-rule:nonzero;stroke:none"
             d="m 381.479,47.546 -10.602,0 0,11.477 10.602,0 0,-11.477 z"
             inkscape:connector-curvature="0" />
          <path
             id="path3157"
             style="fill:#2b2b2a;fill-opacity:1;fill-rule:nonzero;stroke:none"
             d="m 412.594,43.48 -10.602,0 0,11.477 10.602,0 0,-11.477 z"
             inkscape:connector-curvature="0" />
          <g
             transform="translate(336.6416,64.4297)"
             id="g3159">
            <path
               id="path3161"
               style="fill:#e2de00;fill-opacity:1;fill-rule:nonzero;stroke:none"
               d="m 0,0 c 0.119,1.233 -0.786,1.859 -2.231,1.431 -8.094,-2.408 -16.185,-4.809 -24.263,-7.267 -0.626,-0.19 -1.129,-0.786 -1.69,-1.194 0.457,-0.52 0.815,-1.218 1.385,-1.54 5.963,-3.381 11.962,-6.701 17.95,-10.041 2.075,-1.16 3.658,-0.464 4.309,1.887 0.308,1.111 0.64,2.211 0.941,3.325 C -2.401,-8.953 -1.212,-4.504 0,0 m -24.198,24.526 c 0.094,1.449 -0.65,1.936 -1.951,1.325 -8.461,-3.97 -16.917,-7.952 -25.356,-11.964 -1.514,-0.718 -1.512,-1.553 -0.068,-2.694 6.191,-4.887 12.387,-9.767 18.592,-14.639 1.661,-1.304 1.952,-1.196 2.442,0.857 1.166,4.912 2.323,9.833 3.475,14.751 0.976,4.169 1.934,8.344 2.866,12.364 m 166.13,2.735 c -1.423,0.124 -2.098,-0.881 -1.512,-2.331 2.292,-5.702 4.616,-11.391 6.899,-17.098 0.453,-1.131 0.73,-2.29 2.351,-2.305 0.408,-0.003 1.085,-0.673 1.164,-1.119 0.243,-1.392 1.255,-1.572 2.315,-1.801 5.504,-1.197 11,-2.414 16.512,-3.571 0.588,-0.121 1.529,-0.096 1.811,0.257 0.299,0.378 0.179,1.288 -0.045,1.852 -2.02,5.054 -4.057,10.099 -6.187,15.105 -0.814,1.918 -1.245,3.833 -3.598,5.126 -1.629,0.895 -3.207,1.806 -4.99,2.266 -4.895,1.257 -9.813,2.417 -14.72,3.619 m 14.09,-70.183 c 0.178,-0.134 0.356,-0.264 0.532,-0.395 9.066,4.022 18.164,7.981 27.164,12.149 1.142,0.529 1.945,1.968 1.121,3.7 -3.36,7.059 -6.636,14.16 -9.869,21.28 -0.578,1.273 -1.264,2.003 -2.819,1.679 -5.356,-12.761 -10.741,-25.587 -16.129,-38.413 m -32.978,98.787 c -0.082,0.119 -0.16,0.236 -0.244,0.353 -0.631,-0.224 -1.271,-0.432 -1.9,-0.673 -5.143,-1.968 -10.284,-3.946 -15.425,-5.922 -7.71,-2.957 -15.423,-5.912 -23.131,-8.88 -1.568,-0.603 -2.493,-2.43 -1.819,-3.652 3.12,-5.676 6.255,-11.345 9.41,-17.003 0.672,-1.202 1.999,-1.372 2.988,-0.424 0.367,0.356 0.682,0.769 1.01,1.162 9.328,11.197 18.656,22.398 27.976,33.596 0.395,0.472 0.76,0.964 1.135,1.443 M 93.684,17.133 c -0.029,-0.229 -0.053,-0.459 -0.079,-0.69 1.319,-0.322 2.63,-0.657 3.952,-0.962 15.724,-3.654 31.45,-7.311 47.184,-10.925 0.64,-0.148 1.74,-0.119 1.971,0.243 0.338,0.53 0.297,1.521 0.043,2.171 -2.32,5.902 -4.719,11.776 -7.104,17.655 -0.679,1.674 -3.211,2.973 -4.948,2.549 -8.961,-2.184 -17.925,-4.367 -26.885,-6.559 -4.714,-1.154 -9.424,-2.32 -14.134,-3.482 m 16.278,73.385 c 0.324,-0.945 0.459,-1.474 0.684,-1.958 4.335,-9.223 8.677,-18.436 13.027,-27.651 0.634,-1.344 3.335,-2.358 4.674,-1.772 8.265,3.634 16.542,7.261 24.798,10.924 0.578,0.255 1.034,0.793 1.546,1.202 -0.495,0.408 -0.924,0.963 -1.491,1.2 -13.749,5.808 -27.509,11.587 -41.27,17.364 -0.494,0.205 -1.012,0.357 -1.968,0.691 M -73.92,53.925 c -0.132,-0.137 -0.267,-0.272 -0.398,-0.406 0.23,-0.558 0.433,-1.134 0.702,-1.674 5.275,-10.627 10.541,-21.259 15.857,-31.864 0.966,-1.93 1.334,-4.298 4.223,-4.824 0.897,-0.165 1.583,-0.565 2.523,-0.116 7.985,3.799 15.992,7.558 23.982,11.357 0.588,0.282 1.067,0.782 1.599,1.182 -0.509,0.429 -0.968,0.961 -1.542,1.271 -12.547,6.731 -25.106,13.44 -37.664,20.148 -3.089,1.651 -6.188,3.284 -9.282,4.926 m 43.789,-58.216 c 1.068,-0.307 2.143,-1.015 2.955,-0.784 8.311,2.356 16.63,4.705 24.81,7.467 1.674,0.563 2.625,3.01 4.72,3.566 2.011,4.013 4.06,8.005 6.008,12.048 0.612,1.26 0.28,2.168 -1.356,2.419 -1.956,0.302 -3.881,0.817 -5.823,1.23 -6.821,1.458 -13.644,2.919 -20.471,4.363 -1.988,0.419 -3.853,-0.543 -4.233,-2.154 -2.169,-9.219 -4.333,-18.444 -6.61,-28.155 M 79.898,41.362 c 1.115,0.099 1.763,0.016 2.301,0.221 12.981,4.961 25.951,9.947 38.922,14.938 1.877,0.724 2.554,2.403 1.718,4.178 -4.289,9.103 -8.563,18.209 -12.902,27.287 -0.302,0.634 -1.005,1.285 -1.649,1.461 -0.317,0.088 -1.106,-0.812 -1.378,-1.403 -3.097,-6.759 -6.155,-13.533 -9.145,-20.335 -0.277,-0.626 -0.221,-1.562 0.027,-2.222 C 98.495,63.608 97.676,62.226 95.67,61.929 95.016,61.83 94.231,61.417 93.851,60.895 89.542,54.982 85.301,49.02 81.045,43.066 80.789,42.709 80.553,42.339 79.898,41.362 m 106.401,-69.73 c -1.572,30.215 -3.116,59.864 -4.661,89.511 m -0.018,0.35 c -0.181,0.051 -0.361,0.099 -0.538,0.147 -0.308,-0.604 -0.637,-1.2 -0.919,-1.814 -4.912,-10.786 -9.812,-21.578 -14.738,-32.357 -0.575,-1.259 -1.336,-2.4 -0.324,-3.851 0.271,-0.39 -0.086,-1.207 -0.127,-1.828 -0.051,-0.805 -0.338,-1.712 -0.069,-2.397 2.331,-5.895 4.728,-11.763 7.201,-17.599 0.29,-0.683 1.055,-1.327 1.754,-1.631 1.545,-0.673 2.096,-1.753 1.667,-3.366 -0.2,-0.759 -0.249,-1.74 0.064,-2.425 3.18,-6.997 6.447,-13.96 9.699,-20.925 0.218,-0.468 0.502,-0.905 1.009,-1.815 M 106.106,92.336 c 0.193,0.068 0.388,0.14 0.582,0.21 -0.556,0.748 -1.02,1.593 -1.682,2.228 -5.139,4.94 -10.318,9.836 -15.482,14.748 -2.001,1.905 -3.706,1.948 -5.694,0.066 -4.57,-4.331 -9.115,-8.681 -13.671,-13.025 -1.161,-1.108 -1.22,-4.128 -0.119,-5.267 7.67,-7.953 15.34,-15.904 23.01,-23.853 1.653,-1.719 3.011,-1.494 3.984,0.677 2.496,5.554 5.065,11.08 7.439,16.686 1,2.361 3.191,4.507 1.633,7.53 M -49.019,84.428 c -0.195,-0.092 -0.814,-0.207 -0.877,-0.458 -0.102,-0.417 0.066,-0.968 0.271,-1.388 8.354,-17.173 16.722,-34.341 25.114,-51.494 0.224,-0.459 0.734,-0.772 1.112,-1.154 0.319,0.411 0.803,0.776 0.932,1.24 3.648,13.004 7.257,26.014 10.862,39.031 0.456,1.641 -0.693,3.636 -2.289,4.098 -7.439,2.153 -14.88,4.308 -22.319,6.455 -4.183,1.207 -8.367,2.4 -12.806,3.67 M 27.89,81.482 C 20.004,74.771 11.992,67.95 3.984,61.125 2.184,59.591 2.232,57.734 4.063,56.299 9.217,52.266 14.351,48.21 19.517,44.195 c 1.425,-1.103 2.635,-2.926 4.905,-1.716 0.173,0.093 0.5,-0.156 0.738,-0.123 0.731,0.099 1.618,0.036 2.152,0.432 5.831,4.301 11.608,8.69 17.403,13.044 1.718,1.288 2.062,3.246 0.814,5.002 -3.385,4.753 -6.746,9.528 -10.201,14.234 -1.93,2.629 -3.203,6.036 -7.438,6.414 M 151.564,2.164 c -0.908,0.065 -3.746,-1.629 -4.165,-2.561 -2.039,-4.559 -4.076,-9.122 -6.115,-13.679 -2.959,-6.608 -5.927,-13.209 -8.879,-19.819 -0.662,-1.484 0.375,-4.017 1.801,-4.413 5.73,-1.6 11.461,-3.185 17.195,-4.763 1.639,-0.45 3.92,0.654 4.561,2.174 2.336,5.546 4.672,11.093 7.008,16.645 2.704,6.43 5.416,12.859 8.113,19.296 0.738,1.761 0.221,2.772 -1.6,3.188 -1.062,0.247 -2.13,0.447 -3.193,0.683 -4.877,1.072 -9.752,2.15 -14.726,3.249 m 8.411,21.49 c 0.163,0.075 0.535,0.223 0.885,0.413 0.748,0.412 1.516,0.799 2.217,1.284 0.377,0.266 0.742,0.664 0.934,1.083 5.26,11.484 10.497,22.976 15.721,34.478 0.64,1.41 -0.249,3.295 -1.694,3.708 -5.851,1.672 -11.705,3.333 -17.559,4.991 -1.501,0.424 -3.857,-0.689 -4.466,-2.112 -2.197,-5.126 -4.387,-10.252 -6.576,-15.383 -2.889,-6.779 -5.778,-13.558 -8.657,-20.344 -0.551,-1.305 0.069,-3.39 1.184,-3.674 5.9,-1.494 11.814,-2.922 18.011,-4.444 m -185.059,5.163 c 0.162,0.132 0.322,0.262 0.487,0.394 -0.236,0.553 -0.446,1.118 -0.708,1.659 -8.311,17.062 -16.628,34.123 -24.941,51.181 -0.916,1.881 -2.501,2.085 -3.772,0.47 -6.283,-7.97 -12.56,-15.94 -18.837,-23.917 -1.403,-1.781 -0.999,-3.739 0.979,-4.796 12.329,-6.592 24.658,-13.189 36.992,-19.781 3.262,-1.742 6.533,-3.469 9.8,-5.21 m 98.33,-46.423 c -1.643,-0.491 -3.29,-0.579 -3.746,1.405 -0.279,1.209 -0.827,1.328 -1.813,1.423 -8.302,0.799 -16.598,1.663 -24.905,2.426 -0.638,0.059 -1.331,-0.538 -2.011,-0.791 -0.849,-0.317 -1.864,-1.024 -2.536,-0.792 -1.172,0.414 -1.778,-0.078 -2.537,-0.669 -8.143,-6.361 -16.305,-12.702 -24.431,-19.09 -0.726,-0.574 -1.228,-1.426 -1.834,-2.149 0.946,-0.157 1.902,-0.484 2.843,-0.449 14.495,0.571 28.982,1.185 43.475,1.788 9.171,0.384 18.342,0.759 27.514,1.167 0.511,0.025 1.135,0.216 1.458,0.561 0.165,0.179 -0.107,0.968 -0.386,1.321 -3.67,4.624 -7.375,9.22 -11.091,13.849 M 0.773,56.362 c -1.769,0.01 -2.609,1.136 -2.482,2.846 0.056,0.745 -0.023,1.666 -0.419,2.249 -2.006,2.983 -4.119,5.897 -6.249,8.794 -0.33,0.451 -0.972,0.991 -1.415,0.951 -0.386,-0.038 -0.873,-0.797 -1.018,-1.316 -3.634,-12.95 -7.233,-25.911 -10.825,-38.871 -0.403,-1.454 1.119,-3.902 2.59,-4.219 8.705,-1.866 17.412,-3.731 26.119,-5.577 0.482,-0.102 1.159,-0.228 1.474,0.01 1.534,1.16 3.236,2.011 4.37,3.799 2.645,4.173 5.61,8.137 8.445,12.188 1.428,2.039 1.223,3.495 -0.715,5.026 C 15.203,46.534 9.76,50.835 4.294,55.104 3.231,55.936 2.296,57.29 0.773,56.362 M 92.51,15.267 c -0.021,-0.259 -0.041,-0.516 -0.062,-0.774 0.373,-0.515 0.739,-1.038 1.119,-1.55 11.553,-15.555 23.108,-31.105 34.659,-46.668 1.531,-2.059 2.496,-1.961 3.573,0.444 4.948,11.048 9.884,22.101 14.825,33.152 0.979,2.189 0.373,3.325 -2.047,3.886 -7.484,1.734 -14.965,3.479 -22.449,5.217 -9.036,2.097 -18.073,4.208 -27.12,6.264 -0.794,0.183 -1.661,0.029 -2.498,0.029 m 0.545,3.211 c 0.071,-0.153 0.144,-0.308 0.217,-0.459 0.483,0.076 0.969,0.121 1.442,0.238 12.514,3.03 25.027,6.054 37.529,9.138 1.879,0.461 4.164,0.296 5.09,2.691 0.102,0.273 0.675,0.335 0.964,0.57 0.619,0.508 1.458,0.951 1.745,1.616 5.08,11.771 10.098,23.568 15.094,35.372 0.238,0.568 0.177,1.26 0.258,1.894 -0.647,-0.086 -1.354,-0.025 -1.93,-0.276 -8.231,-3.584 -16.447,-7.186 -24.635,-10.864 -0.672,-0.301 -1.058,-1.204 -1.639,-1.759 -0.609,-0.586 -1.339,-1.593 -1.937,-1.54 -1.568,0.139 -2.303,-0.71 -3.141,-1.717 C 115.177,45.035 108.217,36.703 101.27,28.364 98.525,25.071 95.791,21.771 93.055,18.478 M 68.603,-14.13 c 1.285,0.652 3.532,0.082 4.684,2.07 5.118,8.817 10.3,17.6 15.194,26.54 0.988,1.806 1.452,4.131 0.137,6.389 -2.967,5.096 -5.76,10.295 -8.625,15.448 -1.134,2.042 -1.933,2.131 -3.32,0.335 C 64.95,21.457 53.232,6.265 41.517,-8.936 c -1.203,-1.561 -0.971,-2.253 0.959,-2.461 8.542,-0.929 17.094,-1.794 26.127,-2.733 m 5.666,-1.917 c -0.194,-0.022 -0.383,-0.046 -0.577,-0.068 0.275,-0.572 0.452,-1.218 0.835,-1.699 3.183,-4.034 6.402,-8.039 9.618,-12.048 0.765,-0.956 1.354,-2.156 3.015,-1.652 0.386,0.119 1.24,-0.337 1.446,-0.748 0.733,-1.463 2.041,-1.301 3.285,-1.418 6.391,-0.6 12.783,-1.209 19.176,-1.8 5.37,-0.498 10.742,-0.979 16.116,-1.436 0.373,-0.03 0.992,0.117 1.098,0.353 0.173,0.383 0.079,0.933 -0.048,1.37 -0.099,0.352 -0.408,0.646 -0.636,0.956 -11.797,15.88 -23.596,31.761 -35.392,47.644 -1.354,1.823 -2.255,1.796 -3.36,-0.124 -4.294,-7.452 -8.642,-14.878 -12.824,-22.39 -1.16,-2.078 -3.66,-3.904 -1.752,-6.94 M 9.707,17.531 C 9.564,17.655 9.423,17.777 9.28,17.901 7.219,13.78 5.131,9.669 3.133,5.517 2.914,5.062 3.095,4.332 3.27,3.789 3.703,2.474 3.348,1.334 2.144,0.913 1.012,0.518 0.761,-0.228 0.513,-1.148 c -1.38,-5.129 -2.747,-10.262 -4.148,-15.388 -0.314,-1.159 -0.775,-2.215 0.316,-3.325 0.357,-0.366 0.078,-1.327 0.154,-2.009 0.068,-0.624 0.035,-1.383 0.378,-1.836 2.384,-3.187 4.851,-6.309 7.297,-9.448 1.306,-1.674 3.522,-1.949 5.224,-0.624 8.158,6.348 16.314,12.697 24.455,19.065 1.206,0.943 2.864,1.623 2.497,3.688 -0.041,0.236 0.233,0.679 0.471,0.789 1.367,0.632 0.855,1.638 0.575,2.599 -2.304,7.926 -4.613,15.853 -6.928,23.776 -1.996,6.82 -3.988,13.637 -6.032,20.442 -0.157,0.521 -0.654,1.2 -1.103,1.299 -0.391,0.086 -1.086,-0.439 -1.398,-0.875 -3.459,-4.858 -6.873,-9.749 -10.299,-14.632 0.2,-0.022 0.4,-0.043 0.6,-0.066 0.029,-1.204 0.429,-2.594 -0.043,-3.553 -0.344,-0.7 -1.841,-0.837 -2.822,-1.223 m 83.467,47.213 c 0.213,0.064 0.429,0.125 0.641,0.189 -0.463,0.648 -0.859,1.369 -1.407,1.937 -7.239,7.56 -14.498,15.1 -21.764,22.633 -1.122,1.164 -2.075,2.66 -4.104,2.252 -0.292,-0.061 -0.651,0.387 -1.012,0.485 -0.55,0.148 -1.189,0.403 -1.686,0.258 -9.897,-2.884 -19.781,-5.813 -29.662,-8.75 -1.748,-0.518 -2.385,-2.304 -1.353,-3.746 4.442,-6.217 8.875,-12.438 13.382,-18.606 0.383,-0.522 1.269,-0.892 1.948,-0.935 1.568,-0.1 2.625,-0.886 2.47,-2.323 -0.139,-1.312 0.475,-1.655 1.329,-2.146 7.787,-4.479 15.561,-8.981 23.342,-13.468 1.54,-0.885 4.086,-0.333 5.113,1.098 3.668,5.113 7.365,10.201 10.972,15.355 1.172,1.674 3.391,3.061 1.791,5.767 m -46.085,-8.96 c -0.01,0.17 -0.02,0.342 -0.027,0.512 C 46.49,55.959 45.882,55.67 45.356,55.271 40.279,51.446 35.196,47.635 30.164,43.752 28.577,42.526 26.312,41.761 26.462,39.107 26.469,38.953 26.213,38.801 26.17,38.623 26.002,37.9 25.579,37.086 25.762,36.452 29.997,21.686 34.294,6.937 38.607,-7.807 c 0.178,-0.608 0.655,-1.129 0.993,-1.689 0.451,0.403 0.978,0.749 1.343,1.221 11.617,15.04 23.218,30.092 34.819,45.143 1.456,1.887 1.091,3.824 -0.928,4.988 -6.668,3.846 -13.328,7.708 -20.017,11.518 -2.369,1.35 -4.53,3.379 -7.728,2.41"
               inkscape:connector-curvature="0" />
          </g>
        </g>
      </g>
      <g
         transform="matrix(1.25,0,0,-1.25,-870.78981,1241.1795)"
         id="g3163">
        <g
           clip-path="url(#clipPath3167)"
           id="g3165">
          <g
             transform="translate(564.5918,132.3701)"
             id="g3171">
            <path
               id="path3173"
               style="fill:#2b2b2a;fill-opacity:1;fill-rule:nonzero;stroke:none"
               d="m 0,0 0,-125.928 -270.307,0 0,69.815 c 0.302,0.344 0.8,0.659 0.869,1.04 0.179,1.029 0.174,2.092 0.246,3.139 0.1,-0.007 0.202,-0.012 0.306,-0.02 0.241,-1.344 0.482,-2.691 0.783,-4.372 0.721,0.596 1.18,0.976 1.639,1.356 0.016,-0.103 0.03,-0.21 0.048,-0.314 0.675,0.096 1.353,0.195 2.083,0.302 -0.018,-0.191 -0.046,-0.459 -0.074,-0.769 0.223,0.087 0.422,0.211 0.635,0.238 2.987,0.397 2.982,0.391 2.969,3.368 -0.033,6.362 -0.058,12.723 -0.091,19.082 -0.002,0.705 0.228,1.567 -0.101,2.087 -1.068,1.681 0.246,2.475 1.202,3.31 2.714,2.363 5.511,4.646 8.275,6.957 1.215,1.015 2.443,2.011 3.665,3.018 2.306,-1.838 4.607,-3.437 6.605,-5.339 1.943,-1.844 4.73,-2.656 6.26,-4.946 0.525,-0.789 1.014,-1.597 1.578,-2.49 4.184,3.683 8.285,7.289 12.42,10.929 6.12,-2.045 14.401,-4.829 14.987,-5.245 0,1.645 0.235,3.479 -0.061,5.232 -0.348,2.044 14.347,13.762 15.752,16.154 5.083,-4.261 9.994,-8.375 14.904,-12.492 0.233,2.441 0.193,4.705 -0.112,6.935 -0.19,1.397 -0.525,2.638 0.999,3.568 0.756,0.464 1.385,1.126 2.06,1.712 4.513,3.916 9.02,7.832 13.488,11.714 0.153,-0.04 0.218,-0.04 0.259,-0.071 5.374,-4.235 10.802,-8.411 16.075,-12.759 0.934,-0.771 1.712,-1.904 1.636,-3.513 -0.192,-4.124 -0.06,-8.26 -0.005,-12.389 0.023,-1.504 0.197,-3.003 0.277,-4.127 0.631,0.736 9.556,3.558 12.092,5.859 4.21,-3.416 8.393,-6.808 12.301,-9.98 0.876,1.141 1.461,2.14 2.274,2.921 2.626,2.532 5.347,4.977 8.019,7.47 4.08,3.812 8.149,7.639 12.299,11.525 8.334,-6.775 16.611,-13.506 25.01,-20.333 2.019,1.851 4.17,3.755 6.209,5.759 0.287,0.28 14.744,15.005 17.548,21.366 0.706,0.292 1.336,0.396 1.741,0.746 1.754,1.532 3.433,3.137 5.153,4.704 2.851,2.596 5.714,5.183 8.567,7.773 3.176,-2.48 6.194,-4.922 9.314,-7.226 0.727,-0.54 1.796,-0.81 2.737,-0.895 1.602,-0.142 3.231,-0.038 4.776,-0.038 0.101,-0.147 0.138,-0.187 0.156,-0.236 0.658,-1.995 -0.469,-4.402 1.508,-6.112 0.083,-0.076 -0.087,-0.395 -0.092,-0.603 -0.008,-1.085 -0.002,-2.171 -0.002,-3.403 1.142,0.808 1.826,2.277 1.232,2.66 -0.965,0.632 -0.614,1.17 -0.134,1.623 0.449,0.433 1.154,0.908 1.724,0.883 2.217,-0.094 4.266,0.041 5.529,2.092 C -1.745,1.096 -0.873,0.548 0,0"
               inkscape:connector-curvature="0" />
          </g>
          <g
             transform="translate(319.7119,98.5381)"
             id="g3175">
            <path
               id="path3177"
               style="fill:#e2de00;fill-opacity:1;fill-rule:nonzero;stroke:none"
               d="m 0,0 16.349,0 0,-4.669 -10.447,0 0,-6.647 9.833,0 0,-4.67 -9.833,0 0,-12.266 -5.902,0 L 0,0 z"
               inkscape:connector-curvature="0" />
          </g>
          <g
             transform="translate(338.6836,70.2861)"
             id="g3179">
            <path
               id="path3181"
               style="fill:#e2de00;fill-opacity:1;fill-rule:nonzero;stroke:none"
               d="m 0,0 0,28.252 5.899,0 0,-23.58 10.45,0 L 16.349,0 0,0 z"
               inkscape:connector-curvature="0" />
          </g>
          <g
             transform="translate(374.0068,98.5381)"
             id="g3183">
            <path
               id="path3185"
               style="fill:#e2de00;fill-opacity:1;fill-rule:nonzero;stroke:none"
               d="m 0,0 0,-4.669 -10.452,0 0,-6.647 9.836,0 0,-4.67 -9.836,0 0,-7.594 10.86,0 0,-4.672 -16.76,0 0,28.252 L 0,0 z"
               inkscape:connector-curvature="0" />
          </g>
          <g
             transform="translate(376.1348,98.5381)"
             id="g3187">
            <path
               id="path3189"
               style="fill:#e2de00;fill-opacity:1;fill-rule:nonzero;stroke:none"
               d="m 0,0 6.516,0 3.768,-9.141 3.729,9.141 6.432,0 -6.799,-13.965 7.293,-14.287 -6.639,0 -4.224,9.574 -4.177,-9.574 -6.475,0 7.295,14.287 L 0,0 z"
               inkscape:connector-curvature="0" />
          </g>
          <g
             transform="translate(399.8594,98.5381)"
             id="g3191">
            <path
               id="path3193"
               style="fill:#ffffff;fill-opacity:1;fill-rule:nonzero;stroke:none"
               d="m 0,0 4.548,0 7.048,-25.084 0.079,0 7.051,25.084 4.303,0 0,-28.252 -2.625,0 0,25.878 -0.078,0 -7.584,-25.878 -2.458,0 -7.581,25.878 -0.081,0 0,-25.878 -2.622,0 L 0,0 z"
               inkscape:connector-curvature="0" />
          </g>
          <g
             transform="translate(427.7207,98.5381)"
             id="g3195">
            <path
               id="path3197"
               style="fill:#ffffff;fill-opacity:1;fill-rule:nonzero;stroke:none"
               d="m 0,0 14.505,0 0,-2.138 -11.883,0 0,-10.287 11.107,0 0,-2.136 -11.107,0 0,-11.552 12.253,0 0,-2.139 L 0,-28.252 0,0 z"
               inkscape:connector-curvature="0" />
          </g>
          <g
             transform="translate(451.4023,96.4004)"
             id="g3199">
            <path
               id="path3201"
               style="fill:#ffffff;fill-opacity:1;fill-rule:nonzero;stroke:none"
               d="m 0,0 -7.538,0 0,2.138 17.702,0 0,-2.138 -7.539,0 0,-26.114 -2.625,0 L 0,0 z"
               inkscape:connector-curvature="0" />
          </g>
          <g
             transform="translate(464.1035,98.5381)"
             id="g3203">
            <path
               id="path3205"
               style="fill:#ffffff;fill-opacity:1;fill-rule:nonzero;stroke:none"
               d="m 0,0 14.508,0 0,-2.138 -11.885,0 0,-10.287 11.106,0 0,-2.136 -11.106,0 0,-11.552 12.252,0 0,-2.139 L 0,-28.252 0,0 z"
               inkscape:connector-curvature="0" />
          </g>
          <g
             transform="translate(484.9189,85.3213)"
             id="g3207">
            <path
               id="path3209"
               style="fill:#ffffff;fill-opacity:1;fill-rule:nonzero;stroke:none"
               d="m 0,0 4.507,0 c 4.139,0 6.556,1.821 6.556,5.542 0,3.439 -1.517,5.537 -6.267,5.537 L 0,11.079 0,0 z m -2.62,13.217 8.727,0 c 4.874,0 7.58,-2.689 7.58,-7.084 0,-3.404 -1.393,-6.447 -5.287,-7.16 l 0,-0.081 c 3.648,-0.315 4.877,-2.331 4.999,-6.686 l 0.081,-3.087 c 0.043,-1.544 0.207,-3.043 1.23,-4.154 l -3.07,0 c -0.618,0.989 -0.742,2.453 -0.782,3.959 l -0.082,2.374 c -0.162,4.984 -1.105,6.566 -5.818,6.566 l -4.958,0 0,-12.899 -2.62,0 0,28.252 z"
               inkscape:connector-curvature="0" />
          </g>
        </g>
      </g>
    </g>
  </g>
</svg>
