<?xml version="1.0" encoding="UTF-8" standalone="no"?>
<!-- Created with Inkscape (http://www.inkscape.org/) -->

<svg
   xmlns:dc="http://purl.org/dc/elements/1.1/"
   xmlns:cc="http://creativecommons.org/ns#"
   xmlns:rdf="http://www.w3.org/1999/02/22-rdf-syntax-ns#"
   xmlns:svg="http://www.w3.org/2000/svg"
   xmlns="http://www.w3.org/2000/svg"
   xmlns:sodipodi="http://sodipodi.sourceforge.net/DTD/sodipodi-0.dtd"
   xmlns:inkscape="http://www.inkscape.org/namespaces/inkscape"
   width="397.013"
   height="59.709873"
   id="svg3707"
   version="1.1"
   inkscape:version="0.48.0 r9654"
   sodipodi:docname="Neues Dokument 1">
  <defs
     id="defs3709">
    <clipPath
       id="clipPath3847"
       clipPathUnits="userSpaceOnUse">
      <path
         id="path3849"
         d="m 0,0 396.85,0 0,90.709 L 0,90.709 0,0 z"
         inkscape:connector-curvature="0" />
    </clipPath>
    <clipPath
       id="clipPath3823"
       clipPathUnits="userSpaceOnUse">
      <path
         id="path3825"
         d="m 0,90.7087 396.85,0 L 396.85,0 0,0 0,90.7087 z"
         inkscape:connector-curvature="0" />
    </clipPath>
    <clipPath
       id="clipPath3797"
       clipPathUnits="userSpaceOnUse">
      <path
         id="path3799"
         d="m 0,0 396.85,0 0,90.709 L 0,90.709 0,0 z"
         inkscape:connector-curvature="0" />
    </clipPath>
    <clipPath
       id="clipPath3777"
       clipPathUnits="userSpaceOnUse">
      <path
         id="path3779"
         d="m 0,0 396.85,0 0,90.709 L 0,90.709 0,0 z"
         inkscape:connector-curvature="0" />
    </clipPath>
    <clipPath
       id="clipPath3759"
       clipPathUnits="userSpaceOnUse">
      <path
         id="path3761"
         d="m 0,0 396.85,0 0,90.709 L 0,90.709 0,0 z"
         inkscape:connector-curvature="0" />
    </clipPath>
    <clipPath
       id="clipPath3729"
       clipPathUnits="userSpaceOnUse">
      <path
         id="path3731"
         d="m 0,0 396.85,0 0,90.709 L 0,90.709 0,0 z"
         inkscape:connector-curvature="0" />
    </clipPath>
  </defs>
  <sodipodi:namedview
     id="base"
     pagecolor="#ffffff"
     bordercolor="#666666"
     borderopacity="1.0"
     inkscape:pageopacity="0.0"
     inkscape:pageshadow="2"
     inkscape:zoom="0.98994949"
     inkscape:cx="-12.597168"
     inkscape:cy="157.79372"
     inkscape:document-units="px"
     inkscape:current-layer="layer1"
     showgrid="false"
     fit-margin-top="0"
     fit-margin-left="0"
     fit-margin-right="0"
     fit-margin-bottom="0"
     inkscape:window-width="1680"
     inkscape:window-height="988"
     inkscape:window-x="-8"
     inkscape:window-y="-8"
     inkscape:window-maximized="1" />
  <metadata
     id="metadata3712">
    <rdf:RDF>
      <cc:Work
         rdf:about="">
        <dc:format>image/svg+xml</dc:format>
        <dc:type
           rdf:resource="http://purl.org/dc/dcmitype/StillImage" />
        <dc:title></dc:title>
      </cc:Work>
    </rdf:RDF>
  </metadata>
  <g
     inkscape:label="Ebene 1"
     inkscape:groupmode="layer"
     id="layer1"
     transform="translate(1.363643,-696.79295)">
    <g
       transform="matrix(1.25,0,0,-1.25,-82.697518,782.45733)"
       inkscape:label="RWTH_EERC_K1 aktuell 2015"
       id="g3723">
      <g
         id="g3725">
        <g
           clip-path="url(#clipPath3729)"
           id="g3727">
          <g
             transform="translate(326.3783,41.2035)"
             id="g3733">
            <path
               id="path3735"
               style="fill:#918f90;fill-opacity:1;fill-rule:nonzero;stroke:none"
               d="M 0,0 2.052,0 C 4.013,0 5.07,-0.996 5.07,-2.988 5.07,-5.311 3.892,-6.216 1.81,-6.216 L 0,-6.216 0,0 z m -4.345,-18.347 4.345,0 0,9.113 2.323,0 c 1.75,0 2.505,-1.026 2.566,-2.716 l 0.12,-4.134 c 0.03,-0.844 0.121,-1.659 0.543,-2.263 l 4.707,0 0,0.181 c -0.814,0.423 -0.935,1.599 -0.965,3.862 -0.06,4.557 -0.513,6.187 -3.47,6.579 l 0,0.06 c 2.444,0.513 3.591,2.444 3.591,5.311 0,3.682 -2.173,5.553 -5.734,5.553 l -8.026,0 0,-21.546 z"
               inkscape:connector-curvature="0" />
          </g>
          <g
             transform="translate(257.97,44.402)"
             id="g3737">
            <path
               id="path3739"
               style="fill:#918f90;fill-opacity:1;fill-rule:nonzero;stroke:none"
               d="m 0,0 0,-15.027 c 0,-5.764 3.349,-6.941 6.88,-6.941 3.53,0 6.88,1.448 6.88,6.941 l 0,15.027 -4.345,0 0,-15.027 c 0,-2.143 -0.513,-3.742 -2.535,-3.742 -2.022,0 -2.535,1.599 -2.535,3.742 L 4.345,0 0,0 z"
               inkscape:connector-curvature="0" />
          </g>
        </g>
      </g>
      <g
         transform="translate(272.7938,44.402)"
         id="g3741">
        <path
           id="path3743"
           style="fill:#918f90;fill-opacity:1;fill-rule:nonzero;stroke:none"
           d="m 0,0 0,-21.545 3.983,0 0,15.087 0.06,0 5.311,-15.087 4.949,0 0,21.545 -3.983,0 0,-14.756 -0.06,0 L 5.009,0 0,0 z"
           inkscape:connector-curvature="0" />
      </g>
      <path
         id="path3745"
         style="fill:#918f90;fill-opacity:1;fill-rule:nonzero;stroke:none"
         d="m 292.559,44.402 -4.345,0 0,-21.545 4.345,0 0,21.545 z"
         inkscape:connector-curvature="0" />
      <g
         transform="translate(292.8574,44.402)"
         id="g3747">
        <path
           id="path3749"
           style="fill:#918f90;fill-opacity:1;fill-rule:nonzero;stroke:none"
           d="m 0,0 4.948,-21.545 5.583,0 L 15.479,0 10.983,0 7.785,-15.933 l -0.09,0 L 4.647,0 0,0 z"
           inkscape:connector-curvature="0" />
      </g>
      <g
         transform="translate(308.7239,44.402)"
         id="g3751">
        <path
           id="path3753"
           style="fill:#918f90;fill-opacity:1;fill-rule:nonzero;stroke:none"
           d="m 0,0 0,-21.545 12.342,0 0,3.56 -7.997,0 0,5.794 7.243,0 0,3.561 -7.243,0 0,5.069 7.695,0 L 12.04,0 0,0 z"
           inkscape:connector-curvature="0" />
      </g>
      <g
         id="g3755">
        <g
           clip-path="url(#clipPath3759)"
           id="g3757">
          <g
             transform="translate(336.1536,29.5858)"
             id="g3763">
            <path
               id="path3765"
               style="fill:#918f90;fill-opacity:1;fill-rule:nonzero;stroke:none"
               d="m 0,0 0,-0.875 c 0,-3.984 1.931,-6.277 6.85,-6.277 4.707,0 7.483,2.052 7.483,6.609 0,2.625 -0.845,4.284 -4.104,5.703 L 6.88,6.608 C 5.039,7.393 4.647,8.207 4.647,9.535 c 0,1.267 0.513,2.505 2.474,2.505 1.659,0 2.354,-1.177 2.354,-3.199 l 4.164,0 0,0.604 c 0,4.134 -2.807,5.793 -6.669,5.793 -4.104,0 -6.668,-2.142 -6.668,-6.336 0,-3.591 1.78,-5.191 5.642,-6.518 2.867,-0.996 3.863,-1.72 3.863,-3.682 0,-1.81 -1.268,-2.655 -2.595,-2.655 -2.294,0 -2.867,1.297 -2.867,3.319 L 4.345,0 0,0 z"
               inkscape:connector-curvature="0" />
          </g>
        </g>
      </g>
      <path
         id="path3767"
         style="fill:#918f90;fill-opacity:1;fill-rule:nonzero;stroke:none"
         d="m 355.4,44.402 -4.345,0 0,-21.545 4.345,0 0,21.545 z"
         inkscape:connector-curvature="0" />
      <g
         transform="translate(377.9695,44.402)"
         id="g3769">
        <path
           id="path3771"
           style="fill:#918f90;fill-opacity:1;fill-rule:nonzero;stroke:none"
           d="m 0,0 -3.018,-8.328 -0.06,0 L -5.914,0 -22,0 l 0,-3.561 4.707,0 0,-17.984 4.346,0 0,17.984 3.665,0 4.061,-9.505 0,-8.479 4.346,0 0,8.479 L 4.708,0 0,0 z"
           inkscape:connector-curvature="0" />
      </g>
      <g
         id="g3773">
        <g
           clip-path="url(#clipPath3777)"
           id="g3775">
          <g
             transform="translate(219.7987,46.3616)"
             id="g3781">
            <path
               id="path3783"
               style="fill:#231f20;fill-opacity:1;fill-rule:nonzero;stroke:none"
               d="m 0,0 -0.276,0 -6.924,0 0,2.439 0,19.043 0,0.159 6.91,0 0.014,0 4.883,0 c 3.202,0.001 5.963,-2.072 6.864,-4.82 0.834,-2.546 0.121,-5.312 -1.761,-7.281 0.25,-0.678 0.494,-1.209 0.726,-1.818 0.523,-1.205 1.001,-2.41 1.524,-3.6 L 13.673,0 13.629,0 6.372,0 C 6.372,-0.004 6.314,0.174 6.256,0.247 5.966,0.885 5.704,1.568 5.414,2.206 L 3.658,6.372 c -0.697,1.684 -1.394,3.275 -2.09,4.958 0.869,0.024 1.519,-0.139 2.358,0.247 0.59,0.29 1.484,1.011 1.507,2.394 -0.023,0.685 -0.213,1.204 -0.666,1.744 -0.455,0.502 -1.113,0.874 -1.97,0.886 0,0 -2.798,0.001 -2.797,0 L 0,0 z"
               inkscape:connector-curvature="0" />
          </g>
          <g
             transform="translate(295.0043,68.0029)"
             id="g3785">
            <path
               id="path3787"
               style="fill:#231f20;fill-opacity:1;fill-rule:nonzero;stroke:none"
               d="m 0,0 0,-21.641 -5.622,0 -1.578,0 0,8.824 -0.672,0 -4.31,0 -0.059,0 0,-8.824 c -1.306,0 -2.714,0.014 -4.02,0 l -3.18,0 0,16.633 -5.036,0 0,-0.522 0,-1.567 0,-7.127 0,-7.417 -0.058,0 -7.142,0 0,8.97 0,0.348 0,7.315 -5.079,0 0,-7.852 0,-8.781 -7.417,0 c -1.292,3.12 -2.656,6.27 -3.919,9.376 -0.145,0.653 -0.29,1.307 -0.479,1.945 l 0,-11.321 -7.432,0 c -1.473,3.425 -2.888,6.782 -4.357,10.258 -0.509,1.204 -0.926,2.184 -1.452,3.436 l -0.072,0.164 -1.144,2.685 -1.638,3.835 c -0.144,0.435 -0.376,0.828 -0.522,1.263 l 7.415,0 c 1.524,-3.701 3.062,-7.359 4.659,-11.002 l 0.044,-0.087 c -0.058,0.421 -0.19,0.958 -0.262,1.364 l 0,6.459 c 0.014,1.031 0,2.207 0,3.266 l 7.431,0 c 0.094,-0.236 0.146,-0.363 0.218,-0.552 0.871,-2.046 1.699,-4.078 2.57,-6.11 l 1.945,-4.427 c -0.044,0.465 -0.146,0.914 -0.204,1.364 l 0,9.725 0.595,0 5.052,0 18.288,0 5.196,0 0,-1.35 0,-6.459 0.349,0 4.692,0 L -7.2,0 -3.445,0 0,0 z"
               inkscape:connector-curvature="0" />
          </g>
        </g>
      </g>
      <g
         transform="translate(320.709,68.0049)"
         id="g3789">
        <path
           id="path3791"
           style="fill:#918f90;fill-opacity:1;fill-rule:nonzero;stroke:none"
           d="M 0,0 -5.396,0 -9.912,-17.059 -14.428,0 l -5.396,0 -5.729,-21.643 4.547,0 1,4.577 5.761,0 0.999,-4.577 6.668,0 1,4.577 5.76,0 1,-4.577 4.547,0 L 0,0 z m -19.247,-13.489 2.091,9.73 0.06,0 2.092,-9.73 -4.243,0 z m 14.427,0 2.092,9.73 0.06,0 2.092,-9.73 -4.244,0 z"
           inkscape:connector-curvature="0" />
      </g>
      <g
         id="g3793">
        <g
           clip-path="url(#clipPath3797)"
           id="g3795">
          <g
             transform="translate(339.4375,60.62)"
             id="g3801">
            <path
               id="path3803"
               style="fill:#918f90;fill-opacity:1;fill-rule:nonzero;stroke:none"
               d="m 0,0 c 0,3.138 -0.452,7.695 -6.669,7.695 -6.517,0 -7.333,-4.647 -7.333,-11.195 0,-6.548 0.816,-11.195 7.333,-11.195 5.703,0 6.85,4.013 6.85,8.66 l -4.345,0 c 0,-4.647 -1.147,-5.462 -2.716,-5.462 -1.871,0 -2.776,1.177 -2.776,7.695 0,6.095 0.513,8.298 2.716,8.298 1.961,0 2.595,-1.358 2.595,-4.496 L 0,0 z"
               inkscape:connector-curvature="0" />
          </g>
        </g>
      </g>
      <g
         transform="translate(340.4769,46.3616)"
         id="g3805">
        <path
           id="path3807"
           style="fill:#918f90;fill-opacity:1;fill-rule:nonzero;stroke:none"
           d="m 0,0 4.364,0 0,9.608 5.092,0 0,-9.608 4.365,0 0,21.641 -4.365,0 0,-8.275 -5.092,0 0,8.275 L 0,21.641 0,0 z"
           inkscape:connector-curvature="0" />
      </g>
      <g
         transform="translate(355.244,68.0067)"
         id="g3809">
        <path
           id="path3811"
           style="fill:#918f90;fill-opacity:1;fill-rule:nonzero;stroke:none"
           d="m 0,0 0,-21.645 12.4,0 0,3.577 -8.034,0 0,5.821 7.276,0 0,3.577 -7.276,0 0,5.093 7.73,0 0,3.577 L 0,0 z"
           inkscape:connector-curvature="0" />
      </g>
      <g
         transform="translate(368.2917,68.0026)"
         id="g3813">
        <path
           id="path3815"
           style="fill:#918f90;fill-opacity:1;fill-rule:nonzero;stroke:none"
           d="m 0,0 0,-21.641 4.001,0 0,15.155 0.06,0 5.335,-15.155 4.971,0 0,21.641 -4.001,0 0,-14.821 -0.061,0 L 5.031,0 0,0 z"
           inkscape:connector-curvature="0" />
      </g>
      <g
         id="g3817">
        <g
           id="g3819">
          <g
             clip-path="url(#clipPath3823)"
             id="g3821">
            <g
               transform="translate(198.3583,68.0315)"
               id="g3827">
              <path
                 id="path3829"
                 style="fill:none;stroke:#231f20;stroke-width:1;stroke-linecap:butt;stroke-linejoin:miter;stroke-miterlimit:4;stroke-opacity:1;stroke-dasharray:none"
                 d="M 0,0 0,-45.354"
                 inkscape:connector-curvature="0" />
            </g>
          </g>
        </g>
      </g>
      <path
         id="path3831"
         style="fill:#ef2f2c;fill-opacity:1;fill-rule:nonzero;stroke:none"
         d="m 107.051,68.031 35.229,0 0,-5.247 -35.229,0 0,5.247 z"
         inkscape:connector-curvature="0" />
      <path
         id="path3833"
         style="fill:#ef2f2c;fill-opacity:1;fill-rule:nonzero;stroke:none"
         d="m 107.051,56.414 35.229,0 0,-5.247 -35.229,0 0,5.247 z"
         inkscape:connector-curvature="0" />
      <path
         id="path3835"
         style="fill:#ef2f2c;fill-opacity:1;fill-rule:nonzero;stroke:none"
         d="m 107.051,44.796 35.229,0 0,-5.247 -35.229,0 0,5.247 z"
         inkscape:connector-curvature="0" />
      <path
         id="path3837"
         style="fill:#ef2f2c;fill-opacity:1;fill-rule:nonzero;stroke:none"
         d="m 149.023,68.031 35.229,0 0,-5.247 -35.229,0 0,5.247 z"
         inkscape:connector-curvature="0" />
      <path
         id="path3839"
         style="fill:#ef2f2c;fill-opacity:1;fill-rule:nonzero;stroke:none"
         d="m 149.023,56.414 35.229,0 0,-5.247 -35.229,0 0,5.247 z"
         inkscape:connector-curvature="0" />
      <path
         id="path3841"
         style="fill:#ef2f2c;fill-opacity:1;fill-rule:nonzero;stroke:none"
         d="m 65.077,68.031 35.229,0 0,-28.483 -35.229,0 0,28.483 z"
         inkscape:connector-curvature="0" />
      <g
         id="g3843">
        <g
           clip-path="url(#clipPath3847)"
           id="g3845">
          <g
             transform="translate(65.0671,30.0176)"
             id="g3851">
            <path
               id="path3853"
               style="fill:#ef2f2c;fill-opacity:1;fill-rule:nonzero;stroke:none"
               d="m 0,0 0,-7.358 4.215,0 0,1.216 -2.731,0 0,1.979 2.473,0 0,1.216 -2.473,0 0,1.731 2.628,0 L 4.112,0 0,0 z m 5.145,-7.358 1.36,0 0,1.608 -1.36,0 0,-1.608 z M 7.36,-5.22 c 0.051,-0.47 0.165,-0.874 0.34,-1.21 0.175,-0.337 0.427,-0.6 0.757,-0.789 0.33,-0.189 0.773,-0.283 1.33,-0.283 0.556,0 0.999,0.094 1.329,0.283 0.33,0.189 0.582,0.452 0.757,0.789 0.176,0.336 0.289,0.74 0.341,1.21 0.051,0.471 0.077,0.985 0.077,1.541 0,0.557 -0.026,1.07 -0.077,1.541 -0.052,0.47 -0.165,0.874 -0.341,1.211 -0.175,0.336 -0.427,0.599 -0.757,0.788 -0.33,0.189 -0.773,0.283 -1.329,0.283 -0.557,0 -1,-0.094 -1.33,-0.283 C 8.127,-0.328 7.875,-0.591 7.7,-0.927 7.525,-1.264 7.411,-1.668 7.36,-2.138 7.308,-2.609 7.282,-3.122 7.282,-3.679 c 0,-0.556 0.026,-1.07 0.078,-1.541 m 1.442,2.798 c 0.024,0.344 0.073,0.625 0.145,0.845 0.072,0.22 0.175,0.38 0.309,0.479 0.134,0.1 0.311,0.15 0.531,0.15 0.219,0 0.396,-0.05 0.53,-0.15 0.134,-0.099 0.237,-0.259 0.31,-0.479 0.072,-0.22 0.12,-0.501 0.144,-0.845 0.024,-0.343 0.036,-0.762 0.036,-1.257 0,-0.495 -0.012,-0.916 -0.036,-1.262 -0.024,-0.347 -0.072,-0.629 -0.144,-0.845 -0.073,-0.217 -0.176,-0.375 -0.31,-0.474 -0.134,-0.1 -0.311,-0.15 -0.53,-0.15 -0.22,0 -0.397,0.05 -0.531,0.15 -0.134,0.099 -0.237,0.257 -0.309,0.474 -0.072,0.216 -0.121,0.498 -0.145,0.845 -0.024,0.346 -0.036,0.767 -0.036,1.262 0,0.495 0.012,0.914 0.036,1.257 M 13.198,0 l 0,-7.358 1.36,0 0,5.153 0.021,0 1.813,-5.153 1.69,0 0,7.358 -1.36,0 0,-5.039 -0.021,0 L 14.908,0 13.198,0 z m 8.283,0 0,-7.358 4.215,0 0,1.216 -2.731,0 0,1.979 2.474,0 0,1.216 -2.474,0 0,1.731 2.628,0 0,1.216 -4.112,0 z m 4.95,-7.358 1.422,0 0,3.679 c 0,0.611 0.251,0.917 0.752,0.917 0.213,0 0.368,-0.056 0.464,-0.17 0.096,-0.113 0.144,-0.314 0.144,-0.603 l 0,-3.823 1.422,0 0,4.112 c 0,0.556 -0.122,0.958 -0.365,1.206 -0.244,0.247 -0.593,0.371 -1.046,0.371 -0.31,0 -0.585,-0.064 -0.825,-0.191 -0.24,-0.127 -0.436,-0.328 -0.587,-0.603 l -0.021,0 0,0.649 -1.36,0 0,-5.544 z m 9.223,2.556 0,0.319 c 0,0.426 -0.028,0.813 -0.082,1.16 -0.056,0.346 -0.159,0.642 -0.31,0.886 -0.151,0.244 -0.359,0.433 -0.623,0.567 -0.265,0.134 -0.603,0.201 -1.015,0.201 -0.481,0 -0.866,-0.08 -1.154,-0.237 -0.289,-0.159 -0.51,-0.371 -0.665,-0.639 -0.155,-0.268 -0.258,-0.574 -0.309,-0.918 -0.052,-0.343 -0.077,-0.7 -0.077,-1.071 0,-0.344 0.015,-0.693 0.046,-1.046 0.031,-0.354 0.115,-0.674 0.252,-0.959 0.138,-0.285 0.351,-0.517 0.639,-0.695 0.289,-0.179 0.691,-0.268 1.206,-0.268 0.68,0 1.178,0.173 1.494,0.52 0.316,0.347 0.488,0.843 0.516,1.489 l -1.278,0 c -0.042,-0.35 -0.117,-0.611 -0.227,-0.783 -0.11,-0.172 -0.285,-0.258 -0.526,-0.258 -0.13,0 -0.24,0.037 -0.329,0.109 -0.09,0.072 -0.162,0.168 -0.217,0.288 -0.055,0.12 -0.094,0.258 -0.118,0.412 -0.024,0.155 -0.036,0.315 -0.036,0.48 l 0,0.443 2.813,0 z m -2.813,0.845 0,0.216 c 0,0.131 0.012,0.261 0.036,0.392 0.024,0.13 0.063,0.249 0.118,0.355 0.055,0.107 0.129,0.193 0.222,0.258 0.093,0.065 0.211,0.098 0.355,0.098 0.145,0 0.263,-0.029 0.356,-0.088 0.093,-0.058 0.165,-0.144 0.216,-0.257 0.052,-0.114 0.088,-0.251 0.108,-0.413 0.021,-0.161 0.035,-0.348 0.042,-0.561 l -1.453,0 z m 3.591,-3.401 1.422,0 0,3.329 c 0,0.185 0.031,0.341 0.093,0.469 0.062,0.127 0.144,0.23 0.247,0.309 0.103,0.079 0.217,0.135 0.34,0.17 0.124,0.034 0.248,0.051 0.371,0.051 0.076,0 0.15,-0.001 0.222,-0.005 0.072,-0.003 0.146,-0.009 0.221,-0.015 l 0,1.36 c -0.041,0.007 -0.084,0.012 -0.128,0.015 -0.045,0.004 -0.088,0.006 -0.129,0.006 -0.296,0 -0.546,-0.081 -0.753,-0.243 -0.206,-0.161 -0.381,-0.376 -0.525,-0.644 l -0.021,0 0,0.742 -1.36,0 0,-5.544 z m 4.837,3.54 c 0.017,0.258 0.053,0.464 0.108,0.618 0.055,0.155 0.131,0.266 0.227,0.335 0.096,0.069 0.223,0.103 0.381,0.103 0.282,0 0.476,-0.141 0.583,-0.422 0.106,-0.282 0.159,-0.76 0.159,-1.433 0,-0.233 -0.012,-0.448 -0.036,-0.644 -0.024,-0.196 -0.065,-0.362 -0.123,-0.5 -0.059,-0.137 -0.138,-0.245 -0.237,-0.324 -0.1,-0.079 -0.225,-0.119 -0.377,-0.119 -0.151,0 -0.273,0.04 -0.365,0.119 -0.093,0.079 -0.165,0.185 -0.217,0.319 -0.051,0.134 -0.086,0.287 -0.103,0.459 -0.017,0.171 -0.026,0.354 -0.026,0.546 0,0.371 0.009,0.685 0.026,0.943 m 1.458,2.004 0,-0.618 -0.02,0 c -0.138,0.289 -0.313,0.488 -0.526,0.598 -0.213,0.109 -0.419,0.165 -0.618,0.165 -0.385,0 -0.692,-0.086 -0.922,-0.258 -0.231,-0.172 -0.406,-0.393 -0.526,-0.665 -0.12,-0.271 -0.199,-0.575 -0.237,-0.912 -0.038,-0.336 -0.057,-0.666 -0.057,-0.989 0,-1.01 0.143,-1.73 0.428,-2.159 0.285,-0.429 0.709,-0.644 1.273,-0.644 0.226,0 0.444,0.062 0.654,0.185 0.21,0.124 0.386,0.289 0.531,0.495 l 0.02,0 0,-0.732 c 0,-0.288 -0.058,-0.527 -0.175,-0.716 -0.117,-0.189 -0.319,-0.283 -0.608,-0.283 -0.089,0 -0.173,0.014 -0.252,0.041 -0.079,0.028 -0.153,0.065 -0.222,0.113 -0.144,0.103 -0.216,0.244 -0.216,0.423 l -1.361,0 c 0,-0.474 0.164,-0.84 0.49,-1.098 0.326,-0.257 0.792,-0.386 1.396,-0.386 0.831,0 1.424,0.177 1.778,0.531 0.354,0.354 0.531,0.901 0.531,1.643 l 0,5.266 -1.361,0 z m 2.391,-7.358 0.577,0 c 0.33,0 0.603,0.025 0.82,0.072 0.216,0.049 0.401,0.15 0.556,0.304 0.155,0.155 0.309,0.43 0.464,0.825 0.154,0.395 0.252,0.723 0.293,0.984 l 1.34,5.173 -1.422,0 -0.721,-3.833 -0.021,0 -0.824,3.833 -1.484,0 1.556,-5.544 c -0.021,-0.247 -0.088,-0.44 -0.201,-0.577 -0.114,-0.137 -0.301,-0.206 -0.562,-0.206 -0.123,0 -0.247,0.01 -0.371,0.031 l 0,-1.062 z m 6.985,1.814 1.484,0 0,3.112 0.784,0 c 0.306,0 0.523,-0.082 0.652,-0.247 0.129,-0.165 0.2,-0.392 0.214,-0.68 l 0.04,-1.412 c 0.007,-0.144 0.021,-0.283 0.042,-0.417 0.021,-0.134 0.069,-0.253 0.146,-0.356 l 1.626,0 0,0.062 c -0.137,0.075 -0.225,0.216 -0.263,0.422 -0.038,0.207 -0.06,0.505 -0.067,0.897 -0.007,0.392 -0.025,0.721 -0.056,0.989 -0.031,0.268 -0.088,0.49 -0.17,0.665 -0.083,0.175 -0.2,0.309 -0.351,0.402 -0.151,0.093 -0.354,0.156 -0.608,0.191 l 0,0.02 c 0.419,0.089 0.728,0.29 0.928,0.603 0.199,0.313 0.299,0.716 0.299,1.211 0,0.639 -0.172,1.114 -0.516,1.427 C 55.944,-0.156 55.463,0 54.845,0 l -2.742,0 0,-7.358 z m 1.484,6.266 0.701,0 c 0.687,0 1.031,-0.34 1.031,-1.021 0,-0.398 -0.097,-0.681 -0.289,-0.85 -0.192,-0.168 -0.467,-0.252 -0.824,-0.252 l -0.619,0 0,2.123 z m 8.206,-3.71 0,0.319 c 0,0.426 -0.027,0.813 -0.082,1.16 -0.055,0.346 -0.158,0.642 -0.309,0.886 -0.151,0.244 -0.359,0.433 -0.624,0.567 -0.264,0.134 -0.603,0.201 -1.015,0.201 -0.481,0 -0.865,-0.08 -1.154,-0.237 -0.289,-0.159 -0.51,-0.371 -0.665,-0.639 -0.154,-0.268 -0.257,-0.574 -0.309,-0.918 -0.051,-0.343 -0.077,-0.7 -0.077,-1.071 0,-0.344 0.015,-0.693 0.046,-1.046 0.031,-0.354 0.115,-0.674 0.253,-0.959 0.137,-0.285 0.35,-0.517 0.639,-0.695 0.288,-0.179 0.69,-0.268 1.205,-0.268 0.681,0 1.179,0.173 1.495,0.52 0.316,0.347 0.487,0.843 0.515,1.489 l -1.278,0 c -0.041,-0.35 -0.117,-0.611 -0.227,-0.783 -0.11,-0.172 -0.285,-0.258 -0.525,-0.258 -0.131,0 -0.241,0.037 -0.33,0.109 -0.089,0.072 -0.161,0.168 -0.216,0.288 -0.055,0.12 -0.095,0.258 -0.119,0.412 -0.024,0.155 -0.036,0.315 -0.036,0.48 l 0,0.443 2.813,0 z m -2.813,0.845 0,0.216 c 0,0.131 0.012,0.261 0.036,0.392 0.024,0.13 0.064,0.249 0.119,0.355 0.055,0.107 0.128,0.193 0.221,0.258 0.093,0.065 0.211,0.098 0.356,0.098 0.144,0 0.262,-0.029 0.355,-0.088 0.093,-0.058 0.165,-0.144 0.217,-0.257 0.051,-0.114 0.087,-0.251 0.108,-0.413 0.02,-0.161 0.034,-0.348 0.041,-0.561 l -1.453,0 z m 3.36,-1.587 0,-0.196 c 0,-0.268 0.03,-0.51 0.092,-0.727 0.062,-0.216 0.17,-0.401 0.325,-0.556 0.154,-0.155 0.362,-0.273 0.623,-0.356 0.261,-0.082 0.595,-0.123 1,-0.123 0.295,0 0.57,0.036 0.824,0.108 0.254,0.072 0.473,0.18 0.655,0.325 0.182,0.144 0.324,0.326 0.427,0.546 0.103,0.22 0.155,0.474 0.155,0.762 0,0.419 -0.093,0.751 -0.278,0.995 -0.186,0.244 -0.502,0.441 -0.948,0.592 l -0.856,0.289 c -0.24,0.075 -0.403,0.168 -0.489,0.278 -0.086,0.11 -0.129,0.234 -0.129,0.371 0,0.199 0.067,0.349 0.201,0.448 0.134,0.1 0.29,0.15 0.469,0.15 0.233,0 0.397,-0.067 0.489,-0.201 0.093,-0.134 0.139,-0.345 0.139,-0.634 l 1.278,0 0,0.227 c 0,0.501 -0.154,0.889 -0.463,1.164 -0.31,0.275 -0.787,0.413 -1.433,0.413 -0.364,0 -0.675,-0.045 -0.932,-0.134 -0.258,-0.09 -0.469,-0.21 -0.634,-0.361 -0.165,-0.151 -0.285,-0.328 -0.361,-0.531 -0.076,-0.203 -0.113,-0.417 -0.113,-0.644 0,-0.391 0.099,-0.713 0.299,-0.963 0.199,-0.251 0.494,-0.445 0.886,-0.583 l 0.999,-0.36 c 0.138,-0.055 0.258,-0.129 0.361,-0.222 0.103,-0.093 0.155,-0.228 0.155,-0.407 0,-0.22 -0.066,-0.385 -0.196,-0.495 -0.131,-0.11 -0.306,-0.165 -0.526,-0.165 -0.24,0 -0.424,0.074 -0.551,0.222 -0.127,0.148 -0.191,0.342 -0.191,0.582 l 0,0.186 -1.277,0 z m 8.887,0.742 0,0.319 c 0,0.426 -0.028,0.813 -0.083,1.16 -0.055,0.346 -0.158,0.642 -0.309,0.886 -0.151,0.244 -0.359,0.433 -0.623,0.567 -0.265,0.134 -0.603,0.201 -1.016,0.201 -0.481,0 -0.865,-0.08 -1.154,-0.237 -0.288,-0.159 -0.51,-0.371 -0.664,-0.639 -0.155,-0.268 -0.258,-0.574 -0.31,-0.918 -0.051,-0.343 -0.077,-0.7 -0.077,-1.071 0,-0.344 0.016,-0.693 0.046,-1.046 0.031,-0.354 0.115,-0.674 0.253,-0.959 0.137,-0.285 0.35,-0.517 0.639,-0.695 0.288,-0.179 0.69,-0.268 1.206,-0.268 0.68,0 1.178,0.173 1.494,0.52 0.316,0.347 0.488,0.843 0.515,1.489 l -1.278,0 c -0.041,-0.35 -0.117,-0.611 -0.226,-0.783 -0.11,-0.172 -0.286,-0.258 -0.526,-0.258 -0.131,0 -0.241,0.037 -0.33,0.109 -0.089,0.072 -0.161,0.168 -0.216,0.288 -0.055,0.12 -0.095,0.258 -0.119,0.412 -0.024,0.155 -0.036,0.315 -0.036,0.48 l 0,0.443 2.814,0 z m -2.814,0.845 0,0.216 c 0,0.131 0.012,0.261 0.036,0.392 0.024,0.13 0.064,0.249 0.119,0.355 0.055,0.107 0.129,0.193 0.221,0.258 0.093,0.065 0.212,0.098 0.356,0.098 0.144,0 0.263,-0.029 0.355,-0.088 0.093,-0.058 0.165,-0.144 0.217,-0.257 0.051,-0.114 0.087,-0.251 0.108,-0.413 0.021,-0.161 0.034,-0.348 0.041,-0.561 l -1.453,0 z m 4.819,0.443 0,0.155 c 0,0.219 0.055,0.394 0.165,0.525 0.11,0.13 0.275,0.196 0.494,0.196 0.241,0 0.411,-0.06 0.511,-0.18 0.099,-0.121 0.149,-0.287 0.149,-0.5 0,-0.186 -0.041,-0.327 -0.124,-0.423 -0.082,-0.096 -0.23,-0.172 -0.443,-0.226 L 73.18,-4.184 C 72.933,-4.253 72.722,-4.332 72.547,-4.421 72.371,-4.51 72.227,-4.622 72.114,-4.756 72,-4.89 71.916,-5.051 71.861,-5.24 c -0.055,-0.189 -0.082,-0.414 -0.082,-0.675 0,-0.186 0.024,-0.373 0.072,-0.562 0.048,-0.189 0.124,-0.359 0.227,-0.51 0.103,-0.151 0.24,-0.275 0.412,-0.371 0.172,-0.096 0.381,-0.144 0.629,-0.144 0.343,0 0.623,0.048 0.839,0.144 0.217,0.096 0.408,0.289 0.572,0.577 l 0.021,0 c 0.021,-0.096 0.043,-0.194 0.067,-0.294 0.024,-0.099 0.06,-0.194 0.108,-0.283 l 1.36,0 c -0.068,0.165 -0.115,0.32 -0.139,0.464 -0.024,0.144 -0.036,0.347 -0.036,0.608 l 0,2.916 c 0,0.248 -0.025,0.476 -0.077,0.685 -0.052,0.21 -0.149,0.39 -0.294,0.542 -0.144,0.151 -0.348,0.267 -0.613,0.35 -0.264,0.082 -0.606,0.124 -1.025,0.124 -0.268,0 -0.521,-0.03 -0.758,-0.088 -0.237,-0.058 -0.443,-0.155 -0.618,-0.289 -0.175,-0.134 -0.314,-0.311 -0.417,-0.53 -0.103,-0.22 -0.155,-0.488 -0.155,-0.804 l 0,-0.134 1.278,0 z m 1.319,-2.164 c 0,-0.158 -0.028,-0.29 -0.082,-0.397 -0.056,-0.107 -0.126,-0.194 -0.212,-0.263 -0.086,-0.068 -0.18,-0.118 -0.283,-0.149 -0.103,-0.031 -0.203,-0.047 -0.299,-0.047 -0.192,0 -0.33,0.076 -0.412,0.227 -0.083,0.151 -0.124,0.333 -0.124,0.546 0,0.248 0.062,0.444 0.186,0.588 0.123,0.144 0.329,0.247 0.618,0.309 0.089,0.021 0.189,0.053 0.299,0.098 0.11,0.044 0.213,0.105 0.309,0.18 l 0,-1.092 z m 2.346,-1.68 1.422,0 0,3.329 c 0,0.185 0.031,0.341 0.093,0.469 0.062,0.127 0.145,0.23 0.248,0.309 0.103,0.079 0.216,0.135 0.34,0.17 0.123,0.034 0.247,0.051 0.371,0.051 0.075,0 0.149,-0.001 0.221,-0.005 0.072,-0.003 0.146,-0.009 0.222,-0.015 l 0,1.36 c -0.041,0.007 -0.084,0.012 -0.129,0.015 -0.045,0.004 -0.088,0.006 -0.129,0.006 -0.295,0 -0.546,-0.081 -0.752,-0.243 -0.206,-0.161 -0.381,-0.376 -0.526,-0.644 l -0.02,0 0,0.742 -1.361,0 0,-5.544 z m 7.553,3.545 c 0,0.66 -0.167,1.182 -0.5,1.566 -0.333,0.385 -0.829,0.578 -1.489,0.578 -0.33,0 -0.632,-0.045 -0.907,-0.134 -0.275,-0.09 -0.512,-0.246 -0.711,-0.469 -0.199,-0.224 -0.354,-0.522 -0.464,-0.897 -0.11,-0.374 -0.164,-0.847 -0.164,-1.417 0,-0.556 0.044,-1.022 0.133,-1.396 0.09,-0.375 0.222,-0.674 0.397,-0.897 0.175,-0.223 0.395,-0.383 0.66,-0.479 0.264,-0.096 0.575,-0.144 0.932,-0.144 0.756,0 1.297,0.196 1.623,0.587 0.327,0.392 0.49,0.952 0.49,1.68 l -1.36,0 c 0,-0.453 -0.055,-0.783 -0.165,-0.989 -0.11,-0.206 -0.285,-0.31 -0.526,-0.31 -0.158,0 -0.287,0.037 -0.386,0.109 -0.1,0.072 -0.177,0.187 -0.232,0.345 -0.055,0.158 -0.093,0.359 -0.113,0.603 -0.021,0.244 -0.031,0.537 -0.031,0.881 0,0.316 0.01,0.594 0.031,0.835 0.02,0.24 0.058,0.438 0.113,0.592 0.055,0.155 0.136,0.271 0.242,0.351 0.107,0.078 0.249,0.118 0.428,0.118 0.13,0 0.238,-0.033 0.324,-0.098 0.086,-0.065 0.151,-0.151 0.196,-0.257 0.045,-0.107 0.076,-0.227 0.093,-0.361 0.017,-0.134 0.026,-0.266 0.026,-0.397 l 1.36,0 z m 0.765,-3.545 1.422,0 0,3.679 c 0,0.611 0.25,0.917 0.752,0.917 0.213,0 0.367,-0.056 0.464,-0.17 0.096,-0.113 0.144,-0.314 0.144,-0.603 l 0,-3.823 1.422,0 0,4.112 c 0,0.556 -0.122,0.958 -0.366,1.206 -0.244,0.247 -0.592,0.371 -1.046,0.371 -0.625,0 -1.075,-0.237 -1.35,-0.712 l -0.02,0 0,2.381 -1.422,0 0,-7.358 z m 12.189,4.874 c 0,0.268 -0.019,0.555 -0.057,0.861 -0.037,0.306 -0.132,0.591 -0.283,0.855 -0.151,0.265 -0.38,0.483 -0.685,0.655 -0.306,0.171 -0.723,0.257 -1.252,0.257 -0.557,0 -1,-0.094 -1.33,-0.283 -0.33,-0.189 -0.582,-0.452 -0.757,-0.788 -0.175,-0.337 -0.289,-0.741 -0.34,-1.211 -0.052,-0.471 -0.078,-0.984 -0.078,-1.541 0,-0.556 0.026,-1.07 0.078,-1.541 0.051,-0.47 0.165,-0.874 0.34,-1.21 0.175,-0.337 0.427,-0.6 0.757,-0.789 0.33,-0.189 0.773,-0.283 1.33,-0.283 0.487,0 0.884,0.079 1.19,0.237 0.305,0.158 0.543,0.372 0.711,0.644 0.168,0.271 0.283,0.586 0.345,0.943 0.062,0.357 0.093,0.735 0.093,1.133 l -1.484,0 c 0,-0.398 -0.024,-0.719 -0.072,-0.963 -0.048,-0.244 -0.114,-0.433 -0.196,-0.567 -0.082,-0.134 -0.18,-0.223 -0.294,-0.268 -0.113,-0.045 -0.235,-0.067 -0.366,-0.067 -0.158,0 -0.297,0.033 -0.417,0.098 -0.12,0.065 -0.22,0.192 -0.299,0.381 -0.079,0.189 -0.137,0.455 -0.175,0.799 -0.038,0.343 -0.057,0.794 -0.057,1.35 0,0.522 0.014,0.964 0.042,1.324 0.027,0.361 0.075,0.653 0.144,0.876 0.068,0.223 0.163,0.385 0.283,0.484 0.12,0.1 0.273,0.15 0.459,0.15 0.336,0 0.568,-0.122 0.695,-0.366 0.128,-0.244 0.191,-0.634 0.191,-1.17 l 1.484,0 z m 4.95,-2.318 0,0.319 c 0,0.426 -0.028,0.813 -0.083,1.16 -0.055,0.346 -0.158,0.642 -0.309,0.886 -0.151,0.244 -0.359,0.433 -0.624,0.567 -0.264,0.134 -0.602,0.201 -1.015,0.201 -0.481,0 -0.865,-0.08 -1.154,-0.237 -0.288,-0.159 -0.51,-0.371 -0.664,-0.639 -0.155,-0.268 -0.258,-0.574 -0.31,-0.918 -0.051,-0.343 -0.077,-0.7 -0.077,-1.071 0,-0.344 0.016,-0.693 0.046,-1.046 0.031,-0.354 0.115,-0.674 0.253,-0.959 0.137,-0.285 0.35,-0.517 0.639,-0.695 0.288,-0.179 0.69,-0.268 1.206,-0.268 0.68,0 1.178,0.173 1.494,0.52 0.316,0.347 0.488,0.843 0.515,1.489 l -1.278,0 c -0.041,-0.35 -0.117,-0.611 -0.226,-0.783 -0.11,-0.172 -0.286,-0.258 -0.526,-0.258 -0.131,0 -0.241,0.037 -0.33,0.109 -0.089,0.072 -0.161,0.168 -0.216,0.288 -0.055,0.12 -0.095,0.258 -0.119,0.412 -0.024,0.155 -0.036,0.315 -0.036,0.48 l 0,0.443 2.814,0 z m -2.814,0.845 0,0.216 c 0,0.131 0.012,0.261 0.036,0.392 0.024,0.13 0.064,0.249 0.119,0.355 0.055,0.107 0.129,0.193 0.221,0.258 0.093,0.065 0.212,0.098 0.356,0.098 0.144,0 0.263,-0.029 0.355,-0.088 0.093,-0.058 0.165,-0.144 0.217,-0.257 0.051,-0.114 0.087,-0.251 0.108,-0.413 0.021,-0.161 0.034,-0.348 0.041,-0.561 l -1.453,0 z m 3.592,-3.401 1.422,0 0,3.679 c 0,0.611 0.25,0.917 0.752,0.917 0.213,0 0.367,-0.056 0.464,-0.17 0.096,-0.113 0.144,-0.314 0.144,-0.603 l 0,-3.823 1.422,0 0,4.112 c 0,0.556 -0.122,0.958 -0.366,1.206 -0.244,0.247 -0.592,0.371 -1.046,0.371 -0.309,0 -0.584,-0.064 -0.824,-0.191 -0.241,-0.127 -0.437,-0.328 -0.588,-0.603 l -0.02,0 0,0.649 -1.36,0 0,-5.544 z m 5.502,5.544 -0.722,0 0,-0.968 0.722,0 0,-3.174 c 0,-0.282 0.017,-0.516 0.051,-0.701 0.034,-0.186 0.098,-0.335 0.191,-0.448 0.092,-0.114 0.225,-0.195 0.396,-0.243 0.172,-0.048 0.399,-0.072 0.681,-0.072 0.164,0 0.321,0.007 0.468,0.021 0.148,0.014 0.301,0.027 0.459,0.041 l 0,0.989 c -0.048,-0.007 -0.1,-0.012 -0.155,-0.015 -0.055,-0.004 -0.11,-0.005 -0.164,-0.005 -0.207,0 -0.342,0.046 -0.407,0.139 -0.066,0.093 -0.098,0.249 -0.098,0.469 l 0,2.999 0.824,0 0,0.968 -0.824,0 0,1.587 -1.422,0 0,-1.587 z m 6.856,-2.988 0,0.319 c 0,0.426 -0.027,0.813 -0.082,1.16 -0.055,0.346 -0.158,0.642 -0.309,0.886 -0.151,0.244 -0.359,0.433 -0.624,0.567 -0.264,0.134 -0.602,0.201 -1.015,0.201 -0.481,0 -0.865,-0.08 -1.154,-0.237 -0.288,-0.159 -0.51,-0.371 -0.665,-0.639 -0.154,-0.268 -0.257,-0.574 -0.309,-0.918 -0.051,-0.343 -0.077,-0.7 -0.077,-1.071 0,-0.344 0.016,-0.693 0.046,-1.046 0.031,-0.354 0.115,-0.674 0.253,-0.959 0.137,-0.285 0.35,-0.517 0.639,-0.695 0.288,-0.179 0.69,-0.268 1.206,-0.268 0.68,0 1.178,0.173 1.494,0.52 0.316,0.347 0.488,0.843 0.515,1.489 l -1.278,0 c -0.041,-0.35 -0.117,-0.611 -0.227,-0.783 -0.109,-0.172 -0.285,-0.258 -0.525,-0.258 -0.131,0 -0.241,0.037 -0.33,0.109 -0.089,0.072 -0.161,0.168 -0.216,0.288 -0.055,0.12 -0.095,0.258 -0.119,0.412 -0.024,0.155 -0.036,0.315 -0.036,0.48 l 0,0.443 2.813,0 z m -2.813,0.845 0,0.216 c 0,0.131 0.012,0.261 0.036,0.392 0.024,0.13 0.064,0.249 0.119,0.355 0.055,0.107 0.129,0.193 0.221,0.258 0.093,0.065 0.212,0.098 0.356,0.098 0.144,0 0.263,-0.029 0.355,-0.088 0.093,-0.058 0.165,-0.144 0.217,-0.257 0.051,-0.114 0.087,-0.251 0.108,-0.413 0.021,-0.161 0.034,-0.348 0.041,-0.561 l -1.453,0 z m 3.592,-3.401 1.422,0 0,3.329 c 0,0.185 0.031,0.341 0.092,0.469 0.062,0.127 0.145,0.23 0.248,0.309 0.103,0.079 0.216,0.135 0.34,0.17 0.123,0.034 0.247,0.051 0.371,0.051 0.075,0 0.149,-0.001 0.221,-0.005 0.072,-0.003 0.146,-0.009 0.222,-0.015 l 0,1.36 c -0.041,0.007 -0.084,0.012 -0.129,0.015 -0.045,0.004 -0.088,0.006 -0.129,0.006 -0.295,0 -0.546,-0.081 -0.752,-0.243 -0.206,-0.161 -0.381,-0.376 -0.526,-0.644 l -0.02,0 0,0.742 -1.36,0 0,-5.544 z"
               inkscape:connector-curvature="0" />
          </g>
        </g>
      </g>
    </g>
  </g>
</svg>
