<?xml version="1.0" encoding="UTF-8" standalone="no"?>
<!DOCTYPE svg PUBLIC "-//W3C//DTD SVG 1.1//EN" "http://www.w3.org/Graphics/SVG/1.1/DTD/svg11.dtd">
<!-- Created with Inkscape (http://www.inkscape.org/) -->
<svg
   xmlns:dc="http://purl.org/dc/elements/1.1/"
   xmlns:cc="http://creativecommons.org/ns#"
   xmlns:rdf="http://www.w3.org/1999/02/22-rdf-syntax-ns#"
   xmlns:svg="http://www.w3.org/2000/svg"
   xmlns="http://www.w3.org/2000/svg"
   version="1.1"
   width="400"
   height="105"
   id="svg2985"
   xml:space="preserve"><metadata
     id="metadata2991"><rdf:RDF><cc:Work
         rdf:about=""><dc:format>image/svg+xml</dc:format><dc:type
           rdf:resource="http://purl.org/dc/dcmitype/StillImage" /><dc:title></dc:title></cc:Work></rdf:RDF></metadata><defs
     id="defs2989"><linearGradient
       x1="-128"
       y1="0"
       x2="128"
       y2="0"
       id="linearGradient3509"
       gradientUnits="userSpaceOnUse"
       gradientTransform="matrix(0,0.0852966,2.3663025,0,343.026,855.076)"><stop
         id="stop3511"
         style="stop-color:white;stop-opacity:1"
         offset="0" /><stop
         id="stop3513"
         style="stop-color:#f9ac73;stop-opacity:1"
         offset="0.5" /><stop
         id="stop3515"
         style="stop-color:#f36717;stop-opacity:1"
         offset="1" /></linearGradient><linearGradient
       x1="-128"
       y1="0"
       x2="128"
       y2="0"
       id="linearGradient3593"
       gradientUnits="userSpaceOnUse"
       gradientTransform="matrix(0,0.0852966,2.3663025,0,-260.886,855.076)"><stop
         id="stop3595"
         style="stop-color:white;stop-opacity:1"
         offset="0" /><stop
         id="stop3597"
         style="stop-color:#f9ac73;stop-opacity:1"
         offset="0.5" /><stop
         id="stop3599"
         style="stop-color:#f36717;stop-opacity:1"
         offset="1" /></linearGradient></defs><g
     transform="matrix(1.2232225,0,0,-1.2234375,0,105)"
     id="g2993"><g
       transform="matrix(2.6332484,0,0,2.6332484,-1060.8763,-547.07195)"
       id="g5001"
       style="fill:#3f80b0;fill-opacity:1"><path
         d="m 483.97399,225.734 c 0.45,0 0.601,0.014 0.779,0.079 0.25,0.093 0.4,0.329 0.4,0.629 0,0.243 -0.107,0.443 -0.307,0.558 -0.186,0.107 -0.315,0.121 -0.936,0.121 l -0.265,0 0,-1.387 0.329,0 z m -0.058,2.166 c 0.844,0 1.165,-0.05 1.495,-0.228 0.429,-0.229 0.679,-0.687 0.679,-1.237 0,-0.622 -0.286,-1.073 -0.844,-1.323 l 1.094,-1.981 -1.065,0 -0.973,1.824 -0.657,0 0,-1.824 -0.916,0 0,4.769 1.187,0"
         id="path3313"
         style="fill:#3f80b0;fill-opacity:1;fill-rule:nonzero;stroke:none" /><path
         d="m 488.90699,225.262 c -0.071,0.458 -0.286,0.679 -0.672,0.679 -0.386,0 -0.63,-0.221 -0.744,-0.679 l 1.416,0 z m -1.437,-0.643 c 0.028,-0.558 0.329,-0.873 0.822,-0.873 0.322,0 0.544,0.122 0.658,0.379 l 0.779,-0.036 c -0.15,-0.65 -0.708,-1.051 -1.459,-1.051 -1.029,0 -1.68,0.68 -1.68,1.752 0,1.101 0.658,1.831 1.652,1.831 0.958,0 1.552,-0.701 1.552,-1.831 l 0,-0.171 -2.324,0"
         id="path3317"
         style="fill:#3f80b0;fill-opacity:1;fill-rule:nonzero;stroke:none" /><path
         d="m 492.324,225.498 c -0.043,0.322 -0.214,0.472 -0.543,0.472 -0.272,0 -0.472,-0.15 -0.472,-0.351 0,-0.1 0.05,-0.193 0.143,-0.243 0.1,-0.064 0.172,-0.086 0.686,-0.236 0.515,-0.15 0.73,-0.257 0.866,-0.436 0.128,-0.15 0.192,-0.35 0.192,-0.572 0,-0.686 -0.507,-1.094 -1.38,-1.094 -0.993,0 -1.508,0.422 -1.508,1.23 l 0.829,0 c 0.029,-0.4 0.222,-0.565 0.644,-0.565 0.336,0 0.536,0.143 0.536,0.365 0,0.136 -0.057,0.2 -0.243,0.279 -0.1,0.043 -0.1,0.043 -0.7,0.221 -0.372,0.115 -0.566,0.208 -0.701,0.343 -0.15,0.151 -0.236,0.372 -0.236,0.615 0,0.658 0.543,1.102 1.358,1.102 0.83,0 1.33,-0.415 1.38,-1.13 l -0.851,0"
         id="path3321"
         style="fill:#3f80b0;fill-opacity:1;fill-rule:nonzero;stroke:none" /><path
         d="m 496.057,225.262 c -0.071,0.458 -0.286,0.679 -0.672,0.679 -0.386,0 -0.63,-0.221 -0.744,-0.679 l 1.416,0 z m -1.437,-0.643 c 0.028,-0.558 0.329,-0.873 0.822,-0.873 0.322,0 0.544,0.122 0.658,0.379 l 0.779,-0.036 c -0.15,-0.65 -0.708,-1.051 -1.459,-1.051 -1.029,0 -1.68,0.68 -1.68,1.752 0,1.101 0.658,1.831 1.652,1.831 0.958,0 1.552,-0.701 1.552,-1.831 l 0,-0.171 -2.324,0"
         id="path3325"
         style="fill:#3f80b0;fill-opacity:1;fill-rule:nonzero;stroke:none" /><path
         d="m 499.525,224.747 c -0.579,-0.071 -0.801,-0.129 -0.951,-0.236 -0.129,-0.093 -0.201,-0.229 -0.201,-0.372 0,-0.236 0.215,-0.407 0.515,-0.407 0.265,0 0.487,0.128 0.573,0.329 0.05,0.1 0.064,0.243 0.064,0.493 l 0,0.193 z m -1.931,0.765 c 0.05,0.386 0.158,0.601 0.4,0.786 0.258,0.194 0.644,0.301 1.081,0.301 0.585,0 1.008,-0.186 1.164,-0.508 0.101,-0.2 0.137,-0.407 0.137,-0.836 l 0,-1.366 c 0,-0.407 0.028,-0.579 0.114,-0.758 l -0.801,0 c -0.035,0.136 -0.042,0.215 -0.042,0.386 -0.186,-0.307 -0.487,-0.457 -0.937,-0.457 -0.779,0 -1.237,0.357 -1.237,0.965 0,0.472 0.272,0.829 0.772,1.015 0.308,0.122 0.357,0.129 1.28,0.293 l 0,0.057 c 0,0.372 -0.143,0.515 -0.515,0.515 -0.336,0 -0.529,-0.128 -0.579,-0.393 l -0.837,0"
         id="path3329"
         style="fill:#3f80b0;fill-opacity:1;fill-rule:nonzero;stroke:none" /><path
         d="m 502.128,226.527 c 0.036,-0.15 0.057,-0.336 0.057,-0.529 0,-0.036 0,-0.1 -0.008,-0.179 0.273,0.551 0.566,0.78 0.981,0.78 0.093,0 0.121,-0.008 0.264,-0.043 l 0,-0.894 c -0.165,0.107 -0.343,0.164 -0.53,0.164 -0.464,0 -0.679,-0.357 -0.679,-1.115 l 0,-1.58 -0.879,0 0,2.352 c 0,0.15 0,0.351 -0.007,0.601 0,0.193 -0.007,0.257 -0.036,0.443 l 0.837,0"
         id="path3333"
         style="fill:#3f80b0;fill-opacity:1;fill-rule:nonzero;stroke:none" /><path
         d="m 505.953,225.40499 c -0.051,0.336 -0.237,0.508 -0.544,0.508 -0.45,0 -0.743,-0.429 -0.743,-1.087 0,-0.679 0.272,-1.08 0.729,-1.08 0.351,0 0.543,0.194 0.593,0.594 l 0.851,0 c -0.043,-0.78 -0.622,-1.301 -1.444,-1.301 -0.973,0 -1.63,0.722 -1.63,1.787 0,1.08 0.657,1.795 1.644,1.795 0.808,0 1.302,-0.429 1.409,-1.216 l -0.865,0"
         id="path3337"
         style="fill:#3f80b0;fill-opacity:1;fill-rule:nonzero;stroke:none" /><path
         d="m 508.40499,227.929 0,-1.773 c 0.265,0.293 0.586,0.443 0.98,0.443 0.429,0 0.815,-0.193 0.993,-0.5 0.129,-0.215 0.158,-0.415 0.158,-1.009 l 0,-1.959 -0.88,0 0,1.766 c 0,0.343 -0.021,0.508 -0.093,0.644 -0.093,0.186 -0.264,0.286 -0.486,0.286 -0.25,0 -0.479,-0.143 -0.586,-0.372 -0.057,-0.136 -0.086,-0.307 -0.086,-0.586 l 0,-1.738 -0.879,0 0,4.798 0.879,0"
         id="path3341"
         style="fill:#3f80b0;fill-opacity:1;fill-rule:nonzero;stroke:none" /><path
         d="m 484.302,218.26899 -0.608,-1.945 1.223,0 -0.615,1.945 z m 0.465,1.051 1.622,-4.769 -0.95,0 -0.293,0.994 -1.681,0 -0.3,-0.994 -0.936,0 1.608,4.769 0.93,0"
         id="path3345"
         style="fill:#3f80b0;fill-opacity:1;fill-rule:nonzero;stroke:none" /><path
         d="m 486.955,214.551 0.879,0 0,4.798 -0.879,0 0,-4.798 z"
         id="path3347"
         style="fill:#3f80b0;fill-opacity:1;fill-rule:nonzero;stroke:none" /><path
         d="m 488.82,214.551 0.88,0 0,4.798 -0.88,0 0,-4.798 z"
         id="path3349"
         style="fill:#3f80b0;fill-opacity:1;fill-rule:nonzero;stroke:none" /><path
         d="m 490.68701,217.94799 0.879,0 0,-3.397 -0.879,0 0,3.397 z m 0.879,0 z m 0.071,0.958 c 0,-0.315 -0.2,-0.515 -0.507,-0.515 -0.315,0 -0.514,0.193 -0.514,0.501 0,0.314 0.214,0.521 0.528,0.521 0.293,0 0.493,-0.207 0.493,-0.507"
         id="path3353"
         style="fill:#3f80b0;fill-opacity:1;fill-rule:nonzero;stroke:none" /><path
         d="m 494.39801,216.167 c -0.579,-0.071 -0.801,-0.128 -0.952,-0.236 -0.128,-0.093 -0.2,-0.229 -0.2,-0.371 0,-0.237 0.215,-0.409 0.515,-0.409 0.265,0 0.486,0.129 0.573,0.33 0.049,0.1 0.064,0.243 0.064,0.493 l 0,0.193 z m -1.931,0.765 c 0.05,0.386 0.157,0.601 0.4,0.787 0.258,0.193 0.644,0.3 1.081,0.3 0.585,0 1.008,-0.186 1.164,-0.508 0.101,-0.2 0.137,-0.407 0.137,-0.836 l 0,-1.366 c 0,-0.407 0.028,-0.579 0.114,-0.758 l -0.801,0 c -0.036,0.136 -0.042,0.215 -0.042,0.387 -0.186,-0.308 -0.487,-0.458 -0.938,-0.458 -0.779,0 -1.237,0.357 -1.237,0.965 0,0.472 0.273,0.829 0.773,1.015 0.307,0.122 0.357,0.129 1.28,0.293 l 0,0.057 c 0,0.373 -0.143,0.516 -0.515,0.516 -0.336,0 -0.529,-0.129 -0.579,-0.394 l -0.837,0"
         id="path3357"
         style="fill:#3f80b0;fill-opacity:1;fill-rule:nonzero;stroke:none" /><path
         d="m 496.957,217.94799 c 0.05,-0.107 0.072,-0.25 0.072,-0.436 0.25,0.336 0.593,0.507 1.008,0.507 0.422,0 0.793,-0.186 0.973,-0.493 0.128,-0.229 0.156,-0.4 0.156,-1.015 l 0,-1.96 -0.879,0 0,1.766 c 0,0.358 -0.022,0.53 -0.085,0.659 -0.086,0.178 -0.251,0.271 -0.466,0.271 -0.25,0 -0.471,-0.136 -0.564,-0.365 -0.065,-0.129 -0.079,-0.271 -0.079,-0.593 l 0,-1.738 -0.88,0 0,2.181 c 0,0.823 -0.007,0.887 -0.107,1.216 l 0.851,0"
         id="path3361"
         style="fill:#3f80b0;fill-opacity:1;fill-rule:nonzero;stroke:none" /><path
         d="m 502.06201,216.82499 c -0.05,0.336 -0.236,0.508 -0.543,0.508 -0.45,0 -0.743,-0.43 -0.743,-1.087 0,-0.679 0.271,-1.08 0.729,-1.08 0.35,0 0.543,0.193 0.593,0.593 l 0.851,0 c -0.043,-0.779 -0.622,-1.3 -1.444,-1.3 -0.973,0 -1.631,0.721 -1.631,1.787 0,1.08 0.658,1.795 1.645,1.795 0.808,0 1.301,-0.43 1.408,-1.216 l -0.865,0"
         id="path3365"
         style="fill:#3f80b0;fill-opacity:1;fill-rule:nonzero;stroke:none" /><path
         d="m 505.74501,216.682 c -0.072,0.458 -0.287,0.679 -0.673,0.679 -0.386,0 -0.629,-0.221 -0.743,-0.679 l 1.416,0 z m -1.438,-0.643 c 0.029,-0.559 0.329,-0.873 0.823,-0.873 0.322,0 0.543,0.122 0.658,0.379 l 0.779,-0.036 c -0.151,-0.651 -0.708,-1.051 -1.459,-1.051 -1.03,0 -1.68,0.679 -1.68,1.752 0,1.101 0.658,1.83 1.652,1.83 0.958,0 1.551,-0.701 1.551,-1.83 l 0,-0.171 -2.324,0"
         id="path3369"
         style="fill:#3f80b0;fill-opacity:1;fill-rule:nonzero;stroke:none" /><path
         d="m 484.47599,236.28199 0,-3.797 c 0,-0.879 -0.029,-1.094 -0.172,-1.358 -0.221,-0.393 -0.665,-0.572 -1.43,-0.572 -0.057,0 -0.15,0 -0.271,0.007 l 0,0.765 0.156,0 c 0.415,0.007 0.637,0.072 0.723,0.222 0.071,0.107 0.079,0.214 0.079,0.915 l 0,3.818 0.915,0"
         id="path3373"
         style="fill:#3f80b0;fill-opacity:1;fill-rule:nonzero;stroke:none" /><path
         d="m 488.122,235.917 c 0,-0.265 -0.215,-0.486 -0.486,-0.486 -0.265,0 -0.486,0.221 -0.486,0.486 0,0.272 0.215,0.486 0.493,0.486 0.264,0 0.479,-0.222 0.479,-0.486 z m -1.273,0 c 0,-0.265 -0.214,-0.486 -0.486,-0.486 -0.264,0 -0.486,0.221 -0.486,0.486 0,0.272 0.214,0.486 0.493,0.486 0.265,0 0.479,-0.222 0.479,-0.486 z m -0.479,-1.008 0,-1.931 c 0,-0.536 0.172,-0.765 0.58,-0.765 0.45,0 0.672,0.286 0.672,0.88 l 0,1.816 0.879,0 0,-2.345 c 0,-0.751 0,-0.751 0.086,-1.051 l -0.829,0 c -0.036,0.078 -0.065,0.236 -0.072,0.393 -0.265,-0.336 -0.536,-0.465 -0.951,-0.465 -0.465,0 -0.865,0.208 -1.065,0.544 -0.122,0.2 -0.179,0.522 -0.179,0.944 l 0,1.98 0.879,0"
         id="path3377"
         style="fill:#3f80b0;fill-opacity:1;fill-rule:nonzero;stroke:none" /><path
         d="m 489.488,231.513 0.88,0 0,4.798 -0.88,0 0,-4.798 z"
         id="path3379"
         style="fill:#3f80b0;fill-opacity:1;fill-rule:nonzero;stroke:none" /><path
         d="m 491.354,234.90901 0.879,0 0,-3.396 -0.879,0 0,3.396 z m 0.879,0 z m 0.072,0.958 c 0,-0.314 -0.2,-0.515 -0.508,-0.515 -0.315,0 -0.514,0.193 -0.514,0.501 0,0.314 0.214,0.522 0.529,0.522 0.293,0 0.493,-0.208 0.493,-0.508"
         id="path3383"
         style="fill:#3f80b0;fill-opacity:1;fill-rule:nonzero;stroke:none" /><path
         d="m 495.151,233.787 c -0.051,0.336 -0.237,0.508 -0.543,0.508 -0.451,0 -0.744,-0.429 -0.744,-1.087 0,-0.679 0.272,-1.08 0.729,-1.08 0.351,0 0.544,0.193 0.593,0.594 l 0.851,0 c -0.043,-0.78 -0.622,-1.301 -1.444,-1.301 -0.972,0 -1.63,0.722 -1.63,1.787 0,1.08 0.658,1.795 1.645,1.795 0.807,0 1.301,-0.429 1.408,-1.216 l -0.865,0"
         id="path3387"
         style="fill:#3f80b0;fill-opacity:1;fill-rule:nonzero;stroke:none" /><path
         d="m 497.602,236.311 0,-1.773 c 0.265,0.293 0.586,0.443 0.98,0.443 0.429,0 0.815,-0.193 0.993,-0.5 0.129,-0.215 0.158,-0.415 0.158,-1.009 l 0,-1.959 -0.88,0 0,1.766 c 0,0.343 -0.021,0.508 -0.093,0.644 -0.092,0.186 -0.264,0.286 -0.485,0.286 -0.251,0 -0.479,-0.143 -0.587,-0.372 -0.057,-0.136 -0.086,-0.307 -0.086,-0.586 l 0,-1.738 -0.879,0 0,4.798 0.879,0"
         id="path3391"
         style="fill:#3f80b0;fill-opacity:1;fill-rule:nonzero;stroke:none" /><path
         d="m 503.58,235.231 -0.607,-1.945 1.222,0 -0.615,1.945 z m 0.465,1.051 1.623,-4.769 -0.951,0 -0.293,0.994 -1.68,0 -0.3,-0.994 -0.937,0 1.609,4.769 0.929,0"
         id="path3395"
         style="fill:#3f80b0;fill-opacity:1;fill-rule:nonzero;stroke:none" /><path
         d="m 508.03401,233.12899 c -0.579,-0.071 -0.801,-0.129 -0.951,-0.236 -0.129,-0.093 -0.2,-0.229 -0.2,-0.372 0,-0.236 0.214,-0.407 0.515,-0.407 0.264,0 0.485,0.129 0.572,0.329 0.05,0.1 0.064,0.243 0.064,0.493 l 0,0.193 z m -1.93,0.765 c 0.05,0.386 0.156,0.601 0.4,0.786 0.257,0.194 0.644,0.301 1.08,0.301 0.586,0 1.008,-0.186 1.165,-0.508 0.1,-0.2 0.136,-0.407 0.136,-0.836 l 0,-1.366 c 0,-0.407 0.028,-0.579 0.114,-0.758 l -0.801,0 c -0.035,0.136 -0.042,0.215 -0.042,0.386 -0.186,-0.307 -0.487,-0.457 -0.938,-0.457 -0.778,0 -1.236,0.357 -1.236,0.965 0,0.472 0.272,0.829 0.772,1.015 0.308,0.122 0.358,0.129 1.28,0.293 l 0,0.057 c 0,0.372 -0.143,0.515 -0.515,0.515 -0.336,0 -0.529,-0.128 -0.578,-0.393 l -0.837,0"
         id="path3399"
         style="fill:#3f80b0;fill-opacity:1;fill-rule:nonzero;stroke:none" /><path
         d="m 511.781,233.787 c -0.05,0.336 -0.236,0.508 -0.543,0.508 -0.45,0 -0.744,-0.429 -0.744,-1.087 0,-0.679 0.272,-1.08 0.73,-1.08 0.35,0 0.543,0.193 0.593,0.594 l 0.851,0 c -0.043,-0.78 -0.622,-1.301 -1.444,-1.301 -0.973,0 -1.631,0.722 -1.631,1.787 0,1.08 0.658,1.795 1.645,1.795 0.808,0 1.301,-0.429 1.408,-1.216 l -0.865,0"
         id="path3403"
         style="fill:#3f80b0;fill-opacity:1;fill-rule:nonzero;stroke:none" /><path
         d="m 514.23201,236.311 0,-1.773 c 0.265,0.293 0.587,0.443 0.98,0.443 0.429,0 0.815,-0.193 0.993,-0.5 0.13,-0.215 0.158,-0.415 0.158,-1.009 l 0,-1.959 -0.879,0 0,1.766 c 0,0.343 -0.022,0.508 -0.093,0.644 -0.093,0.186 -0.265,0.286 -0.486,0.286 -0.251,0 -0.479,-0.143 -0.587,-0.372 -0.057,-0.136 -0.086,-0.307 -0.086,-0.586 l 0,-1.738 -0.879,0 0,4.798 0.879,0"
         id="path3407"
         style="fill:#3f80b0;fill-opacity:1;fill-rule:nonzero;stroke:none" /><path
         d="m 519.38101,233.64399 c -0.071,0.458 -0.287,0.679 -0.672,0.679 -0.387,0 -0.629,-0.221 -0.744,-0.679 l 1.416,0 z m -1.438,-0.643 c 0.029,-0.558 0.33,-0.873 0.823,-0.873 0.322,0 0.544,0.122 0.657,0.379 l 0.78,-0.035 c -0.15,-0.651 -0.708,-1.052 -1.459,-1.052 -1.029,0 -1.68,0.68 -1.68,1.752 0,1.101 0.658,1.831 1.652,1.831 0.958,0 1.552,-0.701 1.552,-1.831 l 0,-0.171 -2.325,0"
         id="path3411"
         style="fill:#3f80b0;fill-opacity:1;fill-rule:nonzero;stroke:none" /><path
         d="m 521.747,234.90901 c 0.049,-0.107 0.071,-0.25 0.071,-0.436 0.25,0.336 0.594,0.508 1.009,0.508 0.421,0 0.793,-0.186 0.972,-0.494 0.129,-0.228 0.157,-0.4 0.157,-1.015 l 0,-1.959 -0.879,0 0,1.766 c 0,0.357 -0.022,0.529 -0.086,0.658 -0.086,0.178 -0.25,0.271 -0.465,0.271 -0.25,0 -0.472,-0.136 -0.565,-0.364 -0.064,-0.129 -0.078,-0.272 -0.078,-0.594 l 0,-1.737 -0.88,0 0,2.181 c 0,0.822 -0.007,0.886 -0.106,1.215 l 0.85,0"
         id="path3415"
         style="fill:#3f80b0;fill-opacity:1;fill-rule:nonzero;stroke:none" /><path
         d="m 414.82,236.759 0,-17.911 c 0,-4.149 -0.135,-5.162 -0.81,-6.409 -1.045,-1.855 -3.137,-2.698 -6.747,-2.698 -0.269,0 -0.707,0 -1.281,0.033 l 0,3.609 0.742,0 c 1.956,0.034 3.002,0.338 3.408,1.047 0.337,0.505 0.37,1.01 0.37,4.317 l 0,18.012 4.318,0"
         id="path3419"
         style="fill:#3f80b0;fill-opacity:1;fill-rule:nonzero;stroke:none" /><path
         d="m 426.61599,231.8 -2.867,-9.175 5.769,0 -2.902,9.175 z m 2.194,4.959 7.656,-22.5 -4.485,0 -1.385,4.689 -7.926,0 -1.417,-4.689 -4.419,0 7.591,22.5 4.385,0"
         id="path3423"
         style="fill:#3f80b0;fill-opacity:1;fill-rule:nonzero;stroke:none" /><path
         d="m 443.721,226.53801 c 2.126,0 2.834,0.068 3.677,0.371 1.181,0.438 1.889,1.551 1.889,2.969 0,1.146 -0.506,2.091 -1.45,2.631 -0.877,0.506 -1.485,0.573 -4.419,0.573 l -1.248,0 0,-6.544 1.551,0 z m -0.27,10.221 c 3.98,0 5.499,-0.236 7.051,-1.08 2.023,-1.078 3.204,-3.238 3.204,-5.835 0,-2.935 -1.349,-5.06 -3.98,-6.24 l 5.16,-9.345 -5.025,0 -4.588,8.603 -3.103,0 0,-8.603 -4.318,0 0,22.5 5.599,0"
         id="path3427"
         style="fill:#3f80b0;fill-opacity:1;fill-rule:nonzero;stroke:none" /><path
         d="m 465.72399,231.8 -2.867,-9.175 5.768,0 -2.901,9.175 z m 2.193,4.959 7.657,-22.5 -4.486,0 -1.384,4.689 -7.926,0 -1.416,-4.689 -4.421,0 7.591,22.5 4.385,0"
         id="path3431"
         style="fill:#3f80b0;fill-opacity:1;fill-rule:nonzero;stroke:none" /><path
         d="m 478.65901,238.25801 0,-25.377"
         id="path3435"
         style="fill:#3f80b0;fill-opacity:1;fill-rule:nonzero;stroke:none" /><path
         d="m 478.65901,238.25801 0,-25.377"
         id="path3439"
         style="fill:#3f80b0;fill-opacity:1;stroke:#467ab0;stroke-width:0.20886751;stroke-linecap:butt;stroke-linejoin:miter;stroke-miterlimit:4;stroke-opacity:1;stroke-dasharray:none" /></g></g></svg>