<?xml version="1.0" encoding="UTF-8" standalone="no"?>
<!-- Created with Inkscape (http://www.inkscape.org/) -->

<svg
   xmlns:dc="http://purl.org/dc/elements/1.1/"
   xmlns:cc="http://creativecommons.org/ns#"
   xmlns:rdf="http://www.w3.org/1999/02/22-rdf-syntax-ns#"
   xmlns:svg="http://www.w3.org/2000/svg"
   xmlns="http://www.w3.org/2000/svg"
   xmlns:sodipodi="http://sodipodi.sourceforge.net/DTD/sodipodi-0.dtd"
   xmlns:inkscape="http://www.inkscape.org/namespaces/inkscape"
   id="svg2"
   version="1.1"
   inkscape:version="0.91 r13725"
   xml:space="preserve"
   width="211.29625"
   height="75.737503"
   viewBox="0 0 211.29625 75.7375"
   sodipodi:docname="_Logo_RESERVE_Vector.svg"><metadata
     id="metadata8"><rdf:RDF><cc:Work
         rdf:about=""><dc:format>image/svg+xml</dc:format><dc:type
           rdf:resource="http://purl.org/dc/dcmitype/StillImage" /><dc:title></dc:title></cc:Work></rdf:RDF></metadata><defs
     id="defs6"><clipPath
       clipPathUnits="userSpaceOnUse"
       id="clipPath16"><path
         d="m 0,0 595.276,0 0,841.89 L 0,841.89 0,0 Z"
         id="path18"
         inkscape:connector-curvature="0" /></clipPath><linearGradient
       x1="0"
       y1="0"
       x2="1"
       y2="0"
       gradientUnits="userSpaceOnUse"
       gradientTransform="matrix(96.590553,96.590553,96.590553,-96.590553,200.12012,709.50873)"
       spreadMethod="pad"
       id="linearGradient38"><stop
         style="stop-opacity:1;stop-color:#0075be"
         offset="0"
         id="stop40" /><stop
         style="stop-opacity:1;stop-color:#09255c"
         offset="1"
         id="stop42" /></linearGradient></defs><sodipodi:namedview
     pagecolor="#ffffff"
     bordercolor="#666666"
     borderopacity="1"
     objecttolerance="10"
     gridtolerance="10"
     guidetolerance="10"
     inkscape:pageopacity="0"
     inkscape:pageshadow="2"
     inkscape:window-width="1440"
     inkscape:window-height="856"
     id="namedview4"
     showgrid="false"
     fit-margin-top="0"
     fit-margin-left="0"
     fit-margin-right="0"
     fit-margin-bottom="0"
     inkscape:zoom="4.8415436"
     inkscape:cx="105.64813"
     inkscape:cy="37.86875"
     inkscape:window-x="0"
     inkscape:window-y="0"
     inkscape:window-maximized="1"
     inkscape:current-layer="g10" /><g
     id="g10"
     inkscape:groupmode="layer"
     inkscape:label="styles_RESERVE_1612"
     transform="matrix(1.25,0,0,-1.25,-266.22375,946.0625)"><path
       d="m 262.678,739.468 7.476,0 0,-14.898 -7.476,0 0,14.898 z m 24.848,10.759 7.477,0 0,-25.657 -7.477,0 0,25.657 z m -12.426,6.622 7.478,0 0,-32.279 -7.478,0 0,32.279 z m 24.851,-3.313 7.476,0 0,-28.966 -7.476,0 0,28.966 z m 24.848,-14.068 7.476,0 0,-14.898 -7.476,0 0,14.898 z m -12.425,4.137 7.477,0 0,-19.035 -7.477,0 0,19.035 z m 37.272,0.004 7.474,0 0,-19.039 -7.474,0 0,19.039 z m -12.422,9.931 7.474,0 0,-28.97 -7.474,0 0,28.97 z m 37.271,-17.381 7.476,0 0,-11.589 -7.476,0 0,11.589 z m -12.424,20.691 7.476,0 0,-32.28 -7.476,0 0,32.28 z m -136.666,-13.241 7.477,0 0,-19.039 -7.477,0 0,19.039 z m -12.426,6.618 7.478,0 0,-25.657 -7.478,0 0,25.657 z m 37.274,-6.618 7.477,0 0,-19.039 -7.477,0 0,19.039 z m -12.423,13.241 7.475,0 0,-32.28 -7.475,0 0,32.28 z"
       style="fill:#b7d69a;fill-opacity:1;fill-rule:nonzero;stroke:none"
       id="path24"
       inkscape:connector-curvature="0" /><g
       id="g26"><g
         id="g28"><g
           id="g34"><g
             id="g36"><path
               d="m 268.367,720.677 c -1.361,-0.349 -2.515,-0.85 -3.465,-1.503 l 0,0 c -0.947,-0.654 -1.673,-1.455 -2.173,-2.403 l 0,0 c -0.5,-0.948 -0.752,-2.022 -0.752,-3.219 l 0,0 c 0,-2.442 0.758,-4.311 2.271,-5.607 l 0,0 c 1.517,-1.297 3.918,-2.131 7.206,-2.5 l 0,0 c 1.354,-0.175 2.305,-0.408 2.864,-0.703 l 0,0 c 0.555,-0.294 0.832,-0.725 0.832,-1.291 l 0,0 c 0,-0.502 -0.267,-0.845 -0.8,-1.03 l 0,0 c -0.532,-0.186 -1.487,-0.277 -2.863,-0.277 l 0,0 c -1.328,0 -2.76,0.085 -4.295,0.261 l 0,0 c -1.538,0.174 -3.349,0.469 -5.443,0.882 l 0,0 0,-6.08 c 0.761,-0.131 1.59,-0.257 2.485,-0.376 l 0,0 c 0.892,-0.119 1.796,-0.222 2.711,-0.31 l 0,0 c 0.915,-0.086 1.809,-0.151 2.681,-0.195 l 0,0 c 0.872,-0.044 1.667,-0.066 2.387,-0.066 l 0,0 c 3.814,0 6.641,0.649 8.48,1.945 l 0,0 c 1.843,1.295 2.764,3.295 2.764,5.998 l 0,0 c 0,2.069 -0.72,3.677 -2.157,4.821 l 0,0 c -1.439,1.143 -3.771,1.965 -6.999,2.467 l 0,0 c -1.477,0.218 -2.519,0.495 -3.118,0.836 l 0,0 c -0.599,0.335 -0.898,0.821 -0.898,1.453 l 0,0 c 0,1.024 1.274,1.535 3.824,1.535 l 0,0 c 1.197,0 2.516,-0.104 3.955,-0.31 l 0,0 c 1.437,-0.206 2.766,-0.495 3.988,-0.865 l 0,0 0,6.045 c -1.113,0.198 -2.087,0.36 -2.929,0.492 l 0,0 c -0.837,0.129 -1.6,0.234 -2.286,0.31 l 0,0 c -0.685,0.075 -1.319,0.13 -1.896,0.163 l 0,0 c -0.577,0.033 -1.157,0.049 -1.748,0.049 l 0,0 c -1.722,0 -3.263,-0.173 -4.626,-0.522 m 41.561,0 0,-24.027 7.683,0 0,7.225 0.947,0 c 0.435,0 0.86,0.005 1.276,0.018 l 0,0 c 0.412,0.01 0.815,0.026 1.206,0.047 l 0,0 4.087,-7.29 8.793,0 -6.145,8.73 c 3.181,1.439 4.774,3.834 4.774,7.19 l 0,0 c 0,1.503 -0.274,2.8 -0.819,3.89 l 0,0 c -0.544,1.088 -1.389,1.983 -2.534,2.681 l 0,0 c -1.143,0.696 -2.602,1.209 -4.379,1.536 l 0,0 c -1.775,0.326 -3.907,0.489 -6.39,0.489 l 0,0 c -2.571,0 -5.406,-0.163 -8.499,-0.489 m 8.549,-10.984 c -0.316,0.022 -0.604,0.077 -0.866,0.164 l 0,0 0,5.362 c 0.347,0.043 0.795,0.075 1.337,0.096 l 0,0 c 0.548,0.022 1.004,0.033 1.374,0.033 l 0,0 c 0.872,0 1.597,-0.043 2.176,-0.129 l 0,0 c 0.577,-0.088 1.03,-0.236 1.354,-0.443 l 0,0 c 0.327,-0.208 0.556,-0.496 0.687,-0.865 l 0,0 c 0.132,-0.372 0.197,-0.829 0.197,-1.373 l 0,0 c 0,-0.566 -0.076,-1.03 -0.229,-1.39 l 0,0 c -0.152,-0.359 -0.41,-0.654 -0.767,-0.882 l 0,0 c -0.362,-0.23 -0.852,-0.386 -1.473,-0.475 l 0,0 c -0.621,-0.088 -1.4,-0.131 -2.337,-0.131 l 0,0 c -0.654,0 -1.137,0.011 -1.453,0.033 m -105.498,10.984 0,-24.027 7.684,0 0,7.225 0.948,0 c 0.434,0 0.86,0.005 1.275,0.018 l 0,0 c 0.41,0.01 0.815,0.026 1.208,0.047 l 0,0 4.085,-7.29 8.795,0 -6.147,8.73 c 3.181,1.439 4.773,3.834 4.773,7.19 l 0,0 c 0,1.503 -0.274,2.8 -0.818,3.89 l 0,0 c -0.544,1.088 -1.389,1.983 -2.535,2.681 l 0,0 c -1.143,0.696 -2.601,1.209 -4.379,1.536 l 0,0 c -1.775,0.326 -3.904,0.489 -6.389,0.489 l 0,0 c -2.573,0 -5.403,-0.163 -8.5,-0.489 m 8.549,-10.984 c -0.317,0.022 -0.604,0.077 -0.865,0.164 l 0,0 0,5.362 c 0.347,0.043 0.796,0.075 1.34,0.096 l 0,0 c 0.545,0.022 1.001,0.033 1.372,0.033 l 0,0 c 0.87,0 1.595,-0.043 2.174,-0.129 l 0,0 c 0.578,-0.088 1.027,-0.236 1.355,-0.443 l 0,0 c 0.325,-0.208 0.558,-0.496 0.687,-0.865 l 0,0 c 0.132,-0.372 0.197,-0.829 0.197,-1.373 l 0,0 c 0,-0.566 -0.076,-1.03 -0.229,-1.39 l 0,0 c -0.152,-0.359 -0.408,-0.654 -0.768,-0.882 l 0,0 c -0.36,-0.23 -0.851,-0.386 -1.471,-0.475 l 0,0 c -0.621,-0.088 -1.403,-0.131 -2.338,-0.131 l 0,0 c -0.653,0 -1.137,0.011 -1.454,0.033 m 140.308,11.147 0,-24.19 20.18,0 0,5.755 -12.499,0 0,3.464 11.146,0 0,5.753 -11.146,0 0,3.465 12.454,0 0,5.753 -20.135,0 z m -10.103,0 -3.823,-11.768 -1.274,-5.197 -0.326,0 -1.274,5.197 -3.826,11.768 -8.333,0 8.464,-24.19 10.1,0 8.466,24.19 -8.174,0 z m -65.567,0 0,-24.19 20.461,0 0,5.755 -12.779,0 0,3.464 11.145,0 0,5.753 -11.145,0 0,3.465 12.452,0 0,5.753 -20.134,0 z m -47.264,0 0,-24.19 20.46,0 0,5.755 -12.779,0 0,3.464 11.146,0 0,5.753 -11.146,0 0,3.465 12.453,0 0,5.753 -20.134,0 z"
               style="fill:url(#linearGradient38);stroke:none"
               id="path44"
               inkscape:connector-curvature="0" /></g></g></g></g></g></svg>